<svg xmlns="http://www.w3.org/2000/svg" width="32" height="32" fill="none"><path fill="#fff" d="m23.323 20.594.83-.523v-2.235l.373-8.23-.86-2.335L21.884 4.2H2.842L.508 8.562v20.946l1.228 1.966h3.686l7.376-7.311 1.856-.378 6.687-2.792z"/><path fill="#F7F7F7" d="M3.494 1.508c-.025-.301.248-.598.555-.574h16.873c.287-.038.594.205.576.504.006.734 0 1.468.002 2.203L3.494 3.64c0-.71-.003-1.421 0-2.132M9.394 12.744l.199-.008c.37.622.73 1.25 1.093 1.877.085.133.17.294.337.335.805.232 1.622.423 2.428.653.206.044.432.148.635.038.67-.367 1.316-.782 1.988-1.147.233-.074.216.194.162.337-.293 1.149-.609 2.292-.9 3.44-.182.58-.282 1.182-.48 1.757-.141.448-.53.789-.968.935-.834.22-1.665.458-2.5.676-.493.099-1.014-.105-1.358-.46q-.834-.83-1.665-1.66a1.64 1.64 0 0 1-.398-.677 2.1 2.1 0 0 1 .005-.77c.03-.1.052-.202.076-.303q.42-1.563.825-3.13c.19-.627.304-1.274.521-1.893m.675 4.665c.093.184.247.383.482.348.366.027.469-.392.534-.67.15-.355-.252-.77-.61-.616-.354.163-.352.607-.406.938m2.881-.263c-.295.162-.33.541-.346.842-.03.335.395.556.668.386.253-.16.281-.492.346-.756.041-.347-.354-.617-.668-.472m-1.984 1.485c-.266.175-.269.61 0 .783.194.11.421.154.642.162.308.043.528-.314.437-.587-.044-.206-.25-.31-.438-.355-.203-.056-.453-.144-.641-.003M17.516 20.958c.535-.515 1.534-.342 1.853.334.086.22.312.407.56.352.253-.062.35-.323.482-.515.396-.578 1.336-.631 1.802-.11.204.178.249.509.523.607.221.09.48-.051.57-.262.158-.314.438-.58.782-.67.335-.052.717-.056.993.17.358.232.532.665.535 1.08-.004.275.26.454.511.468.474.043.822.439.975.864-2.114.017-4.227 0-6.34.008a.47.47 0 0 0-.457.315c-.128.293.14.669.461.636 2.577.01 5.153-.016 7.729.012.257.177.354.487.491.753.56 1.102 1.11 2.208 1.67 3.31.09.205.114.434.113.657q-.004.84 0 1.68c-.059.213-.227.429-.472.41q-9.172.007-18.344 0 .002-1.117 0-2.236c-.001-.16.018-.32.09-.464.613-1.228 1.236-2.45 1.85-3.678.098-.189.215-.448.467-.438 1.351-.011 2.702-.003 4.053-.004.12-.006.253.013.358-.06.293-.132.328-.6.072-.783a.52.52 0 0 0-.346-.111c-.957-.004-1.914.004-2.872-.004.12-.37.387-.68.748-.83.288-.034.68-.097.733-.445.015-.38.096-.796.41-1.047m1.844 4.81c-.43.094-.84.324-1.117.669-.554.652-.57 1.7-.035 2.368.363.482.969.755 1.568.745h3.11c.848.046 1.704-.513 1.933-1.343.18-.503.084-1.065-.17-1.525-.34-.585-1.012-.969-1.692-.94-1.199.017-2.4-.033-3.597.027"/><path fill="#48FDBC" d="M18.817 21.57c-.278-.686-1.149-.86-1.615-.339-.273.254-.344.677-.357 1.062-.046.354-.387.417-.639.451-.314.153-.547.468-.651.843.834.008 2.502.004 2.502.004l1.973.001s3.683.009 5.525-.008c-.134-.431-.437-.833-.85-.877a.474.474 0 0 1-.445-.474c-.002-.421-.154-.861-.466-1.096-.241-.23-.573-.226-.865-.173-.3.092-.544.361-.681.68-.08.214-.305.357-.498.265-.238-.099-.278-.435-.455-.616-.406-.528-1.225-.474-1.57.113-.116.195-.2.46-.42.522-.216.056-.413-.135-.488-.357"/><path fill="#F7F7F7" d="M5.77 24.95c.809-1.414 1.676-2.8 2.514-4.198.288.307.597.594.892.894.208.201.405.42.657.569.455.299 1.02.41 1.557.358.657-.087 1.275-.35 1.925-.475.02.534-.01 1.07.054 1.603-.726 1.31-1.354 2.675-2.05 4.004a2.44 2.44 0 0 0-.299 1.187l.001 2.168H5.763c.005-2.037-.01-4.074.007-6.11M19.36 26.749c.209-.073.431-.068.648-.067 1.012.006 2.025-.004 3.037.006.515 0 .972.485.934.999-.01.485-.448.906-.93.924-1.116.006-2.232.003-3.348.001-.468-.002-.891-.39-.95-.85-.062-.424.215-.862.61-1.013M2.613 29.351c.14-.235.247-.495.439-.695q.661 1.206 1.346 2.4-1.007.008-2.014 0c-.23.009-.44-.094-.634-.207.297-.494.57-1.001.863-1.498"/><path fill="#000" d="M2.67.9c.234-.535.785-.91 1.374-.899q8.475-.001 16.95 0c.716-.005 1.355.574 1.442 1.28.048.918-.026 1.843.037 2.757.677 1.407 1.404 2.79 2.08 4.196.21.555.15 1.167.165 1.75-.004.264.04.613-.22.776-.262.212-.679.01-.723-.31-.026-.5.006-1-.013-1.502-.023-.337-.2-.634-.354-.926-.566-1.154-1.153-2.297-1.717-3.451-5.971.002-11.942-.005-17.914.004.463.863.876 1.753 1.327 2.622.266.582.66 1.143.66 1.808.005 4.71-.005 9.42.004 14.13C6.359 22.098 7 21.092 7.6 20.063c-.363-.391-.562-.918-.615-1.444-.042-.413.081-.816.197-1.207.392-1.527.803-3.05 1.2-4.576.062-.397.29-.788.674-.946.469-.246 1.08-.035 1.36.397.358.605.705 1.219 1.065 1.823.777.192 1.545.415 2.322.608.643-.35 1.258-.747 1.903-1.093.569-.252 1.283.09 1.463.68.145.388-.037.783-.133 1.16-.395 1.52-.797 3.036-1.198 4.554a2.5 2.5 0 0 1-1.594 1.814c.02.485.029.969.042 1.454l.395-.005c.109-.815.728-1.516 1.511-1.755.14-.74.657-1.421 1.38-1.67.734-.302 1.63-.107 2.194.44.07.072.157-.014.21-.06.264-.251.612-.387.96-.477.694-.158 1.437.1 1.945.585.26-.223.543-.425.878-.518.018-2.425-.003-6.851.01-9.276 0-.297.335-.565.619-.435.194.056.285.248.33.43-.005 2.393 0 6.788-.003 9.183a2.24 2.24 0 0 1 1.746 1.508l.037.271c.79.25 1.432.942 1.543 1.774.577-.051 1.192.193 1.484.713.52 1.014 1.028 2.036 1.544 3.054.252.547.63 1.073.631 1.7.002.645.007 1.29-.003 1.937-.038.713-.685 1.32-1.401 1.31-9.154.004-18.307 0-27.46.002-.34.003-.688.01-1.015-.095C.939 31.666.299 30.787.3 29.88q-.003-1.4 0-2.8c-.022-.293.294-.548.576-.473.18.048.356.2.353.399.01.955-.002 1.91.005 2.865.443-.774.9-1.542 1.325-2.326.025-2.469-.004-4.94.015-7.408.01-.349.475-.57.741-.329.223.16.175.454.179.692.003 2.35-.012 4.7.007 7.05a125 125 0 0 0 1.33 2.364V9.462c0-.326.031-.672-.13-.97-.405-.797-.791-1.605-1.207-2.397-.005 3.239.004 6.477-.005 9.716.021.289-.308.541-.58.443-.227-.055-.359-.295-.34-.518-.002-3.214.002-6.429-.002-9.644-.418.811-.815 1.633-1.228 2.446-.14.339-.104.713-.106 1.072-.002 5.093.002 12.854-.003 17.948.024.256-.219.414-.436.476-.125-.053-.28-.06-.367-.176-.164-.16-.124-.4-.13-.607.004-5.194 0-13.056.004-18.25-.007-.625.357-1.159.614-1.701.545-1.1 1.102-2.193 1.641-3.296.032-.869-.002-1.74.016-2.61.008-.168.058-.33.097-.493m.823.61q-.001 1.067 0 2.133H21.5c-.003-.734.003-1.469-.003-2.202.018-.3-.288-.542-.576-.505H4.048c-.307-.023-.58.273-.555.574m5.902 11.236c-.217.619-.33 1.266-.521 1.893q-.404 1.567-.825 3.13-.034.152-.076.303a2.1 2.1 0 0 0-.005.77c.083.251.206.49.397.677q.832.83 1.665 1.66c.344.355.866.559 1.359.46.835-.218 1.666-.456 2.5-.676.437-.146.827-.487.968-.935.198-.575.298-1.177.48-1.756.291-1.15.607-2.292.9-3.44.054-.144.07-.412-.163-.338-.671.365-1.317.78-1.988 1.147-.202.11-.428.006-.634-.038-.807-.23-1.623-.42-2.428-.653-.168-.04-.252-.202-.337-.335-.364-.626-.723-1.255-1.093-1.877zm8.123 8.214c-.314.25-.394.667-.41 1.046-.053.35-.444.412-.733.445-.36.15-.628.461-.748.83.958.01 1.916 0 2.873.005a.52.52 0 0 1 .345.11c.257.185.221.651-.072.785-.105.072-.237.052-.357.059-1.351 0-2.703-.007-4.053.003-.252-.01-.37.25-.468.44-.614 1.226-1.237 2.448-1.85 3.677a1 1 0 0 0-.09.464q.002 1.118 0 2.237 9.173.005 18.345-.001c.244.019.413-.197.472-.41q-.005-.84-.001-1.68a1.6 1.6 0 0 0-.114-.658c-.56-1.101-1.11-2.208-1.668-3.31-.137-.265-.235-.575-.492-.752-2.576-.028-5.152-.002-7.729-.013-.32.034-.59-.342-.46-.635a.47.47 0 0 1 .456-.315c2.113-.009 4.227.009 6.34-.008-.153-.425-.5-.82-.975-.865-.252-.013-.515-.193-.511-.466-.002-.416-.176-.85-.535-1.08-.276-.227-.657-.223-.992-.172-.345.091-.625.357-.782.67-.09.212-.35.352-.571.262-.274-.097-.32-.429-.523-.607-.466-.52-1.406-.467-1.802.111-.133.192-.229.453-.481.515-.249.055-.475-.133-.561-.352-.318-.677-1.318-.85-1.853-.335M5.772 24.953c-.017 2.035-.002 4.073-.007 6.11h5.258l-.001-2.169a2.44 2.44 0 0 1 .3-1.187c.695-1.328 1.323-2.694 2.049-4.003-.064-.533-.034-1.07-.055-1.604-.649.126-1.267.39-1.924.476-.538.052-1.102-.06-1.558-.358-.252-.149-.448-.368-.656-.57-.295-.3-.604-.586-.892-.893-.838 1.398-1.705 2.783-2.514 4.198m-3.158 4.402c-.294.496-.567 1.003-.863 1.497.193.113.403.216.634.208q1.006.006 2.014 0-.685-1.195-1.346-2.4c-.192.2-.3.46-.44.695"/><path fill="#000" d="M18.407 8.826c.13-.121.315-.101.48-.103.655.004 1.311-.004 1.967.003.298-.006.57.335.443.62-.06.194-.25.29-.435.334-.686-.003-1.373 0-2.06-.001-.215.009-.445-.083-.545-.284-.072-.197-.035-.446.15-.57M18.524 10.504c.716-.082 1.451-.01 2.175-.036.246-.038.513.085.6.328.128.315-.197.668-.52.629-.73-.012-1.463.023-2.191-.018-.444-.08-.494-.763-.065-.903M13.739 8.826c.13-.121.315-.101.48-.103.655.004 1.312-.004 1.967.003.299-.006.57.335.443.62-.06.194-.25.29-.435.334-.686-.003-1.373 0-2.06-.001-.215.009-.445-.083-.545-.284-.072-.197-.035-.446.15-.57M10.07 17.412c.055-.33.053-.775.406-.938.358-.153.76.261.61.617-.065.277-.168.697-.534.67-.234.034-.389-.165-.482-.349M12.95 17.146c.313-.146.708.125.667.472-.065.264-.093.596-.345.755-.274.17-.699-.05-.669-.386.016-.3.052-.68.347-.841M10.966 18.635c.188-.142.438-.053.642.002.187.045.393.15.438.356.09.273-.13.63-.438.587a1.4 1.4 0 0 1-.642-.162c-.268-.174-.266-.608 0-.783M19.363 25.773c1.197-.06 2.399-.01 3.598-.027.679-.029 1.352.355 1.692.94.253.46.349 1.022.17 1.525-.23.83-1.086 1.389-1.934 1.344q-1.556-.002-3.11 0c-.6.009-1.205-.264-1.567-.746-.535-.669-.52-1.716.034-2.369a1.98 1.98 0 0 1 1.117-.668m-.002.98c-.394.151-.671.59-.61 1.013.06.46.483.848.95.85 1.117.002 2.233.005 3.35-.001.48-.018.918-.44.929-.924.038-.514-.419-1-.934-1-1.012-.01-2.025 0-3.037-.005-.217-.001-.44-.006-.648.067"/></svg>