<svg xmlns="http://www.w3.org/2000/svg" width="54" height="49" fill="none"><path fill="#fff" d="M23.452 2.378c.44-.068 1.054-.031 1.25.45.247.678.024 1.405-.145 2.075-.438 1.346-1.109 2.604-1.834 3.816-1.879 3.06-4.217 5.814-6.714 8.384-2.427 2.443-5.04 4.73-7.962 6.566-.748.459-1.515.888-2.313 1.252-.906.37-1.864.79-2.866.636-.522-.13-.681-.734-.644-1.206.066-.737.315-1.44.566-2.13 1.297-3.046 3.287-5.735 5.403-8.26 2.299-2.69 4.825-5.195 7.596-7.401 1.93-1.499 3.958-2.932 6.247-3.827a5.6 5.6 0 0 1 1.416-.355"/><path fill="#48FDBC" d="M24.519 6.068c.42.528 1.165.914 1.149 1.681 0 .537-.122 1.07-.282 1.579-.777 2.185-2.047 4.143-3.396 6.002-1.849 2.505-3.963 4.798-6.22 6.924-1.93 1.767-3.979 3.429-6.26 4.705-1.087.56-2.242 1.173-3.498 1.104-.568-.247-.898-.819-1.344-1.228 1.65-.376 3.149-1.216 4.567-2.127 2.742-1.818 5.204-4.039 7.473-6.431 2.292-2.428 4.401-5.057 6.09-7.958.744-1.334 1.424-2.735 1.72-4.25"/><path fill="#fff" d="M22.497 26.063c2.005 1.344 4.393 1.942 6.738 2.377a39.9 39.9 0 0 0 14.353-.182c2-.463 4.063-.993 5.75-2.217.09.525-.005 1.096-.413 1.471-.961.934-2.26 1.398-3.507 1.819-2.221.699-4.544.988-6.858 1.171-2.646.155-5.308.093-7.935-.28-1.25-.123-2.47-.43-3.686-.734-1.413-.45-2.905-.92-4.005-1.965-.424-.363-.482-.939-.437-1.46"/><path fill="#fff" d="M20.194 29.49c.291-.52.802-.917 1.346-1.141.946 1.049 2.236 1.69 3.537 2.183 2.752.973 5.665 1.384 8.569 1.554a36.5 36.5 0 0 0 5.54-.07 32.2 32.2 0 0 0 6.025-.987c1.827-.55 3.782-1.197 5.069-2.687.57.21 1.074.638 1.384 1.158.224.41-.112.834-.396 1.109-.963.827-2.196 1.22-3.375 1.628-2.675.793-5.457 1.19-8.235 1.38a68 68 0 0 1-7.46.001c-2.806-.196-5.617-.596-8.32-1.406-1.15-.404-2.354-.794-3.294-1.6-.29-.275-.628-.716-.39-1.123"/><path fill="#fff" d="M20.115 32.232c1.994 1.332 4.382 1.854 6.696 2.336 1.564.229 3.129.501 4.711.579 1.983.156 3.977.194 5.968.16.951-.101 1.914-.039 2.865-.159 1.617-.085 3.217-.358 4.816-.603 2.272-.47 4.605-1.013 6.569-2.307-.067.753.25 1.685-.402 2.26-.937.854-2.176 1.252-3.35 1.663-3.861 1.167-7.917 1.492-11.934 1.52-.465-.04-.96.339-.92.83-.003 1.84-.008 3.682.002 5.522-.013.414.375.793.789.771 2.37.002 4.743-.117 7.09-.454 2.21-.265 4.407-.715 6.497-1.488.78-.302 1.531-.668 2.229-1.13-.074.726.243 1.618-.35 2.192-.619.636-1.46.973-2.256 1.322-3.07 1.145-6.352 1.584-9.603 1.825-1.839.052-3.68.173-5.518.054-2.329-.032-4.647-.286-6.938-.7-.727-.114-1.44-.302-2.148-.498l-.394-.071c-1.296-.419-2.642-.817-3.75-1.64-.352-.273-.709-.655-.676-1.133.004-3.616-.009-7.233.007-10.85"/><path fill="#48FDBC" d="M48.245 38.156c.84-.291 1.672-.62 2.416-1.088.008.835.003 1.67.004 2.505.037.402-.29.723-.606.957-.93.643-2.054.98-3.148 1.31-3.325.876-6.794 1.167-10.24 1.228-.006-1.124-.001-2.25-.002-3.374.316-.001.634-.001.951-.014 1.298-.075 2.602-.095 3.895-.242 2.278-.245 4.556-.593 6.73-1.282"/><path fill="#000" d="M23.198.792c.846-.105 1.776.013 2.416.629q1.465 1.471 2.892 2.983c.607.643.678 1.585.61 2.423-.367 2.403-1.632 4.543-2.922 6.56-2.207 3.31-4.85 6.313-7.72 9.06-1.943 1.833-4.002 3.554-6.235 5.025-1.118.732-2.287 1.392-3.52 1.912-.889.323-1.801.674-2.765.636-.748.04-1.46-.334-1.966-.863-.768-.791-1.528-1.59-2.3-2.376-.321-.331-.674-.667-.81-1.124-.382-1.022-.13-2.129.14-3.145.458-1.407 1.137-2.732 1.897-3.998C4.84 15.375 7.209 12.528 9.77 9.89c2.67-2.713 5.568-5.238 8.829-7.221 1.435-.827 2.948-1.604 4.599-1.876m.253 1.586a5.6 5.6 0 0 0-1.416.355c-2.289.895-4.317 2.328-6.248 3.827-2.77 2.206-5.296 4.71-7.595 7.402-2.116 2.523-4.106 5.213-5.403 8.26-.25.688-.5 1.392-.566 2.128-.037.473.122 1.077.644 1.206 1.002.155 1.96-.266 2.866-.635a22 22 0 0 0 2.313-1.252c2.922-1.836 5.535-4.123 7.962-6.566 2.497-2.57 4.835-5.323 6.714-8.384.725-1.212 1.396-2.47 1.834-3.816.17-.67.392-1.397.145-2.076-.196-.48-.81-.518-1.25-.45m2.84 2c-.33 1.658-1.087 3.19-1.916 4.649-1.88 3.172-4.228 6.047-6.78 8.702-2.526 2.616-5.268 5.045-8.32 7.033-1.58.996-3.247 1.914-5.085 2.326.497.447.865 1.073 1.497 1.342 1.397.076 2.684-.596 3.895-1.207 2.54-1.395 4.82-3.213 6.97-5.145 2.512-2.324 4.866-4.832 6.924-7.572 1.501-2.032 2.916-4.173 3.78-6.563.179-.557.316-1.139.314-1.726.018-.84-.811-1.262-1.279-1.838M39.927 16.146c.068-.466.639-.728 1.049-.527 2.694 1.65 4.432 4.752 4.417 7.913-.009.56-.726.916-1.182.599-.355-.185-.382-.616-.389-.968-.109-2.103-1.098-4.152-2.729-5.496-1.041 1.828-2.878 3.103-4.846 3.766-1.008.37-2.095.436-3.16.454-1.904.108-3.774.829-5.227 2.07-.254.244-.643.38-.971.201-.503-.21-.572-.982-.157-1.308 1.85-1.657 4.326-2.559 6.805-2.554 2.203-.003 4.35-1.076 5.746-2.768.329-.397.572-.868.644-1.382"/><path fill="#000" d="M29.211 18.48c2.224-.333 4.47-.577 6.722-.553.414-.004.813.385.78.805.018.416-.368.783-.778.774-3.073-.002-6.164.312-9.133 1.127-1.229.403-2.493.822-3.527 1.626-.392.313-.815.734-.774 1.278.057.58.555.957.98 1.289.872.593 1.863.98 2.856 1.314 3.374 1.036 6.93 1.319 10.443 1.266 3.037-.067 6.095-.418 8.999-1.348 1.124-.427 2.31-.858 3.171-1.735.355-.348.554-.926.253-1.37-.518-.813-1.437-1.233-2.273-1.641-.446-.235-1.038-.257-1.358-.683-.32-.413-.063-1.054.415-1.205.449-.088.865.162 1.27.313 1.276.542 2.614 1.226 3.344 2.46.44.725.321 1.605.336 2.413.018.758-.037 1.52.03 2.275 1.12.56 2.308 1.516 2.345 2.875q.008 6.721.001 13.442c.003.9-.556 1.683-1.24 2.218-1.35 1.074-3.03 1.594-4.662 2.068-.99.217-1.97.482-2.975.617-1.906.27-3.82.556-5.75.571-1.48.128-2.968.069-4.452.069-.875-.096-1.758-.058-2.635-.14-2.176-.19-4.35-.46-6.479-.951l-.074-.046c-1.314-.253-2.585-.715-3.802-1.265-.9-.471-1.82-1.026-2.368-1.912-.279-.44-.343-.973-.337-1.482.006-4.395-.004-8.792.005-13.187.005-1.394 1.26-2.294 2.349-2.92.04-1.185-.009-2.374.021-3.561.072-1.12.932-1.981 1.816-2.57 1.943-1.261 4.24-1.781 6.481-2.23m-6.715 7.582c-.046.522.013 1.097.436 1.46 1.1 1.045 2.592 1.515 4.006 1.965 1.216.304 2.436.612 3.685.734 2.627.373 5.29.435 7.936.28 2.314-.183 4.636-.472 6.858-1.17 1.247-.421 2.545-.886 3.507-1.82.407-.375.503-.945.412-1.47-1.687 1.224-3.75 1.753-5.75 2.216-4.721.934-9.61.985-14.352.183-2.345-.436-4.734-1.034-6.738-2.378m-2.302 3.428c-.239.406.1.847.39 1.122.94.807 2.143 1.197 3.294 1.6 2.703.811 5.514 1.21 8.32 1.407 2.486.135 4.976.135 7.46-.001 2.778-.19 5.56-.588 8.235-1.38 1.18-.408 2.412-.801 3.375-1.628.284-.275.62-.7.396-1.11a2.76 2.76 0 0 0-1.384-1.158c-1.287 1.49-3.242 2.137-5.07 2.687-1.97.524-3.99.846-6.024.988a36.5 36.5 0 0 1-5.54.07c-2.904-.17-5.817-.582-8.569-1.554-1.3-.494-2.59-1.134-3.537-2.183-.544.224-1.055.62-1.346 1.14m-.082 2.742c-.015 3.617-.002 7.234-.007 10.85-.032.478.325.86.676 1.134 1.108.823 2.455 1.22 3.75 1.64q.198.034.395.07c.708.196 1.42.385 2.147.497 2.291.415 4.61.67 6.938.702 1.84.118 3.68-.003 5.52-.054 3.25-.241 6.53-.681 9.601-1.826.798-.35 1.638-.686 2.257-1.321.593-.575.275-1.467.35-2.192-.698.462-1.45.827-2.229 1.13-2.09.773-4.287 1.222-6.497 1.487-2.347.337-4.72.456-7.09.455-.414.021-.803-.358-.79-.771-.009-1.84-.004-3.682-.002-5.523-.04-.491.456-.87.921-.83 4.017-.028 8.072-.353 11.933-1.52 1.175-.41 2.413-.809 3.35-1.663.653-.575.335-1.506.403-2.26-1.964 1.294-4.297 1.837-6.57 2.307-1.599.245-3.198.518-4.815.604-.951.12-1.914.057-2.866.158a62 62 0 0 1-5.967-.16c-1.582-.078-3.147-.35-4.712-.579-2.314-.482-4.702-1.003-6.696-2.335m29.032 5.233c-2.334.807-4.78 1.214-7.226 1.501-1.388.173-2.788.195-4.181.284-.34.015-.683.015-1.022.016.001 1.317-.004 2.635.002 3.953 3.7-.072 7.425-.413 10.995-1.44 1.174-.386 2.38-.78 3.38-1.534.339-.274.69-.65.65-1.12 0-.979.004-1.957-.004-2.934-.799.546-1.692.932-2.594 1.274"/></svg>