<svg xmlns="http://www.w3.org/2000/svg" width="49" height="49" fill="none"><path fill="#48FDBC" d="M31.615 2.022c.307-.221.706-.375 1.085-.247.446.126.705.537.982.872-4.522 3.292-9.097 6.517-13.632 9.795a1 1 0 0 1-.332.123c-.223-.402-.62-.828-.464-1.322.095-.537.626-.802 1.027-1.096q5.67-4.062 11.334-8.125"/><path fill="#F7F7F7" d="M36.117 2.983c1.31-.829 2.895-1.231 4.443-1.011 1.826.197 3.505 1.259 4.548 2.744.984 1.243 1.56 2.823 1.48 4.41-.102 1.63-.816 3.222-2.018 4.35q-4.224-5.249-8.453-10.493M20.672 14.047c4.712-3.336 9.382-6.733 14.09-10.072C38.4 8.53 42.078 13.058 45.73 17.604c.644.694.538 1.962-.275 2.492q-6.478 4.648-12.96 9.292c-.77.599-1.987.361-2.48-.47-3.108-4.961-6.249-9.903-9.343-14.871"/><path fill="#48FDBC" d="M11.977 18.719c.696.254 1.446.454 2.073.83.109 1.368.255 2.735.428 4.097-.594.49-1.21.953-1.837 1.395-.27-2.103-.437-4.215-.664-6.322"/><path fill="#F7F7F7" d="M15.93 19.721c1.956-.278 3.939-.355 5.898-.625.673 1.023 1.296 2.079 1.974 3.1-1.372.23-2.767.283-4.146.453-1.144.082-2.276.253-3.418.352-.118-1.092-.253-2.183-.308-3.28"/><path fill="#48FDBC" d="M11.97 36.788c.45-.036.902-.044 1.353-.041.115 1.23-.237 2.54-1.158 3.41-.873.924-2.194 1.237-3.433 1.137-.07-.947.067-1.935.6-2.742.583-.916 1.571-1.554 2.638-1.764M19.02 36.749c.823-.019 1.692 0 2.429.416a3.95 3.95 0 0 1 2.102 2.731c.072.464.036.933.039 1.4-.632-.007-1.282.022-1.888-.184-1.33-.45-2.39-1.63-2.631-3.006-.067-.45-.048-.905-.051-1.357M28.194 36.881c.553-.158 1.134-.13 1.704-.133-.006.593.035 1.201-.154 1.774-.398 1.318-1.547 2.396-2.91 2.691-.497.094-1.005.077-1.508.081.012-.566-.063-1.152.114-1.7.365-1.294 1.445-2.36 2.754-2.713M35.596 36.748c.61.004 1.237-.026 1.828.164 1.225.387 2.256 1.38 2.604 2.616.2.569.167 1.175.158 1.767-1.242.102-2.564-.215-3.437-1.14-.919-.87-1.27-2.177-1.153-3.407M2.418 36.748c.786-.013 1.61-.01 2.327.354.99.453 1.775 1.321 2.1 2.353.232.586.185 1.224.181 1.839-.645-.005-1.308.025-1.925-.19-1.137-.398-2.098-1.312-2.46-2.46-.225-.607-.237-1.259-.223-1.896M43.062 37.87c.885-.909 2.201-1.224 3.441-1.12.051.968-.106 1.982-.661 2.802-.672.995-1.821 1.705-3.045 1.731-.301.014-.602.01-.901.012-.129-1.238.237-2.554 1.166-3.425"/><path fill="#000" d="M30.718.599c.817-.628 1.99-.7 2.913-.27.599.294 1.037.813 1.42 1.342C37.127.275 39.853-.203 42.243.63c2.342.68 4.146 2.552 5.215 4.666 1.575 3.102.801 7.19-1.835 9.49.466.56.914 1.134 1.376 1.699.512.61.862 1.383.864 2.185.026 1.117-.565 2.22-1.497 2.844-4.274 3.068-8.55 6.13-12.827 9.195a3.42 3.42 0 0 1-2.789.61c-.933-.161-1.734-.8-2.22-1.587-1.147-1.829-2.301-3.654-3.446-5.484a4 4 0 0 0-.328-.45c-2.213.22-4.421.507-6.639.682-.74.11-1.498.106-2.232.258-.855.56-1.61 1.262-2.471 1.813-.691.425-1.62.166-2.112-.436-.304-.323-.345-.781-.397-1.199-.154-2.089-.522-4.158-.608-6.252-.085-1.099 1.22-1.963 2.23-1.55.805.329 1.64.582 2.445.915.201.096.429.045.643.036 1.438-.134 2.867-.36 4.31-.443.301-.065.61-.08.918-.1-.963-1.545-1.937-3.085-2.908-4.626-.794-1.28-.322-3.093.983-3.85C22.858 6.24 26.78 3.408 30.718.6m.897 1.423q-5.665 4.063-11.334 8.125c-.402.294-.932.56-1.027 1.096-.157.495.241.92.463 1.323a1 1 0 0 0 .332-.123c4.535-3.28 9.11-6.503 13.633-9.795-.277-.336-.537-.746-.983-.872-.378-.129-.777.025-1.084.246m4.5.96q4.23 5.246 8.453 10.494c1.202-1.128 1.916-2.72 2.019-4.35.079-1.587-.497-3.167-1.481-4.41-1.043-1.485-2.722-2.547-4.548-2.744-1.548-.22-3.133.183-4.443 1.01M20.671 14.048c3.094 4.969 6.235 9.91 9.343 14.872.492.831 1.71 1.069 2.48.47 4.32-3.098 8.642-6.192 12.96-9.292.813-.53.919-1.798.274-2.493C42.076 13.06 38.4 8.532 34.762 3.976c-4.709 3.34-9.379 6.736-14.09 10.071m-8.696 4.672c.227 2.107.393 4.22.664 6.323a30 30 0 0 0 1.837-1.396 88 88 0 0 1-.428-4.097c-.627-.375-1.377-.576-2.073-.83m3.955 1.003c.055 1.097.19 2.188.308 3.28 1.142-.1 2.274-.27 3.418-.352 1.379-.17 2.774-.223 4.147-.454-.68-1.02-1.302-2.076-1.975-3.1-1.96.271-3.942.348-5.898.626M7.074 20.52c.624-.283 1.316.443 1.078 1.051-.198.681-1.288.82-1.62.178-.295-.48.017-1.09.542-1.229M4.387 22.792c.68-.289 1.406.57 1.037 1.194-.25.652-1.382.67-1.595-.02-.216-.46.155-.963.558-1.174M7.8 25.794c.202-.27.357-.673.743-.71.419-.099.818.196.96.572.215.65-.395 1.47-1.116 1.3-.563-.052-.744-.697-.586-1.162M2.615 25.925c.6-.343 1.418.306 1.233.956-.08.334-.353.561-.65.711h-.457c-.76-.216-.785-1.325-.126-1.667M7.169 28.703l.319-.008c.905.19.944 1.559.134 1.89-.457.213-.947-.085-1.152-.498-.035-.54.094-1.213.699-1.384M2.056 29.361c.517-.2 1.149.135 1.212.69.133.627-.66 1.222-1.223.875-.618-.28-.62-1.3.01-1.565M6.32 34.1c-.53-.543-.141-1.493.598-1.58.48.086.948.463.878.993.072.747-1.012 1.181-1.477.586M.739 35.052c1.399.054 2.855-.187 4.194.327 1.21.383 2.222 1.236 2.927 2.268.72-.95 1.63-1.808 2.784-2.203 1.383-.591 2.915-.34 4.374-.394-.019 1.399.134 2.831-.297 4.188-.584 1.573-1.868 2.901-3.488 3.431-.797.32-1.664.343-2.512.324v3.403H23.6q.004-1.703.001-3.404c-1.63.124-3.321-.401-4.508-1.531-1.016-.925-1.634-2.241-1.771-3.594-.036-.937-.014-1.877-.014-2.815 1.405.054 2.87-.188 4.215.33 1.175.38 2.184 1.183 2.866 2.197l.143.001c.999-1.521 2.785-2.486 4.614-2.528.822-.004 1.645 0 2.469 0 .005.722.002 1.444.004 2.166a5.64 5.64 0 0 1-1.796 4.248c-1.183 1.132-2.874 1.647-4.501 1.526a743 743 0 0 0 0 3.404h14.877q.003-1.703 0-3.404c-1.658.126-3.379-.413-4.573-1.578-.641-.602-1.111-1.364-1.426-2.177-.432-1.356-.278-2.788-.297-4.187 1.46.055 2.995-.198 4.38.397 1.156.39 2.056 1.256 2.78 2.2.991-1.518 2.73-2.52 4.558-2.593.853-.01 1.707 0 2.562-.002-.031 1.224.103 2.467-.156 3.676-.335 1.38-1.234 2.612-2.44 3.375-1.09.705-2.412.972-3.699.89v3.403c2.015.008 4.03-.016 6.044.012q-.008.817 0 1.635c-8.314.028-16.63.004-24.945.012-7.333-.008-14.665.016-21.997-.012q.008-.818 0-1.635c2.015-.028 4.029-.004 6.044-.012q-.002-1.703 0-3.402c-1.322.085-2.683-.203-3.784-.952a5.6 5.6 0 0 1-2.357-3.314C.635 37.518.77 36.276.74 35.052m11.233 1.737c-1.067.21-2.055.848-2.638 1.764-.534.807-.67 1.796-.6 2.742 1.239.1 2.56-.212 3.432-1.136.921-.87 1.273-2.18 1.158-3.411-.45-.003-.902.005-1.352.041m7.05-.04c.002.452-.017.907.05 1.357.241 1.376 1.302 2.557 2.631 3.006.607.207 1.256.178 1.888.184-.003-.466.034-.935-.039-1.4a3.95 3.95 0 0 0-2.102-2.73c-.736-.417-1.605-.435-2.429-.417m9.174.133c-1.31.354-2.389 1.42-2.755 2.713-.176.548-.101 1.134-.113 1.7.503-.004 1.01.013 1.507-.081 1.363-.295 2.512-1.373 2.911-2.691.189-.573.147-1.181.154-1.774-.57.003-1.151-.025-1.704.133m7.401-.134c-.118 1.23.234 2.537 1.153 3.407.873.925 2.194 1.242 3.437 1.14.01-.593.041-1.198-.158-1.767-.348-1.236-1.38-2.229-2.604-2.616-.59-.19-1.217-.16-1.828-.164m-33.18.001c-.013.638 0 1.29.224 1.897.362 1.147 1.323 2.062 2.46 2.46.617.214 1.28.185 1.925.189.004-.615.05-1.253-.182-1.838-.324-1.033-1.11-1.9-2.1-2.354-.716-.364-1.54-.367-2.326-.354m40.645 1.121c-.93.871-1.295 2.187-1.167 3.425.299-.001.6.002.901-.012 1.224-.026 2.373-.736 3.045-1.73.556-.821.712-1.835.661-2.804-1.24-.103-2.556.212-3.44 1.121"/></svg>