<svg xmlns="http://www.w3.org/2000/svg" width="49" height="49" fill="none"><path fill="#F7F7F7" d="M29.263 2.597a1.23 1.23 0 0 1 1.068-.946c.628-.059 1.232.454 1.301 1.076.021.35-.098.686-.16 1.027-1.337 6.906-2.67 13.813-4.01 20.719-.712-.37-1.518-.493-2.31-.54.533-2.968 1.15-5.92 1.697-8.886.815-4.148 1.607-8.3 2.414-12.45M38.816 22.452c-.059-.567.652-1.05 1.15-.748.211.101.334.306.454.498.035.358-.081.776-.444.923-.485.265-1.17-.11-1.16-.673M21.856 27.886c.464-1.123 1.437-2.145 2.688-2.314.691-.14 1.41-.004 2.058.254 1.379.58 2.41 1.826 2.804 3.26-1.258.466-2.614.594-3.947.555-1.359-.097-2.728-.688-3.604-1.755M44.47 26.455c.786-.26 1.657.49 1.513 1.307-.047.808-1.071 1.331-1.751.89-.727-.337-.822-1.477-.193-1.95.128-.105.27-.199.43-.247M13.399 35.776c3.008-1.473 5.824-3.545 7.663-6.387 1.53 1.463 3.748 2.076 5.826 1.809.949-.016 1.88-.227 2.785-.505.134.996.235 1.996.273 3-1.238.671-2.114 1.92-2.37 3.3.004.213-.223.262-.364.356-1.232.652-2.12 1.88-2.4 3.241-.27 1.267.077 2.61.818 3.658a13.16 13.16 0 0 1-6.534 2.149 18.5 18.5 0 0 0 3.534-3.118c.273-.267.386-.71.155-1.039-.275-.473-1.029-.485-1.34-.045-1.534 1.763-3.448 3.168-5.54 4.202l-.346-.06c-.9-.043-1.793-.174-2.674-.354-.758-.15-1.532-.252-2.263-.516 1.173-.335 2.29-.838 3.402-1.331 3.327-1.546 6.467-3.726 8.589-6.766.209-.267.31-.652.112-.954-.24-.517-1.059-.55-1.344-.058-1.286 1.852-2.986 3.39-4.88 4.6-2.528 1.648-5.363 2.766-8.247 3.613a.52.52 0 0 1-.399-.023c-1.138-.492-2.238-1.103-3.189-1.906 3.102-.415 6.126-1.369 8.935-2.74.525-.202.602-1.012.157-1.337a.75.75 0 0 0-.82-.1c-2.99 1.57-6.335 2.259-9.639 2.806a6.6 6.6 0 0 1-1.104-2.19c3.852-.62 7.69-1.573 11.204-3.305"/><path fill="#48FDBC" d="M36.311 34.656c1.309-.446 2.818-.292 3.974.48 1.051.671 1.748 1.801 2 3.013.068.406.517.52.86.583 1.122.226 2.12 1.02 2.558 2.082a3.45 3.45 0 0 1-.044 2.962c-.707 1.63-2.76 2.494-4.42 1.86-.497-.095-.887-.623-1.423-.461-.343.14-.549.47-.815.71-.932.861-2.192 1.391-3.469 1.355-1.553.052-3.1-.698-4.053-1.919-.212-.337-.615-.631-1.029-.472-.55.243-1.102.552-1.725.537-1.63.084-3.178-1.324-3.191-2.968-.09-1.296.765-2.603 1.999-3.023.354-.113.77-.34.766-.768.004-1.03.54-2.051 1.404-2.618 1.04-.702 2.51-.69 3.52.065.306.271.848.29 1.12-.043a4.9 4.9 0 0 1 1.968-1.375"/><path fill="#000" d="M28.475.852c.987-1.027 2.776-1.06 3.815-.095.641.577 1.016 1.469.934 2.331-.314 1.639-.627 3.277-.948 4.914q-1.601 8.292-3.205 16.584c-.05.263-.077.53-.17.784.237.297.537.539.773.84.9 1.094 1.408 2.478 1.537 3.882.138 1.017.254 2.04.313 3.065.688-.12 1.389-.05 2.06.125q.453.15.88.363a6.05 6.05 0 0 1 3.236-1.562c1.848-.298 3.823.315 5.16 1.631.778.74 1.327 1.693 1.638 2.717 1.362.314 2.544 1.25 3.233 2.457.678 1.22.896 2.72.446 4.055-.418 1.48-1.559 2.714-2.973 3.304-.95.366-2.005.51-3.007.285-.422-.083-.828-.235-1.236-.365-1.47 1.468-3.64 2.109-5.684 1.823a6.9 6.9 0 0 1-4.011-2.18c-1.455.625-3.186.444-4.492-.443-2.606 1.947-5.938 2.667-9.141 2.658-.614-.02-1.233.027-1.842-.07-3.198-.21-6.384-.926-9.305-2.262-1.655-.816-3.18-1.934-4.363-3.356-.686-.86-1.214-1.853-1.488-2.921-.172-.647.16-1.375.728-1.714.376-.21.82-.226 1.233-.318 4.562-.753 9.141-2.08 12.998-4.709 1.822-1.272 3.485-2.863 4.526-4.85.214-.377.325-.802.55-1.173.605-1.107 1.597-2.024 2.786-2.46 1.32-6.778 2.621-13.56 3.935-20.338.218-1.035.254-2.236 1.084-3.002m.788 1.744c-.807 4.15-1.6 8.302-2.415 12.451-.547 2.965-1.164 5.918-1.696 8.886.792.046 1.598.17 2.31.54 1.34-6.907 2.672-13.814 4.01-20.72.062-.34.18-.676.16-1.026-.07-.623-.673-1.135-1.301-1.076-.513.047-.96.443-1.068.945m-7.405 25.29c.875 1.067 2.244 1.658 3.604 1.755 1.332.039 2.689-.09 3.946-.556-.394-1.434-1.425-2.68-2.803-3.26-.648-.258-1.367-.394-2.06-.253-1.25.168-2.223 1.19-2.687 2.314m-8.458 7.89c-3.514 1.732-7.352 2.686-11.204 3.305a6.6 6.6 0 0 0 1.104 2.19c3.304-.547 6.65-1.235 9.64-2.805a.75.75 0 0 1 .82.099c.444.326.367 1.135-.158 1.338-2.81 1.37-5.833 2.325-8.935 2.739.95.804 2.051 1.414 3.19 1.906q.192.093.398.023c2.884-.847 5.719-1.965 8.248-3.612 1.893-1.212 3.593-2.748 4.88-4.6.284-.494 1.103-.46 1.343.057.199.303.097.687-.112.954-2.122 3.04-5.262 5.22-8.59 6.766-1.111.493-2.228.997-3.4 1.331.73.264 1.504.367 2.262.517.881.18 1.775.31 2.674.354l.347.059c2.09-1.033 4.005-2.439 5.54-4.202.31-.44 1.064-.428 1.34.045.23.33.117.773-.155 1.04a18.5 18.5 0 0 1-3.535 3.117 13.16 13.16 0 0 0 6.534-2.149c-.741-1.047-1.088-2.391-.818-3.658.28-1.36 1.168-2.589 2.4-3.24.141-.094.368-.144.364-.357.256-1.38 1.133-2.629 2.37-3.3a31 31 0 0 0-.273-3c-.904.278-1.836.49-2.785.505-2.078.267-4.297-.346-5.825-1.81-1.84 2.844-4.656 4.915-7.664 6.388m23.71-1.92a4.9 4.9 0 0 0-1.968 1.374c-.271.333-.814.314-1.12.043-1.009-.754-2.48-.767-3.52-.065-.863.567-1.4 1.588-1.403 2.618.004.428-.413.656-.767.768-1.233.42-2.089 1.727-1.999 3.024.013 1.643 1.561 3.052 3.192 2.967.622.015 1.174-.294 1.725-.537.413-.159.816.136 1.029.473.953 1.22 2.5 1.97 4.052 1.919 1.277.035 2.537-.494 3.47-1.356.266-.239.471-.57.814-.71.536-.162.926.366 1.423.46 1.661.636 3.713-.23 4.42-1.858a3.45 3.45 0 0 0 .045-2.963c-.438-1.062-1.437-1.856-2.558-2.082-.344-.062-.793-.177-.861-.583-.252-1.211-.948-2.342-2-3.012-1.156-.773-2.665-.927-3.973-.48"/><path fill="#000" d="M6.393 9.886c.351-.306.821-.11 1.223-.047q3.632.621 7.256 1.28c1.926.33 3.854.66 5.776 1.022.547.122.778.885.382 1.287-.387.49-1.049.194-1.553.12q-4.48-.797-8.962-1.58c-1.29-.277-2.608-.412-3.894-.71-.59-.154-.72-1.03-.228-1.372M10.211 15.146c.118-.39.57-.66.97-.552q.92.184 1.85.327c2.233.39 4.464.798 6.7 1.178.42.059.765.457.677.891.025.433-.404.68-.78.723-1.581-.27-3.156-.58-4.74-.834-1.377-.296-2.782-.44-4.155-.76-.41-.111-.642-.57-.522-.973M38.882 20.142c.694-.267 1.48-.093 2.09.295.803.557 1.248 1.63.966 2.581-.227.888-.997 1.596-1.897 1.764-.57.063-1.18 0-1.67-.32-.761-.461-1.245-1.37-1.153-2.261.09-.931.761-1.789 1.664-2.06m-.067 2.308c-.01.563.676.939 1.16.673.363-.146.48-.565.444-.922-.12-.192-.242-.398-.454-.498-.497-.303-1.209.18-1.15.747M7.997 24.982c.297-.25.773-.21 1.034.076.426.419.864.83 1.26 1.278.382.439.045 1.184-.515 1.247-.393.079-.706-.208-.948-.472-.317-.34-.67-.643-.973-.994-.282-.336-.203-.876.142-1.135M12.91 24.889c.475-.27 1.13.131 1.125.673.057.51-.431.788-.724 1.119-.302.273-.55.613-.894.837-.492.288-1.186-.118-1.182-.684-.012-.412.354-.662.606-.931.362-.332.67-.727 1.069-1.014M44.09 24.904c1.485-.443 3.202.622 3.449 2.156.326 1.414-.65 2.96-2.07 3.258-1.608.47-3.437-.875-3.441-2.554-.13-1.294.827-2.532 2.062-2.86m.378 1.55c-.16.05-.302.143-.43.248-.63.473-.534 1.613.193 1.949.68.442 1.704-.081 1.751-.89.145-.816-.727-1.567-1.514-1.306M9.502 28.428c.593-.138 1.166.563.877 1.113-.284.43-.706.746-1.053 1.124-.24.216-.452.563-.823.53-.613.108-1.074-.688-.728-1.187.255-.345.601-.612.891-.928.262-.233.47-.575.836-.652M11.939 28.425a.8.8 0 0 1 .721.254c.386.392.782.773 1.164 1.169.425.42.156 1.302-.469 1.331-.525.103-.829-.405-1.162-.708-.322-.378-.826-.658-.94-1.174-.036-.409.284-.804.686-.872M37.756 35.34c1.583-.57 3.475.574 3.72 2.23.12.512-.385.989-.881.924a.84.84 0 0 1-.704-.668c-.122-.749-1.021-1.249-1.72-.945-.344.117-.55.443-.86.612-.526.238-1.181-.273-1.082-.837.001-.268.205-.463.38-.639.316-.32.719-.544 1.147-.678"/></svg>