<svg xmlns="http://www.w3.org/2000/svg" width="34" height="33" fill="none"><path fill="#fff" d="m20.23 29.611 12.98-.176v-1.233l-3.414-5.45-.803-2.234.653-1.758.15-1.883-.803-1.934-.653-.627-2.235 1.682-1.984-3.114.327-1.933-.477-1.632-.251-2.36.878-1.206.88-.377.401-1.004v-.776l-1.28-.53-.88-.6-.979-.128-.803.728.527 1.306-.377 1.255-.652 1.532h-.704L17.97 1.836l-1.155-.625-1.23 1.255-.804 1.13-1.205-1.582-.653-.577-1.356 1.984-.678 1.43.98 1.608 1.255.5-.552 1.03-3.215 4.897-.3-.978H7.397l-.954.427-1.08 2.711-.653 1.004v2.284l.276 2.686L1.9 25.968.467 28.58l.804 1.031h10.32l3.993.651z"/><path fill="#48FDBC" d="M22.855 3.415c.16-.037.33-.028.49 0 .16.118.302.274.355.468a.6.6 0 0 0 .23.32c.14.025.288.03.428-.001.116-.052.228-.128.362-.114.255-.026.489.137.608.353.04.192.048.401-.019.589-.163.241-.476.244-.724.34-.134.072-.298.082-.416.186-.232.167-.206.443-.353.685-.055.24-.21.443-.26.684-.042.164-.143.304-.21.456-.033.042-.067.135-.135.094-.24-.062-.88-.332-1.14-.325-.005-.368.276-.642.35-.988.04-.126.12-.236.16-.362.065-.274.328-.517.293-.795-.025-.32-.241-.576-.409-.835-.047-.138-.012-.287.013-.427.154-.079.2-.283.377-.328M6.918 13.69c.178-.083.317-.25.522-.267.247-.04.505-.038.747.03.139.059.26.153.393.222.072.031.099.109.142.168.073.116.215.18.262.313.07.223.145.444.2.67.02.135-.003.284.058.409.108.109.233.242.402.222.336-.045.686-.066 1.012.042.301.203.549.494.671.84.06.26.06.53.03.794-.006.15-.018.339.128.428.172.112.354.213.545.291.227.159.373.398.54.616.088.128.066.296.13.435.069.138.056.297.062.446-.006.174.013.361-.07.521-.061.154-.036.339-.146.472q-.12.149-.22.311c-.156.215-.382.359-.588.52-.121.065-.27.066-.38.153a1.7 1.7 0 0 1-.28.158c-.306.206-.332.285-.53.595-.041.121-.338-.24-.41-.135-.223-.187-.103-.515-.233-.75-.086-.268-.088-.578.039-.834.031-.09.049-.185.091-.271.154-.212.311-.426.513-.595q.16-.127.316-.258c.192-.106.39-.204.583-.308.204-.156.145-.448.089-.663-.151-.07-.285-.21-.467-.163a3 3 0 0 0-.625.308c-.187.084-.134.41-.306.518-.197.124-.472.205-.688.302-.048-.345-.19-.67-.231-1.016-.038-.22-.033-.47.101-.66.126-.209.145-.518.34-.66.126-.128.384-.146.478-.311.046-.114.271-.027.25-.158a4 4 0 0 0-.133-.302c-.091-.047-.19-.076-.283-.12-.11-.056-.209.046-.311.072-.223.067-.387.241-.587.35-.066.027-.08.102-.112.158l-.141.015c-.002-.186-.11-.347-.117-.532a1.9 1.9 0 0 0-.159-.671c-.097-.149-.262-.27-.446-.25-.156-.01.13.295-.003.351-.057.233.05.347.091.58.072.26.179.43.194.703-.082-.018-.607.04-.682 0-.132-.07-.287-.041-.426-.083a1 1 0 0 0-.446-.032c-.198.089-.076-.069-.042.174-.026.175.126.291.238.398.148.128.354.05.53.084.182.033.39.004.543.128.12.083.254.151.357.258.144.21.473 1.31.51 1.562.087.242-.474-.02-.444.234-.214-.075-.416-.177-.62-.272-.248-.065-.51-.04-.754-.117-.262-.037-.23.007-.461.155.276.045.267.226-.132.226-.06.21-.052.046.1.182.225.07.466.028.698.055.174.005.333.08.503.109.166.073.389.203.528.33.162.133.366.22.487.398.136.198.444.51.452.766.011.227.167.802.225 1.018.299-.122.402.201.394.286-.14-.187-1.098-.613-1.284-.744-.272-.113-.534-.26-.827-.317-.445-.075-.908.041-1.345-.084-.192-.125-.435-.17-.586-.35-.069-.08-.163-.13-.24-.199-.268-.29-.432-.659-.55-1.032-.026-.213-.363-.482-.137-.708.056-.251.01-.573.136-.794.15-.173.66-.215.585-.465q-.122-.215-.245-.43c-.098-.154-.08-.346-.141-.513-.046-.114-.29-.53-.244-.643.065-.164.038-.363.154-.507.057-.076.111-.155.17-.23q.156-.111.306-.227c.212-.07.188-.174.349-.347.153-.107.116-.32.1-.48-.067-.24.305-.105.323-.363-.027-.309.094.065.221-.21.08-.1.162-.199.234-.305M26.861 16.25c.178.007.177.191.237.316.133.22.258.451.292.709q-.765.036-1.529.039c.288-.395.713-.669 1-1.064M25.688 18.337c.421-.048.854.013 1.267-.091.148-.01.297-.01.446-.014-.01.165-.009.331-.056.49-.078.211-.204.4-.292.606-.038.09-.102.166-.159.247-.042-.131-.15-.214-.257-.289a1 1 0 0 0-.33-.33 1.1 1.1 0 0 0-.232-.234c-.098-.159-.272-.24-.387-.385M24.95 19.552c.06-.162.022-.344.108-.497.051.15.175.246.296.338.264.277.528.552.81.81.034.129-.121.19-.214.238-.19.039-.344.162-.521.231-.17.032-.343.05-.515.07.017-.396.012-.794.036-1.19M23.72 19.423a1.3 1.3 0 0 1 .27-.23c-.004.502-.04 1.005-.031 1.508-.16-.004-.33-.013-.463-.11-.177-.122-.423-.123-.56-.299-.035-.114.088-.166.152-.235.21-.211.424-.42.631-.634"/><path fill="#fff" d="M16.216 23.12c.215-.066.445-.031.667-.04.207-.018.393.087.596.109.183.01.31.156.47.223.19.08.333.232.486.364.256.237.465.52.645.818.06.162.161.304.236.458.095.32.214.633.329.945.044.232.046.47.091.702.07.193.037.401.047.602-.01.21.027.43-.047.631-.057.267-.023.556-.142.808-.086.254-.218.49-.289.748-.149.16-.2.382-.353.538-.211.315-.506.56-.777.823-.167.075-.288.225-.462.286-.215.073-.387.236-.604.305-.179.037-.365.043-.535.114-.333.06-.675.044-1.012.03-.213-.003-.405-.11-.617-.123-.2-.009-.357-.143-.518-.245-.088-.065-.202-.076-.29-.137-.177-.152-.393-.26-.524-.46-.22-.14-.35-.376-.498-.584-.111-.245-.325-.442-.37-.714-.056-.205-.17-.394-.192-.608a7 7 0 0 1-.004-1.707c.021-.24.146-.451.205-.681.052-.297.29-.512.374-.797.461-.72 1.025-1.414 1.774-1.851.139-.098.265-.227.438-.262.142-.03.256-.126.384-.188.16-.051.332-.053.492-.107m-.633 2.56c-.27-.003-.487.168-.731.255-.087.029-.146.102-.214.158-.185.157-.41.282-.533.5-.057.1-.174.156-.202.275-.034.112-.098.211-.154.314-.112.18-.084.406-.184.592-.058.293-.042.597-.026.894 0 .161.098.297.116.455.027.227.18.407.267.613q.129.159.255.32c.16.2.387.327.59.478.198.062.382.16.579.226.29.056.586.047.88.033.26-.004.486-.143.727-.222.17-.047.281-.198.441-.268.2-.175.386-.367.547-.58.105-.19.226-.372.327-.566.066-.173.047-.367.113-.541.056-.133.042-.28.048-.42-.006-.187.018-.382-.057-.557-.069-.194-.029-.422-.155-.594a6 6 0 0 1-.284-.47c-.08-.093-.17-.177-.235-.282-.15-.097-.283-.216-.42-.328-.182-.083-.355-.19-.545-.252a4 4 0 0 0-1.15-.034"/><path fill="#48FDBC" d="M15.522 27.357a.8.8 0 0 1 .484.048c.175.021.304.148.425.265.149.121.195.317.29.476.052.24.048.493.007.735-.044.123-.117.235-.163.358-.022.075-.093.117-.14.176-.05.059-.087.135-.162.169-.118.054-.216.15-.343.186-.243.05-.499.049-.739-.018-.2-.103-.37-.256-.503-.437a2.5 2.5 0 0 1-.175-.467 2 2 0 0 1-.002-.374c.04-.187.112-.366.187-.543.15-.174.311-.343.502-.473.11-.037.226-.055.332-.101"/><path fill="#000" d="M16.528.659c.276-.083.578-.063.86-.022.226.13.476.263.59.51.082.191.254.327.324.524.064.2.234.339.296.54.181.279.361.559.51.856.045.16.198.257.243.417.06.215.248.358.335.558.063.138.16.257.219.397.08.203.263.346.331.556.045.16.198.258.243.417.065.225.265.375.35.59.16.251.26.536.464.758.108-.243.275-.463.327-.728.047-.2.188-.365.229-.568.03-.156.133-.282.187-.429a1.3 1.3 0 0 0 .002-.287c-.127-.32-.426-.565-.45-.923-.024-.177-.132-.348-.063-.528.091-.198.043-.439.174-.62.093-.136.171-.29.306-.392.129-.108.238-.25.403-.306.195-.07.374-.195.586-.213.264-.023.546-.025.785.109.131.08.296.095.413.2.174.146.313.333.49.471.293-.008.593-.038.88.037.143.075.278.168.433.222.206.17.384.376.551.584.055.152.073.315.14.463.062.323.056.67-.072.977-.012.222-.18.369-.321.518-.107.219-.353.278-.543.399-.188.135-.438.06-.642.147-.146.082-.296.184-.369.34-.062.112-.07.244-.115.363-.072.144-.149.286-.222.43-.079.147-.068.325-.159.466-.087.146-.168.303-.179.476.04.194.219.31.291.487.102.206.27.383.315.614.046.19.127.37.188.556.056.256.063.52.088.78.076.253.071.528 0 .78-.027.434-.062.874-.249 1.274-.087.157.045.286.13.405.188.328.347.674.586.969.054.154.125.299.23.426.092.198.206.383.331.561.099.203.212.399.348.58.479-.448.915-.94 1.397-1.386.152-.124.34-.223.542-.202.343-.003.598.267.783.527.193.19.3.442.468.652.077.32.357.55.396.883.053.206.175.391.197.606.025.181.035.367.108.538.06.414.044.835.04 1.252-.014.197.002.403-.084.585-.049.19-.04.39-.096.58-.067.193-.15.38-.197.58-.084.281-.318.502-.36.798.015.248.199.428.327.625.155.363.412.672.561 1.038.105.164.253.3.309.493.197.346.41.685.608 1.032.125.154.162.358.286.512.068.09.15.172.191.28.066.2.216.356.3.549.138.184.193.416.348.59.143.168.18.397.33.562.216.408.49.784.682 1.205.098.155.238.287.294.466.06.2.21.375.198.593.035.276-.142.506-.233.753-.244.259-.57.494-.942.481-4.21.004-8.42-.006-12.63.005-.135.209-.242.438-.409.624-.156.315-.475.5-.674.785q-.329.26-.673.493c-.275.093-.477.338-.772.377-.217.04-.396.197-.62.212-.218.036-.443.032-.655.103a6 6 0 0 1-.752-.002c-.316-.107-.676-.04-.975-.204-.109-.046-.215-.103-.332-.122-.264-.044-.442-.265-.68-.369-.558-.335-.997-.831-1.362-1.364-.072-.191-.252-.327-.278-.537H1.413c-.193-.004-.403.021-.58-.077-.127-.07-.252-.143-.391-.186-.038-.113-.127-.188-.214-.263-.069-.146-.087-.311-.158-.457-.032-.176-.041-.372.041-.537.06-.129.062-.282.158-.393.112-.145.17-.321.286-.463.13-.163.18-.372.313-.533.099-.106.102-.263.195-.372.107-.134.168-.296.267-.435.152-.203.23-.449.392-.646.08-.266.277-.469.437-.689.128-.07.286-.172.432-.086.137.086.321.192.316.378a1.4 1.4 0 0 1-.024.383c-.064.134-.183.237-.234.38-.073.194-.232.34-.316.53-.057.15-.191.259-.236.417-.064.216-.277.344-.335.562-.065.176-.215.307-.274.489-.15.219-.277.452-.413.68-.03.092-.012.19-.012.284.21.032.421.021.632.022h8.087c.612-.004 1.224.008 1.836-.007a2 2 0 0 1-.113-.64c-.005-.624-.062-1.274.175-1.866.057-.19.075-.391.178-.563.11-.177.098-.405.24-.562.093-.112.113-.26.194-.379.064-.12.17-.21.234-.331.178-.298.422-.546.641-.813.162-.137.273-.328.464-.431.155-.16.348-.274.503-.433.079-.092.21-.101.301-.175.186-.158.434-.208.628-.355.364-.092.707-.249 1.07-.338q.541-.053 1.083-.006c.358.06.68.239 1.03.335.28.202.615.338.845.606.097.125.239.205.314.347.19.146.29.367.43.556.072.091.095.21.162.304.108.156.22.317.256.508.047.199.2.36.221.566.032.266.134.515.198.774.018.163.032.328.093.482.046.496.041.996.003 1.492-.055.162-.075.332-.103.5a1.3 1.3 0 0 0-.093.433c2.626-.01 5.251-.001 7.877-.004 1.475-.005 2.95.01 4.425-.008.074-.245-.048-.49-.216-.664-.054-.205-.181-.372-.313-.533-.156-.377-.423-.695-.575-1.071-.087-.147-.226-.26-.282-.425-.057-.152-.164-.276-.236-.42-.091-.211-.25-.384-.348-.593-.054-.125-.16-.222-.204-.353-.066-.229-.286-.37-.356-.597-.136-.251-.283-.497-.425-.745-.084-.24-.302-.406-.373-.652-.085-.166-.218-.304-.28-.483-.16-.232-.292-.48-.437-.72-.067.087-.158.151-.237.226-.192.167-.345.381-.573.503-.08.123-.21.173-.337.231-.207.173-.465.265-.69.408-.138.094-.314.097-.456.184-.147.057-.298.16-.462.108a2.6 2.6 0 0 1-.336-.242.9.9 0 0 1-.021-.48c.1-.108.194-.25.354-.269.3-.055.539-.256.816-.369.135-.083.26-.183.41-.241.195-.199.421-.363.633-.544.158-.189.305-.388.467-.574.104-.23.31-.401.382-.647.097-.208.208-.411.245-.64.133-.306.186-.635.252-.959.016-.313.013-.629.006-.943.006-.203-.081-.39-.098-.592-.08-.263-.174-.522-.245-.789-.142-.228-.183-.509-.378-.703-.14-.134-.158-.392-.347-.462-.196.195-.374.41-.595.577.084.168.247.283.315.461.069.195.223.354.25.564.044.276.21.52.224.804q.037.567 0 1.133c-.017.277-.188.512-.223.784-.05.219-.209.393-.265.612-.184.2-.302.45-.493.643-.162.229-.421.36-.623.548-.185.193-.457.244-.665.404-.327.074-.63.234-.966.271-.212.093-.447.07-.674.076-.165-.006-.338.011-.494-.055-.144-.05-.304-.033-.442-.099-.278-.118-.594-.141-.835-.337a1.4 1.4 0 0 1-.546-.358c-.185.22-.405.407-.604.614.313.328.747.492 1.137.71.181.117.409.101.601.19.085.034.179.04.264.073.213.097.455.054.679.104.103.072.166.193.271.266.011.121.031.249-.008.368-.138.177-.33.392-.58.333-.186-.077-.39-.063-.576-.135-.236-.057-.494-.037-.706-.17-.19-.11-.418-.12-.601-.24-.439-.256-.9-.487-1.268-.844-.127-.15-.287-.304-.3-.513-.002-.165-.021-.353.09-.49.163-.266.422-.45.61-.698.093-.085.225-.115.302-.224.087-.064.1-.176.157-.26.213-.182.382-.409.616-.566 1.079-1.074 2.15-2.156 3.227-3.23.054-.097.005-.206-.025-.3-.05-.196-.222-.322-.308-.498-.074-.194-.217-.351-.294-.545a1.9 1.9 0 0 1-.26-.492c-.21-.2-.296-.479-.435-.724-.13.22-.3.413-.45.62q-.14.123-.227.289c-.396.33-.755.735-1.247.925-.122.063-.224.164-.363.187-.346.113-.691.233-1.047.302-.334.008-.683.05-1.003-.065-.287-.043-.547-.18-.821-.267-.124-.087-.243-.18-.388-.23-.238-.16-.434-.374-.634-.578-.06-.198-.074-.43.044-.61a.58.58 0 0 1 .62-.105c.186.141.362.3.514.477.17.073.332.164.497.249.177.063.372.052.549.12.338.084.665-.052.998-.094.182-.039.335-.153.51-.213.244-.072.406-.286.629-.399.115-.153.3-.232.404-.397.213-.214.394-.46.54-.727.079-.14.21-.25.24-.415.042-.187.165-.34.216-.523.055-.293.163-.572.211-.867.06-.584.06-1.194-.164-1.746-.036-.244-.189-.441-.283-.662-.258-.374-.59-.704-.996-.915a5 5 0 0 0-.839-.227c-.402-.032-.776.138-1.16.225-.192.106-.37.236-.572.322-.193.171-.427.293-.593.494-.302.288-.505.656-.746.991-.073.173-.144.346-.248.504-.058.235-.108.47-.2.695-.078.15-.044.326-.108.48-.12.43.032.883-.061 1.315-.01.136-.162.161-.253.231-.185.086-.37-.02-.537-.097-.034-.132-.132-.243-.127-.384a8 8 0 0 1 0-1.04c-.003-.177.109-.334.09-.513-.016-.17.015-.338.058-.502l.085-.038-.006-.193c.15-.011.078-.18.12-.278.087-.254.26-.469.363-.717a5.3 5.3 0 0 1 1.618-1.768c.283-.131.506-.393.841-.392.044-.257-.176-.436-.294-.636-.084-.206-.222-.382-.31-.586-.104-.162-.249-.305-.302-.496-.028-.13-.16-.199-.202-.322-.082-.204-.223-.378-.31-.58a3.5 3.5 0 0 1-.333-.56 1.2 1.2 0 0 1-.208-.353c-.08-.196-.253-.333-.322-.532-.144-.246-.263-.504-.439-.73-.1-.117-.107-.288-.221-.396-.084-.09-.122-.208-.16-.323-.093-.012-.196-.037-.282.017-.185.209-.27.48-.432.704-.072.193-.208.349-.325.515-.061.232-.244.4-.327.622-.096.167-.241.329-.233.533.038.194.066.392.134.58.099.434-.022.872-.13 1.29-.11.188-.235.367-.327.564a2.9 2.9 0 0 1-.74.674c-.35.176-.708.359-1.106.402-.02.218-.216.352-.285.551-.056.166-.181.293-.271.44q-.256.505-.568.978c-.062.168-.182.302-.27.456.04.224-.179.347-.244.539-.025.079-.107.123-.122.207-.099.243-.335.4-.43.649-.057.178-.194.31-.292.464a8 8 0 0 1-.593 1.012c-.06.141.019.297.021.444.317.039.666-.005.946.175.104.061.22.099.332.142.331.21.578.521.8.843.168.255.227.562.32.85.063.226-.008.472.071.69.347.097.581.392.818.643.098.167.241.31.3.498.051.168.179.306.206.482.088.575.087 1.164.004 1.74-.017.148-.143.263-.107.421-.148.047-.133.247-.141.376-.1.012-.09.107-.11.182-.05.049-.088.11-.146.15-.191.095-.307.283-.47.414-.209.162-.406.352-.667.424-.214.132-.479.185-.65.379-.105.114-.222.217-.32.339-.113.114-.101.29-.187.422a5 5 0 0 0-.17.643c-.098.215-.3.357-.482.498-.085.059-.164.139-.271.15a2.1 2.1 0 0 1-.772.018c-.197-.005-.332-.167-.477-.28-.23-.147-.337-.418-.543-.59-.191-.124-.374-.274-.613-.285-.42-.183-.895-.006-1.329-.129-.206-.09-.452-.053-.644-.182a8 8 0 0 1-.904-.567c-.042.236-.264.37-.315.6-.06.15-.18.262-.265.395-.097.224-.245.422-.337.649a.7.7 0 0 0-.203.36c-.121.127-.28.268-.468.25-.168-.006-.35-.097-.415-.258a.87.87 0 0 1 .15-.771c.134-.171.219-.372.343-.549.088-.113.09-.272.195-.373q.187-.208.272-.475c.16-.172.22-.403.356-.592.1-.12-.028-.252-.08-.362-.098-.14-.086-.317-.137-.473-.11-.222-.084-.478-.095-.718.01-.24-.018-.498.097-.718.049-.148.043-.314.128-.45q.127-.224.255-.447c.031-.074-.037-.128-.067-.187-.176-.478-.308-.992-.213-1.503.066-.24.127-.484.227-.713.2-.253.336-.567.625-.735.164-.09.28-.248.459-.314-.07-.498-.078-1.013.033-1.505.209-.426.418-.875.797-1.178.168-.075.286-.234.468-.278.226-.082.446-.2.69-.21.262-.013.529-.022.787.028.189.051.366.136.55.201.155.052.27.176.415.25.084.036.117.13.178.192.067.036.146.03.22.038.026-.157.128-.277.217-.401.071-.147.127-.303.234-.43.212-.408.492-.78.678-1.203.094-.138.22-.258.275-.42.038-.112.106-.21.175-.304.214-.408.49-.781.68-1.202.121-.166.252-.343.282-.551-.184-.043-.344-.146-.515-.22a1.5 1.5 0 0 0-.338-.223c-.115-.179-.287-.309-.405-.486-.225-.196-.249-.51-.393-.758a2.9 2.9 0 0 1-.005-1.346c.085-.2.17-.4.229-.61.272-.412.441-.884.755-1.269.18-.244.302-.535.52-.75.139-.296.39-.529.662-.703.25-.07.538-.07.762.078.312.21.484.557.697.856a.66.66 0 0 1 .218.306c.157.221.292.46.463.673.077-.197.244-.342.315-.541.088-.215.27-.372.351-.589a9 9 0 0 1 .514-.848c.13-.091.264-.175.39-.271m-3.994 2.216c-.094.196-.28.334-.348.545-.047.145-.178.243-.223.388-.05.17-.189.3-.225.474-.046.218-.198.407-.201.635-.028.31.144.584.25.865.112.107.182.253.313.341.14.12.283.256.474.283.14.014.257.112.4.109.174.004.361.026.524-.053.117-.052.245-.065.369-.09.19-.17.402-.319.562-.52.08-.141.158-.285.222-.435.066-.279.081-.58-.001-.856a5 5 0 0 1-.243-.6c-.122-.17-.256-.337-.313-.544-.242-.308-.393-.682-.663-.97-.1-.136-.171-.295-.31-.4-.183.284-.425.529-.587.828M22.961 2.8c-.195.05-.245.274-.415.361-.028.154-.067.319-.014.471.184.285.423.567.45.92.039.306.027.62-.044.922-.045.138-.133.26-.177.398-.081.382-.39.684-.386 1.089.287-.008.501.204.766.271.075.045.113-.057.149-.103.074-.168.185-.322.233-.502.055-.266.224-.49.285-.754.162-.267.345-.53.601-.715.13-.115.31-.125.459-.205.273-.105.617-.108.797-.375.073-.206.065-.436.02-.647-.131-.238-.388-.419-.669-.39-.147-.016-.27.069-.399.125-.155.035-.317.03-.472.001a.67.67 0 0 1-.253-.351c-.058-.214-.215-.386-.39-.515a1.4 1.4 0 0 0-.54-.001M7.03 12.46c-.076.113-.162.217-.248.323-.135.291-.263.602-.235.93-.018.273.13.513.2.767.018.17.057.395-.105.509-.171.183-.429.213-.655.285a10 10 0 0 1-.323.241c-.063.08-.12.163-.181.245-.122.152-.094.363-.163.537a.52.52 0 0 0 0 .38c.065.179.045.382.15.546q.13.226.259.455c.08.265-.132.482-.291.665-.134.234-.277.471-.336.737-.013.227-.02.457.008.683.125.396.299.787.583 1.095.082.072.182.125.254.21.16.191.418.239.622.371.464.133.955.01 1.426.089.31.06.588.217.877.337.197.138.418.245.565.443a.45.45 0 0 0-.04-.261c-.06-.23-.144-.456-.155-.696-.009-.271-.219-.464-.362-.673-.13-.19-.345-.281-.517-.422-.148-.136-.358-.142-.534-.219-.18-.03-.349-.11-.533-.115-.246-.03-.501.016-.741-.059-.16-.143-.295-.361-.231-.584q.06-.127.13-.247c.245-.156.54-.155.817-.116.258.081.537.055.798.124.218.1.432.209.659.288-.032-.269-.054-.543-.147-.8a1.75 1.75 0 0 0-.286-.747c-.109-.112-.25-.185-.378-.273-.163-.13-.383-.1-.576-.136-.186-.035-.405.047-.561-.088-.12-.114-.28-.237-.253-.423-.036-.257.196-.447.407-.541.156-.018.322-.022.472.034.148.044.312.014.452.087.08.042.17.051.257.07-.016-.29-.135-.56-.21-.837-.045-.246-.077-.497-.017-.744.14-.06.229-.23.394-.22.196-.023.37.107.473.264.101.224.157.466.168.711.008.197.123.368.124.565q.075-.01.15-.016c.035-.06.05-.139.118-.168.213-.115.387-.3.623-.37.109-.028.213-.137.33-.078.098.048.203.079.3.128q.078.157.14.32c.023.139-.077.25-.125.371-.1.176-.336.148-.469.284-.208.15-.404.32-.537.543-.142.201-.147.465-.108.7.044.367.194.71.246 1.076.229-.103.325-.36.533-.491.182-.115.322-.29.52-.378.207-.135.431-.243.663-.326.193-.051.335.098.495.172.06.228.122.538-.094.703-.205.11-.414.214-.618.326q-.165.14-.335.274c-.215.18-.381.406-.544.63-.045.092-.064.193-.097.289-.134.271-.132.6-.041.883.138.25.01.597.247.795q.116-.166.185-.357c.21-.329.487-.618.812-.837.103-.048.203-.101.296-.168.116-.092.275-.093.403-.163.219-.17.458-.323.624-.55.069-.116.15-.224.233-.33.116-.14.09-.337.154-.5.089-.17.068-.368.075-.553-.007-.158.007-.326-.065-.472-.069-.147-.046-.325-.14-.462-.175-.231-.331-.484-.572-.652a3.5 3.5 0 0 1-.577-.309c-.155-.095-.143-.296-.135-.454.031-.28.032-.566-.033-.84a1.83 1.83 0 0 0-.71-.892c-.347-.115-.718-.092-1.073-.044-.18.02-.313-.12-.427-.236-.065-.132-.04-.29-.062-.434-.057-.24-.138-.474-.212-.71-.05-.14-.2-.209-.277-.332-.046-.062-.075-.145-.15-.178-.142-.073-.27-.173-.417-.235a1.8 1.8 0 0 0-.793-.032c-.217.018-.364.195-.553.283m19.834 3.785c-.288.396-.712.67-1 1.064q.765-.003 1.528-.04c-.034-.256-.159-.489-.291-.707-.06-.125-.06-.31-.237-.317m-1.175 2.088c.115.144.29.227.388.386q.133.099.232.234c.14.078.24.2.33.33.107.075.215.157.257.288.056-.08.12-.156.159-.247.087-.207.213-.395.292-.605.046-.16.046-.326.056-.49-.15.003-.298.003-.447.013-.413.104-.845.044-1.267.091m-.738 1.216c-.024.396-.018.794-.035 1.19.171-.02.344-.038.514-.07.178-.07.331-.192.522-.23.093-.049.248-.11.214-.239a16 16 0 0 1-.81-.81c-.122-.092-.245-.188-.297-.338-.085.153-.047.335-.108.497m-1.23-.13c-.208.215-.42.424-.632.635-.064.069-.186.12-.152.235.138.176.384.177.56.299.134.097.304.106.464.11-.01-.504.026-1.006.031-1.508a1.3 1.3 0 0 0-.271.23m-7.503 3.698c-.16.054-.332.056-.492.108-.128.062-.242.157-.384.188-.173.034-.3.163-.438.261-.75.438-1.313 1.13-1.774 1.851-.085.285-.322.5-.374.797-.059.23-.184.442-.205.681a7 7 0 0 0 .004 1.708c.023.214.136.402.192.607.045.273.258.47.37.715.147.207.277.444.498.583.131.2.347.308.524.46.088.062.202.072.29.137.161.102.317.237.518.245.212.014.404.12.617.123.337.015.679.03 1.012-.03.17-.07.356-.076.535-.114.216-.068.39-.232.605-.305.173-.06.294-.21.46-.286.272-.263.567-.508.778-.823.154-.156.204-.378.353-.538.072-.259.203-.494.289-.748.119-.252.085-.54.142-.807.074-.203.037-.422.047-.631-.01-.201.023-.41-.047-.603-.045-.231-.047-.47-.091-.701-.115-.313-.234-.625-.33-.945-.074-.155-.174-.297-.235-.459a3.7 3.7 0 0 0-.645-.818c-.153-.132-.296-.284-.485-.364-.161-.067-.288-.212-.471-.223-.203-.022-.389-.127-.596-.108-.222.008-.452-.027-.667.04"/><path fill="#000" d="M15.584 25.679c.383-.04.773-.04 1.15.034.19.062.363.168.544.251.138.113.272.231.422.329.065.104.155.189.235.282q.13.24.283.47c.126.172.086.4.155.593.075.176.05.371.057.557-.006.14.008.287-.047.42-.066.174-.047.368-.114.542-.101.193-.222.375-.327.566-.16.212-.347.405-.547.58-.16.07-.27.22-.441.268-.24.078-.467.218-.727.222-.293.014-.59.023-.88-.034-.197-.066-.38-.164-.579-.225-.203-.151-.429-.278-.59-.479q-.126-.161-.255-.319c-.086-.206-.24-.386-.267-.614-.018-.158-.117-.293-.116-.454-.016-.297-.032-.601.026-.895.1-.185.072-.412.184-.591.056-.103.12-.202.155-.315.027-.118.145-.175.201-.275.124-.217.348-.342.533-.5.069-.055.127-.129.214-.157.244-.087.461-.258.731-.256m.245.946c-.138.06-.289.082-.43.13a3.4 3.4 0 0 0-.653.616c-.098.228-.19.461-.242.705q-.02.243.002.485c.053.209.134.41.228.606.172.235.392.434.652.567.312.088.645.09.96.024.165-.046.291-.171.445-.242.097-.043.146-.142.212-.22.06-.076.152-.13.18-.227.06-.16.155-.305.212-.465a2.5 2.5 0 0 0-.008-.954c-.124-.207-.184-.461-.378-.619-.157-.152-.324-.316-.552-.343a1.02 1.02 0 0 0-.628-.063"/><path stroke="#000" d="M11.715 9.52H18.1M3.35 23.281h11.229M18.762 23.281h11.89M12.598 16.457h12.99"/></svg>