<svg xmlns="http://www.w3.org/2000/svg" width="32" height="33" fill="none"><path fill="#48FDBC" d="M6.782 2.828c.674-.686 1.649-1.191 2.575-1.302.676-.05.693.039 1.364.14.073.833.108 1.83-.03 2.658-.12.697-.376 1.39-.836 1.938-.619.694-1.621 1.417-2.537 1.453.661-.423 2.037-1.276 2.524-1.9.253-.283.09-.482-.313-.495-.324-.067-.402.165-.584.367-.483.503-1.148 1.019-1.774 1.33-.242.103-.682.154-.93 0-.012-.165.123-.607.19-.763.35-.836.936-1.56 1.628-2.14.285-.235.045-.47-.306-.581-.3-.122-.369.163-.582.332-.487.462-1.005.985-1.343 1.565-.002-.845.374-1.987.954-2.602M29.872 6.021c.009-.962-.432-1.971-1.01-2.705-.442-.512-.212-.97-.758-1.372-.64.536-1.37 1.216-1.859 1.899-.407.579-.718 1.25-.779 1.962-.053.928-.05 2.62.571 3.293-.168-.767-.538-2.343-.441-3.128.021-.379.277-.405.57-.129.278.182.168.4.155.673-.014.697.091 1.532.314 2.194.098.244.374.591.658.658.124-.108.342-.516.405-.674.344-.839.442-1.765.362-2.664-.036-.368.3-.365.627-.195.298.126.145.376.176.646.018.671.015 1.407-.156 2.056.599-.595 1.14-1.669 1.165-2.514M21.534 15.074c-.674-.687-1.7-1.09-2.626-1.2-.675-.05-.641-.064-1.312.038-.073.832-.109 1.829.03 2.657.12.697.375 1.391.836 1.938.618.694 2.287 1.417 3.203 1.454-.661-.424-2.704-1.277-3.19-1.9-.253-.284-.09-.483.312-.495.324-.067.402.165.585.366.483.504 1.148 1.02 1.773 1.33.242.103.683.154.93 0 .012-.164-.122-.607-.19-.763-.35-.836-.935-1.56-1.627-2.14-.286-.235-.046-.47.305-.58.3-.123.369.162.582.331.487.462 1.005.985 1.343 1.565.003-.845-.374-1.987-.954-2.601"/><path fill="#000" d="M7.931.954C9.314.546 10.795.5 12.209.774c.277.025.442.292.465.548.122.851.179 1.72.085 2.576-.093 1.198-.473 2.423-1.296 3.325a4.56 4.56 0 0 1-2.662 1.342c-1.021.159-2.157-.031-2.945-.739-.541-.461-.881-1.128-1.01-1.821a4.69 4.69 0 0 1 1.148-3.86c.52-.568 1.213-.945 1.937-1.191m-1.103 1.86a3.55 3.55 0 0 0-.958 2.417A7.5 7.5 0 0 1 7.194 3.59c.224-.178.48-.455.795-.327.369.116.479.655.179.901-.726.608-1.341 1.368-1.708 2.246-.07.163-.057.344-.045.516.26.162.568.035.822-.074a6.4 6.4 0 0 0 1.752-1.307c.192-.212.372-.546.712-.476.423.013.604.584.338.881-.51.654-1.18 1.166-1.874 1.61.96-.038 1.938-.413 2.587-1.142.484-.574.751-1.302.878-2.034.145-.869.108-1.75.031-2.624-.704-.107-1.421-.103-2.13-.05-.973.116-1.995.385-2.703 1.105M26.638.887c.222-.186.543-.404.826-.199a9.9 9.9 0 0 1 2.378 2.296c.7.962 1.196 2.146 1.066 3.355-.15 1.256-.8 2.467-1.823 3.224a3.3 3.3 0 0 1-1.848.648c-1.066.009-2.068-.572-2.716-1.397-.93-1.144-1.356-2.77-.835-4.184.132-.346.215-.784.567-.976.351-.157.718.144.748.498-.141.458-.382.882-.453 1.362-.13 1.041.296 2.098 1.009 2.849a7.1 7.1 0 0 1-.207-2.36c.012-.203.098-.414.283-.52.31-.22.835.044.78.442-.047.88-.002 1.785.313 2.616.08.219.174.46.384.583.206.072.348-.146.43-.301.381-.823.484-1.76.428-2.657-.083-.271.023-.596.295-.714.332-.168.737.11.763.466a7.2 7.2 0 0 1-.196 2.446 3.8 3.8 0 0 0 .989-1.957c.148-.8-.115-1.61-.513-2.298-.53-.89-1.267-1.643-2.082-2.274-.275.1-.478.364-.711.546-.273.222-.49.638-.9.568-.397-.048-.576-.586-.306-.872.405-.437.862-.824 1.33-1.19M16.764 1.695a1.9 1.9 0 0 1 1.69.575c.718.741 1.192 1.731 1.252 2.767a4.46 4.46 0 0 1-.803 2.997c-.335.484-.776.944-1.368 1.087-.711.202-1.5-.117-1.941-.694-.524-.69-.458-1.747.129-2.38.173-.185.328-.418.298-.683-.01-.215-.148-.388-.282-.544a1.93 1.93 0 0 1-.376-1.977c.214-.602.788-1.024 1.401-1.148m-.313 1.365c-.271.321-.169.806.113 1.086.57.56.677 1.506.279 2.193-.153.253-.401.443-.507.725a.77.77 0 0 0 .165.785c.223.278.639.296.948.177.465-.334.769-.848.995-1.364.475-1.28.154-2.833-.869-3.757-.332-.272-.882-.207-1.124.155M1.355 8.43c.455-.795 1.532-1.1 2.355-.723.67.312 1.114 1.042 1.102 1.779-.016.403.372.722.757.723.397.022.805.112 1.123.365.583.401.882 1.143.762 1.838-.165.765-.804 1.417-1.597 1.502a4.44 4.44 0 0 1-3.17-1.05c-.33-.278-.13-.885.298-.92.243-.047.42.147.601.269.572.42 1.282.64 1.99.66.509.025.96-.512.797-1.01-.099-.423-.569-.615-.966-.608-.705-.034-1.334-.538-1.565-1.197-.125-.269-.07-.574-.142-.854-.062-.273-.293-.483-.553-.57-.336-.11-.715.078-.897.368-.156.244-.1.546-.088.82.042.298.137.583.206.875.03.368-.383.67-.725.518-.303-.09-.336-.441-.422-.696-.176-.68-.27-1.469.134-2.09M20.7 8.284c.386-.09.782-.001 1.16.081a3.15 3.15 0 0 1 2.021 1.404c.41.624.592 1.442.336 2.161a1.73 1.73 0 0 1-1.412 1.162c-1.148.178-2.29-.516-2.86-1.492-.334-.561-.476-1.221-.48-1.87.023-.69.56-1.312 1.236-1.446m.273 1.023c-.263.044-.483.31-.451.579.059.565.221 1.153.634 1.566.38.385.929.669 1.481.595.376-.054.644-.408.647-.778-.007-.387-.175-.755-.395-1.067-.432-.602-1.199-.878-1.916-.895"/><path fill="#fff" d="M23.319 32.22H8.534v-4.328l-2.965-.44-2.724-1.804-1.162-1.362-1.081-2.364v-1.8l30.73.24v1.242l-.762 2.16-1.562 1.884-3.125 1.805-2.564.44z"/><path fill="#000" d="M12.574 8.826c.39-.046.813-.091 1.176.09.548.256.952.84.923 1.454a3.7 3.7 0 0 1-.606 1.952 3.13 3.13 0 0 1-2.105 1.327c-.754.107-1.59-.244-1.942-.94-.25-.424-.26-.937-.188-1.41a3.2 3.2 0 0 1 1.527-2.057c.383-.197.787-.357 1.215-.416m-1.213 1.762c-.291.349-.536.782-.498 1.254-.017.378.31.722.682.75.492.057.956-.194 1.318-.503.535-.466.754-1.198.742-1.89-.106-.153-.229-.334-.433-.344-.666-.006-1.362.223-1.81.733M28.747 11.833c1.01-.205 2.058.59 2.168 1.607.093 1.334-.486 2.687-1.475 3.579a4.54 4.54 0 0 1-3.096 1.185c-.963-.013-1.83-.873-1.815-1.843-.044-1.018.9-1.906 1.903-1.89.274.02.525-.152.666-.378.137-.211.076-.472.119-.706.143-.757.753-1.437 1.53-1.554m-.314 1.36c-.255.321-.11.76-.269 1.117-.189.54-.638.984-1.19 1.147-.336.127-.735.024-1.038.242a.77.77 0 0 0-.31.843c.064.276.3.493.566.574.59.079 1.18-.088 1.714-.33a3.49 3.49 0 0 0 1.916-2.616c.046-.33.097-.715-.132-.993-.297-.393-.974-.395-1.257.016"/><path fill="#000" d="M16.142 13.046c1.266-.182 2.574-.207 3.825.089 1.032.265 2.039.8 2.659 1.692.41.574.695 1.239.818 1.934.176 1.049.022 2.204-.677 3.041h1.906c.284.108.462.431.347.725a.53.53 0 0 1-.531.343c-7.8.004-15.601 0-23.402.002.119 1.315.594 2.606 1.404 3.653a6.98 6.98 0 0 0 3.64 2.481c.637.157 1.29.271 1.947.264h15.847c1.459 0 2.922-.442 4.103-1.305 1.648-1.168 2.722-3.082 2.885-5.093-1.415-.003-2.83.003-4.243-.002a.555.555 0 0 1-.54-.464c-.053-.27.152-.48.367-.6 1.707-.008 3.414-.004 5.12-.002.187.107.377.274.375.509.013 2.308-1.033 4.597-2.798 6.086a7.94 7.94 0 0 1-5.19 1.925c-.005 1.243.004 2.486-.005 3.729.001.328-.317.588-.639.547-4.934-.003-9.868.004-14.802-.003-.297.013-.559-.254-.558-.548-.007-.675 0-1.351-.003-2.027-.027-.289.18-.6.48-.628.31-.046.603.233.588.541.005.532-.001 1.064.002 1.595l13.866.001.001-3.205c-4.954-.003-9.908 0-14.863-.002-1.206.002-2.418-.244-3.503-.778A8.03 8.03 0 0 1 .651 23.47a8.05 8.05 0 0 1-.643-3.156c-.004-.236.187-.4.373-.509.783-.005 1.565-.002 2.348-.002a3.25 3.25 0 0 1-.167-2.723c.313-.63.695-1.352 1.41-1.586.512-.189 1.109-.049 1.522.296a3.7 3.7 0 0 1 1.092 2.176c.076.635-.106 1.266-.373 1.837h2.474c-.144-.597-.127-1.22-.071-1.826a4.53 4.53 0 0 1 1.329-2.503c.449-.397 1.098-.605 1.686-.442.568.143 1.077.551 1.287 1.105.224.507.169 1.104-.087 1.588-.143.352-.554.56-.558.972-.048.467.44.695.57 1.098 1.78.017 3.56.003 5.34.008.622-.01 1.244.018 1.866-.017-.702-.448-1.388-.97-1.866-1.662-.209-.362.16-.828.556-.76.261.038.4.283.564.46.448.475.968.883 1.535 1.207.284.132.584.308.91.266.246-.116.114-.462.067-.663-.379-.85-.984-1.595-1.696-2.19-.19-.141-.16-.41-.114-.613a.56.56 0 0 1 .534-.289c.22.033.393.187.553.33.53.492.99 1.06 1.35 1.686-.02-1.1-.517-2.24-1.463-2.85-.826-.54-1.83-.69-2.797-.73a10 10 0 0 0-1.549.089c-.055.628-.056 1.26-.039 1.89.014.655.189 1.297.426 1.905.09.227.289.424.257.685.015.265-.232.43-.448.515-.53.005-.68-.567-.86-.955-.536-1.453-.592-3.053-.315-4.567a.56.56 0 0 1 .488-.493m-5.439 3.186c-.975.877-1.306 2.34-.898 3.574.581-.01 1.163 0 1.744-.006a1.85 1.85 0 0 1-.151-1.899c.127-.242.335-.426.484-.653.182-.291.15-.708-.107-.946-.258-.307-.776-.333-1.072-.07m-6.486.31c-.65.56-1.01 1.527-.714 2.362.12.362.338.728.698.889.24.006.527.07.721-.113.518-.429.696-1.167.58-1.811a2.76 2.76 0 0 0-.686-1.244c-.147-.165-.41-.183-.599-.083"/><path fill="#000" d="M3.001 21.951c.237-.03.476-.011.714-.015q12.406.001 24.814 0c.23.01.5-.044.692.121.255.185.253.63-.003.815-.119.112-.294.113-.446.119-8.542-.002-17.084.003-25.625-.003-.274.018-.57-.2-.551-.49-.044-.257.158-.501.405-.547"/></svg>