<svg xmlns="http://www.w3.org/2000/svg" width="40" height="49" fill="none"><path fill="#F7F7F7" d="M30.517 2.505c2.488-.045 4.978-.007 7.466-.02v1.869h-6.228c-.441-.033-.883.212-1.056.594-.672 1.744-1.341 3.49-2.038 5.224-.702-.019-1.404 0-2.106-.01.636-1.677 1.301-3.345 1.943-5.02.29-.613.408-1.296.805-1.863.285-.39.74-.635 1.214-.774M5.663 5.248c1.854-1.285 4.251-1.862 6.538-1.566a9.67 9.67 0 0 1 4.41 1.763c-.475.46-.954.916-1.45 1.354-2.31-1.704-5.827-1.728-8.196-.11-1.513.976-2.56 2.545-2.858 4.239-.229 1.03-.087 2.093.214 3.095.24.691.593 1.356 1.07 1.93-.483.449-.927.944-1.466 1.335-1.807-2.175-2.434-5.181-1.497-7.806.55-1.692 1.725-3.18 3.235-4.234"/><path fill="#F7F7F7" d="M10.684 7.363c1.082-.076 2.154.235 3.068.764-.737.72-1.52 1.399-2.245 2.13-.273-.965-.534-1.933-.823-2.894M6.54 9.958c.442-.913 1.263-1.665 2.226-2.097.239.949.576 1.874.786 2.83-1.019-.192-2-.517-3.013-.733M6.006 11.752c.99.285 2.004.485 2.993.769-.161.268-.43.455-.65.675-.52.475-1.013.976-1.554 1.431-.328-.599-.676-1.209-.743-1.892-.076-.322-.046-.655-.046-.983M12.244 12.192c.173-.21.474-.129.717-.143 6.546.004 13.092 0 19.639.002-.005 1.799.01 3.598-.011 5.398-2.628.682-5.415.877-8.103.4-.815-.161-1.641-.295-2.426-.562-2.992-.961-6.22-1.195-9.35-.81-.71.102-1.416.237-2.11.417-.005-1.052.001-2.104-.002-3.155q.819-.778 1.645-1.547"/><path fill="#48FDBC" d="M11 21.049a17.3 17.3 0 0 1 9.555.12c3.343 1.057 7.024 1.214 10.445.388-.054.949-.158 1.894-.237 2.84-.13 1.315-.39 2.616-.555 3.928-.516 3.509-1.043 7.017-1.55 10.528-.195 1.388-.433 2.773-.617 4.165-.977.004-1.952-.005-2.928.003-.601-.023-1.065.642-.826 1.15.128.353.53.572.92.56.857.005 1.714-.005 2.572.002-.08.563-.183 1.125-.218 1.693-4.343.015-8.686.002-13.028.006-.082-.568-.187-1.133-.268-1.7.884-.005 1.77.007 2.656-.005.434 0 .797-.314.912-.69.075-.471-.291-.985-.82-1.012-.999-.017-1.998.003-2.995-.009-.109-.952-.327-1.89-.41-2.846-.434-2.83-.85-5.662-1.258-8.496-.11-.676-.233-1.351-.296-2.032-.364-2.36-.742-4.723-.944-7.102-.06-.497.014-1.003-.11-1.491m6.079 1.543c-.666.188-.815 1.097-.264 1.48.53.441 1.457.031 1.473-.614.08-.576-.632-1.088-1.21-.866m6.375.658a.86.86 0 0 0-.349.208q-1.794 1.68-3.594 3.357c-.26.232-.559.508-.533.874-.002.28.198.508.398.697q1.852 1.726 3.7 3.457c.34.377 1.047.38 1.383-.004 1.273-1.19 2.55-2.376 3.817-3.572a.785.785 0 0 0 .025-1.185c-1.258-1.2-2.542-2.376-3.808-3.57a1 1 0 0 0-1.039-.262m-8.802 7.661c.124.199.268.4.502.498.473.26 1.136-.037 1.268-.521.197-.537-.335-1.173-.948-1.09-.577.031-.95.607-.822 1.113m1.49 2.775a.85.85 0 0 0-.583.813q-.004 2.54 0 5.081c-.032.47.413.903.92.882q2.71.004 5.42 0c.513.035.994-.417.957-.894q.005-2.534-.001-5.066c.023-.47-.453-.906-.96-.864-1.733-.003-3.469.002-5.203-.003-.184.006-.375-.01-.55.051m9.45 1.648c-.03.532.549.94 1.092.86.255-.086.5-.227.625-.462.302-.453-.041-1.118-.596-1.21-.54-.139-1.15.28-1.122.812m-4.895 7.734c-.685.231-.776 1.236-.113 1.541.547.337 1.366-.1 1.355-.704.057-.586-.661-1.063-1.242-.837"/><path fill="#F7F7F7" d="M22.56 25.347q1.02-.955 2.037-1.912c.916.913 1.913 1.754 2.809 2.683q-1.412 1.315-2.813 2.638c-.925-.885-1.867-1.755-2.8-2.631.204-.302.508-.52.768-.778M17.586 34.524h3.998v3.747q-1.999.003-3.998 0z"/><path fill="#000" d="M27.47 2.492c.686-1.14 2.04-1.876 3.438-1.881 2.586-.005 5.17.002 7.755-.003.664-.116 1.386.346 1.334 1.011.001 1.217.005 2.434-.002 3.651.007.405-.297.786-.696.928-.285.056-.579.032-.868.036-2.036 0-4.072-.004-6.109.003-.48 1.315-1.023 2.61-1.509 3.924.925.006 1.849-.006 2.773.005.474-.017.87.339 1 .745-.004 2.468.014 4.936-.013 7.404-.106.897-.04 1.804-.166 2.7-.077 1.33-.298 2.649-.476 3.968-.745 5.19-1.533 10.373-2.278 15.564-.357 2.294-.664 4.598-1.029 6.891-.02.36-.108.777-.468.977-.345.234-.79.16-1.187.173q-7.4-.002-14.8 0c-.356-.01-.744.047-1.067-.131-.303-.15-.47-.462-.507-.772-.136-.8-.252-1.603-.34-2.41-.164-1.092-.37-2.18-.492-3.28-.59-3.881-1.136-7.773-1.727-11.654-.14-1.302-.418-2.587-.561-3.89-.3-1.992-.621-3.984-.723-5.996-.136-1.614-.16-3.232-.165-4.85-1.292 1.24-2.611 2.455-3.916 3.683-.356.385-1.041.442-1.42.057C.65 16.985-.528 13.344.225 10.03c.67-3.431 3.39-6.432 6.892-7.625 3.757-1.362 8.294-.578 11.253 1.992.299.275.702.55.703.984.038.37-.256.66-.518.899-1.396 1.287-2.756 2.61-4.167 3.88 3.341.005 6.683-.001 10.024.004.82-2.033 1.591-4.083 2.39-6.123.236-.512.35-1.073.67-1.55m3.05.012c-.474.138-.93.383-1.214.774-.397.567-.514 1.25-.805 1.863-.642 1.675-1.307 3.343-1.943 5.019.702.01 1.404-.008 2.106.011.696-1.735 1.366-3.48 2.038-5.224.173-.382.615-.627 1.056-.594h6.228V2.485c-2.488.012-4.978-.026-7.466.019M5.665 5.247C4.155 6.3 2.98 7.788 2.43 9.48c-.936 2.624-.31 5.63 1.498 7.805.539-.39.982-.886 1.466-1.335a6.2 6.2 0 0 1-1.07-1.93c-.301-1.002-.443-2.065-.214-3.094.297-1.695 1.345-3.263 2.857-4.24 2.37-1.617 5.886-1.594 8.197.111.496-.439.975-.895 1.45-1.354a9.7 9.7 0 0 0-4.41-1.764c-2.287-.296-4.685.281-6.538 1.567m5.021 2.115c.29.96.55 1.93.824 2.894.725-.731 1.507-1.41 2.245-2.13-.915-.53-1.987-.84-3.069-.764M6.54 9.958c1.012.216 1.993.541 3.012.732-.21-.955-.547-1.88-.786-2.83-.963.433-1.784 1.185-2.226 2.098m-.532 1.792c0 .328-.03.661.046.983.067.683.415 1.293.744 1.892.54-.454 1.033-.956 1.554-1.431.22-.22.488-.407.65-.675-.99-.283-2.004-.484-2.994-.769m6.237.44q-.826.77-1.646 1.547c.004 1.052-.002 2.103.002 3.156.694-.18 1.4-.316 2.11-.417 3.131-.385 6.359-.152 9.35.81.785.267 1.611.4 2.426.562 2.688.477 5.475.282 8.103-.4.022-1.8.006-3.6.011-5.398-6.547-.003-13.092.002-19.638-.003-.244.015-.545-.067-.718.143m-1.633 6.642c.136.537.056 1.092.12 1.638.222 2.613.636 5.208 1.035 7.801.07.747.203 1.49.324 2.232.447 3.112.902 6.224 1.378 9.331.09 1.05.33 2.08.448 3.126 1.093.013 2.187-.009 3.28.01.58.03.981.594.899 1.112-.127.413-.523.757-.999.758-.97.012-1.94 0-2.91.004.09.624.205 1.244.294 1.868 4.756-.004 9.513.01 14.27-.007.037-.623.15-1.24.237-1.859-.939-.007-1.877.004-2.816-.003-.428.014-.867-.227-1.008-.615-.262-.558.246-1.288.905-1.262 1.068-.01 2.137.001 3.207-.004.2-1.528.462-3.05.675-4.575.556-3.856 1.133-7.71 1.698-11.563.18-1.44.465-2.87.608-4.314.086-1.04.2-2.078.26-3.12-3.747.907-7.779.735-11.44-.426a18.9 18.9 0 0 0-10.465-.132"/><path fill="#000" d="M17.272 20.527c.632-.244 1.413.318 1.324.95-.017.71-1.033 1.16-1.613.674-.604-.42-.44-1.418.289-1.624M24.252 21.25c.396-.14.867-.013 1.137.288 1.387 1.311 2.794 2.603 4.171 3.921a.864.864 0 0 1-.028 1.3c-1.387 1.314-2.785 2.617-4.18 3.924-.368.422-1.143.419-1.514.005-1.351-1.266-2.698-2.535-4.052-3.798-.22-.207-.44-.457-.437-.765-.028-.402.299-.705.584-.96 1.316-1.226 2.625-2.456 3.937-3.687a.94.94 0 0 1 .382-.228m-1.689 4.096c-.26.257-.564.476-.767.778.932.876 1.875 1.746 2.8 2.631.933-.884 1.873-1.76 2.813-2.638-.897-.93-1.894-1.77-2.81-2.683-.676.639-1.358 1.274-2.036 1.912M14.613 29.665c-.14-.555.268-1.188.9-1.223.672-.091 1.254.607 1.039 1.197-.145.532-.871.859-1.39.573-.255-.108-.413-.329-.549-.547M16.246 32.713c.191-.068.401-.05.603-.057 1.899.006 3.8 0 5.699.004.554-.046 1.076.433 1.05.949q.007 2.781.001 5.564c.04.524-.486 1.021-1.048.983q-2.968.004-5.937 0c-.554.022-1.041-.453-1.006-.969q-.005-2.79 0-5.581a.93.93 0 0 1 .638-.893m1.346 1.81v3.748h3.998v-3.748zM26.591 34.523c-.03-.584.638-1.045 1.229-.892.607.1.983.832.652 1.328-.136.259-.405.413-.684.508-.596.088-1.229-.36-1.197-.944M21.231 43.016c.637-.248 1.423.276 1.361.92.012.663-.885 1.143-1.484.773-.726-.335-.626-1.439.123-1.693"/></svg>