<svg xmlns="http://www.w3.org/2000/svg" width="53" height="48" fill="none"><path fill="#fff" d="M24.754 2.246c-.04-.56.698-.891 1.127-.579.271.17.363.507.35.81v6.721q-.74 0-1.48.002c-.003-2.317-.011-4.637.003-6.954M20.085 2.085c.509-.11 1.017.046 1.489.23.538.2 1.088.367 1.637.536a96 96 0 0 1-.001 1.967c-.65.18-1.281.416-1.917.635-.514.187-1.122.23-1.616-.037-.605-.333-1.027-1.019-.964-1.719.059-.752.648-1.417 1.372-1.612M29.827 2.16c.605-.23 1.322-.107 1.8.334.8.637.812 2.01.019 2.658-.5.493-1.287.554-1.923.319-.666-.23-1.325-.477-2.005-.666-.006-.643.004-1.286-.007-1.93.705-.239 1.417-.458 2.116-.714M21.735 11.396c.004-.328.276-.546.536-.694 2.12-.002 4.24.006 6.362-.005.316.132.617.395.611.767.01.975.004 1.951.004 2.926.028.419-.326.859-.762.83-2.027 0-4.055.006-6.081-.003-.424.01-.705-.43-.68-.82.005-1.001-.014-2.001.01-3M23.213 16.735c1.501-.01 3.004-.001 4.505-.003-.007 1.094.016 2.188-.012 3.282a534 534 0 0 0-3.962 0 2 2 0 0 1-.54-.07c.022-1.07.006-2.139.009-3.209M12.665 20.01l1.485.001q.003 3.735.002 7.474c-.287.029-.58.091-.865.017q-.282.036-.562.068c-.087-.378-.061-.767-.061-1.151zM15.664 21.505c6.042-.004 12.084.006 18.124-.005.365 1.8 1.416 3.473 2.942 4.51-7.021.015-14.044.004-21.066.005zM47.893 22.34c.117-.315.14-.685.407-.922v4.598c-1.036-.003-2.073.004-3.109-.005a7.13 7.13 0 0 0 2.702-3.672"/><path fill="#48FDBC" d="M30.61 32.152a9.5 9.5 0 0 1 1.133 1.71c.158.336.382.684.318 1.073-.083.55-.494 1.059-1.04 1.201-.755.252-1.654-.303-1.773-1.087-.051-.249 0-.502.045-.746.355-.766.838-1.459 1.317-2.15"/><path fill="#fff" d="M44.348 14.054c5.355 4.82 2.142 10.174 2.142 10.174s-2.816 1.344-2.677 1.607c.158.336.064 17.816 0 18.206-.083.55-2.479 1.164-3.026 1.306-.754.252-2.21-.522-2.328-1.306-.051-.25-.58-17.962-.536-18.206-5.584-3.732-4.372-9.875 0-11.781.503-.22.535 4.82.535 4.82h5.355s.05-5.023.535-4.82"/><path fill="#48FDBC" d="M16.11 35.012c.52.71 1.033 1.444 1.368 2.264.315.865-.476 1.837-1.376 1.778-.865.033-1.57-.849-1.385-1.689.335-.856.88-1.6 1.392-2.353M22.83 42.822c.587-1.386 1.474-2.612 2.36-3.818.91 1.255 1.842 2.522 2.414 3.976.257.634.075 1.357-.275 1.917-.576.974-1.87 1.45-2.936 1.062-1.245-.375-2.126-1.905-1.563-3.137"/><path fill="#000" d="M23.433 1.358c.45-1.02 1.704-1.556 2.754-1.182.61.163 1.054.644 1.356 1.176.734-.26 1.47-.513 2.22-.723 1.564-.401 3.295.61 3.803 2.123.654 1.734-.508 3.857-2.304 4.285-1.225.357-2.39-.343-3.547-.645q.003 1.402.002 2.804c.576.006 1.186-.048 1.715.227.767.34 1.279 1.142 1.296 1.978.008 1.059.015 2.12-.004 3.179a2.24 2.24 0 0 1-1.46 2.015c-.026 1.14-.02 2.28-.004 3.419q2.19-.005 4.38-.001c.038-1.904.743-3.816 2.12-5.158.859-.912 2-1.469 3.134-1.956.004 1.807.002 3.615.003 5.423q2.06.008 4.12.006c.005-1.81-.003-3.617.005-5.426 1.596.625 3.115 1.598 4.042 3.076.814 1.201 1.154 2.645 1.232 4.077 0 .017 4.285.034 4.286.051v1.313s-4.294.021-4.31.058c-.076.16-.285.608-.38.864a7.13 7.13 0 0 1-2.702 3.67c1.036.01 6.357.003 7.392.006v1.529c-.729-.001-5.742.002-6.471-.005q-.79.007-1.577.004v15.298a3.8 3.8 0 0 1-.437 1.738c-.656 1.17-1.996 1.916-3.337 1.862-1.797-.046-3.372-1.687-3.364-3.481-.002-3.511 0-7.022-.002-10.534h1.503q0 5.201.001 10.404c-.039.958.677 1.892 1.63 2.054 1.18.277 2.489-.694 2.487-1.922.007-5.818.004-11.636 0-17.454.952-.384 1.823-.99 2.454-1.804 1.152-1.44 1.554-3.433 1.084-5.213-.283-1.23-1.064-2.282-2.007-3.094-.027 1.48-.005 2.96-.011 4.44h-7.14c-.004-1.464.007-2.926-.007-4.39-1.929 1.382-2.717 4.097-1.956 6.326.489 1.699 1.819 3.103 3.465 3.732V30.9h-1.503c.004-1.115-.006-2.228.006-3.343-1.756-.03-3.513.001-5.27-.016q-1.097.01-2.194 0-.543.005-1.087.003c-.729-.003-1.46.003-2.189-.003q-1.034.009-2.067.001-1.702.008-3.403 0-.791.007-1.58 0c-1.316.009-2.631.002-3.948.003l.001 1.494h-4.512v-1.494c-1.431.002-9.286-.003-10.717.003-.02-.51-.016-1.02-.015-1.531h10.733v-4.512H.421q-.003-.746-.002-1.494c1.435.002 9.294 0 10.727.002.008-.51.006-1.02.006-1.53h4.51c0 .508-.002 1.02.006 1.53q3.027-.003 6.053 0a159 159 0 0 0-.004-3.408c-.808-.305-1.477-1.091-1.47-1.981-.019-.97.013-1.94-.015-2.91-.027-.598.086-1.219.497-1.678.575-.759 1.592-.91 2.482-.838.003-.935 0-1.87.002-2.804q-.97.329-1.948.63c-1.246.369-2.663-.189-3.398-1.242-.625-.833-.8-1.964-.506-2.956.478-1.564 2.262-2.614 3.857-2.19.746.214 1.483.462 2.215.722m1.32.89c-.015 2.316-.006 4.636-.004 6.953q.74-.003 1.48-.002V2.48c.013-.304-.078-.64-.35-.81-.428-.313-1.168.018-1.126.578m-4.67-.163c-.724.195-1.314.86-1.372 1.612-.063.7.359 1.386.964 1.72.494.266 1.101.223 1.616.036.635-.22 1.266-.455 1.917-.635q.01-.983 0-1.967c-.549-.169-1.098-.335-1.637-.536-.471-.183-.98-.339-1.489-.23m9.745.077c-.699.256-1.411.475-2.116.715.01.643 0 1.286.007 1.929.68.19 1.338.436 2.005.666.635.235 1.422.174 1.923-.318.792-.65.78-2.022-.02-2.659-.477-.441-1.195-.563-1.799-.333m-8.091 9.237c-.025.999-.005 2-.01 3-.026.39.255.83.68.82 2.026.009 4.054.004 6.08.003.437.029.79-.411.762-.83 0-.974.007-1.95-.003-2.925.006-.372-.296-.636-.612-.768-2.121.011-4.241.003-6.361.005-.26.149-.533.366-.536.694m1.474 5.337c-.002 1.07.014 2.14-.01 3.21.178.043.358.076.541.07q1.98-.009 3.962 0c.028-1.095.005-2.19.012-3.283-1.5.002-3.003-.006-4.505.003m-10.547 3.275v6.41c0 .384-.027.773.06 1.15q.28-.03.563-.068c.284.075.577.013.864-.017l-.001-7.473q-.743-.002-1.486-.002m2.998 1.494v4.51c7.022 0 14.044.01 21.066-.004-1.526-1.037-2.577-2.71-2.942-4.51-6.04.01-12.082 0-18.124.004"/><path fill="#000" d="M30.577 29.783c.123.084.25.17.34.293.86 1.072 1.757 2.147 2.319 3.416.224.568.408 1.194.27 1.808-.17 1.037-.972 1.933-1.971 2.244-.914.335-1.97.1-2.728-.488-.851-.684-1.354-1.886-1.002-2.957.517-1.666 1.725-2.968 2.772-4.316m.031 2.368c-.478.692-.962 1.385-1.317 2.15-.044.245-.096.498-.045.747.119.784 1.019 1.339 1.772 1.087.547-.142.958-.65 1.04-1.201.065-.39-.159-.737-.317-1.073a9.5 9.5 0 0 0-1.133-1.71M13.168 37.636c.299-1.983 1.752-3.49 2.94-5.007.893 1.03 1.763 2.1 2.411 3.309.247.452.414.948.499 1.456.085.501-.082.995-.216 1.47-.469 1.024-1.56 1.755-2.7 1.674-.861.051-1.712-.372-2.257-1.028-.425-.532-.628-1.203-.677-1.874m2.943-2.623c-.513.754-1.058 1.498-1.392 2.353-.186.84.52 1.722 1.385 1.689.9.06 1.69-.913 1.376-1.777-.336-.821-.847-1.554-1.369-2.265M21.337 42.66c.714-2.318 2.377-4.166 3.854-6.031 1.281 1.607 2.641 3.195 3.505 5.08.35.835.668 1.768.427 2.677-.299 1.602-1.677 2.917-3.282 3.168a4.3 4.3 0 0 1-1.308.001c-1.224-.198-2.32-1.004-2.904-2.093-.43-.858-.627-1.878-.292-2.802m1.493.165c-.563 1.231.318 2.762 1.563 3.136 1.066.39 2.36-.087 2.936-1.06.35-.561.532-1.285.275-1.918-.572-1.454-1.504-2.722-2.415-3.976-.884 1.206-1.772 2.432-2.36 3.818"/></svg>