<svg xmlns="http://www.w3.org/2000/svg" width="48" height="49" fill="none"><path fill="#F7F7F7" d="M37.75 4.979q.269-.283.547-.558c1.195 1.48 1.944 3.347 1.964 5.26.079 2.362-.91 4.731-2.626 6.353-1.163 1.133-2.67 1.886-4.256 2.212-1.667.285-3.43.157-4.98-.549.15-.193.218-.47.422-.614.154.018.3.072.447.119 2.042.734 4.384.494 6.265-.57 2.845-1.538 4.471-5.006 3.811-8.175-.217-1.276-.804-2.463-1.594-3.478M18.321 4.958a9.6 9.6 0 0 1 2.492 5.184c-1.242.903-2.095 2.35-2.198 3.892a5.33 5.33 0 0 0 1.597 4.352c-2.337.007-4.675 0-7.011.003-.655.006-1.313-.252-1.752-.745-.777-.823-.797-2.233-.053-3.084.363-.43.884-.7 1.436-.798 1.4-.017 2.803-.004 4.205-.008V12.2c-.969-.01-1.939.022-2.907-.014-.637-.085-1.038-.744-.971-1.358a1.31 1.31 0 0 1 .959-.945q2.236.002 4.471 0V8.33l-1.34.001a5.73 5.73 0 0 0 1.072-3.373"/><path fill="#F7F7F7" d="M33.621 9.077c1.026-.979 2.013-1.998 3.017-3 .666.883 1.083 1.93 1.262 3.02-1.427-.01-2.853.024-4.279-.02M33.606 10.668c1.43-.038 2.863-.014 4.295-.013-.186 1.09-.59 2.149-1.276 3.025a174 174 0 0 0-3.02-3.012M24.643 10.695c.986.223 1.925.745 2.505 1.592.677.938.907 2.197.567 3.307-.308 1.2-1.268 2.185-2.427 2.597-.756.25-1.579.275-2.348.07-1.363-.376-2.47-1.559-2.725-2.953-.46-1.953.893-4.089 2.85-4.522q.078.423.185.838c.49-.117.976-.254 1.463-.385zM29.313 13.406q.83-.82 1.65-1.65c.007 1.417.004 2.834.003 4.252-.576-.025-1.116-.235-1.645-.44a6.8 6.8 0 0 0-.009-2.162M32.521 11.755c.992 1.023 2.054 1.982 2.997 3.048-.894.61-1.907 1.114-3 1.201 0-1.416-.007-2.833.003-4.25"/><path fill="#48FDBC" d="M5.771 21.478c.31-.043.624-.043.936-.045h32.589c1.125-.005 2.37.184 3.192.937.817.734 1.066 1.9.65 2.863-.212.453-.398.962-.855 1.267-.618.387-1.543.328-2.068-.169-.598-.474-1.063-1.116-1.822-1.402a2.42 2.42 0 0 0-1.993.117c-.653.304-.985.929-1.506 1.367-.627.5-1.72.441-2.242-.16-.61-.665-1.033-1.53-1.95-1.91-.839-.326-1.887-.291-2.645.194-.684.412-1.33.875-2.02 1.28-.459.286-1.051.337-1.588.237-.71-.17-1.172-.748-1.86-.961-1.376-.585-3.082-.369-4.277.459-.676.442-1.093 1.113-1.649 1.66-.271.276-.79.29-1.099.056-.28-.198-.394-.516-.58-.777-.318-.46-.556-.971-.978-1.365-.834-.803-2.162-1.22-3.355-.917-.488.118-.879.426-1.2.763-.756.782-1.944 1.211-3.091 1.104-.926-.078-1.763-.523-2.423-1.093-.435-.495-.708-1.15-.56-1.785.12-.602.567-1.154 1.193-1.406a5.4 5.4 0 0 1 1.201-.314"/><path fill="#F7F7F7" d="M10.808 24.905c.535-.549 1.405-.276 1.967.084 1.008.784 1.18 2.235 2.202 3.01.676.474 1.593.61 2.359.277 1.15-.435 1.511-1.782 2.506-2.425.78-.536 1.832-.63 2.702-.266.39.166.722.439 1.061.69 1.128.796 2.702.862 3.896.167.811-.506 1.551-1.12 2.35-1.64a1.25 1.25 0 0 1 1.513.174c.653.721 1.043 1.702 1.912 2.21.959.638 2.283.667 3.275.087.681-.353 1.103-1.014 1.595-1.575.13-.165.333-.239.515-.334.236.012.49.034.678.197.775.662 1.375 1.582 2.366 1.95.783.281 1.66.227 2.423-.092q.002 2.46.002 4.92-1.227 0-2.452.002c.574-1.43-.644-3.155-2.176-3.106-1.544-.082-2.798 1.672-2.194 3.106q-1.687-.002-3.373 0c.573-1.434-.648-3.166-2.186-3.106-1.542-.07-2.782 1.673-2.189 3.106a789 789 0 0 0-3.37 0c.181-.543.195-1.152-.051-1.677-.336-.846-1.221-1.449-2.134-1.429-.92-.023-1.809.586-2.147 1.437-.243.523-.23 1.13-.045 1.669q-1.687-.002-3.372 0c.547-1.347-.497-2.993-1.94-3.096-1.181-.155-2.342.753-2.538 1.916-.072.394-.016.8.102 1.18q-1.686-.002-3.372 0c.314-.785.102-1.707-.444-2.334-.335-.375-.792-.61-1.267-.75-.608-.068-1.26.002-1.764.38-.865.566-1.26 1.73-.896 2.704q-1.224-.002-2.45-.001c0-2.074-.004-4.146.002-6.219 1.258.753 2.836 1.007 4.245.56 1.058-.282 2-.932 2.689-1.776"/><path fill="#48FDBC" d="M8.28 30.829c.455-.178 1.013.2 1.014.689.066.607-.737 1.063-1.215.666-.537-.303-.404-1.224.2-1.355M16.026 30.829c.452-.172 1.013.2 1.009.689.048.439-.368.814-.788.82-.406-.026-.813-.385-.762-.817a.72.72 0 0 1 .541-.692M23.589 30.899c.47-.305 1.2.043 1.188.622.064.574-.678 1.037-1.157.7-.513-.243-.526-1.052-.031-1.322M31.328 30.902c.468-.31 1.201.037 1.191.616.073.593-.717 1.056-1.193.679-.483-.261-.47-1.03.002-1.295M39.074 30.9c.438-.277 1.118-.01 1.179.524.105.458-.303.884-.746.915-.423-.004-.84-.378-.797-.82-.002-.256.157-.484.364-.62"/><path fill="#F7F7F7" d="M2.192 33.89c3.547-.044 7.099-.005 10.649-.018 10.925 0 21.852-.004 32.778.002.51-.04.967.5.791.993-.077.417-.53.6-.912.56-14.412-.01-28.824.006-43.236-.01-.877-.005-.932-1.423-.07-1.527M20.953 36.98q3.047-.01 6.095.002a6.6 6.6 0 0 0-.56 4.398c.267 1.283 1.014 2.401 1.909 3.335q-4.396.006-8.788 0c.866-.916 1.598-1.997 1.88-3.242a6.65 6.65 0 0 0-.536-4.493M10.91 46.95c-.087-.25-.082-.689.284-.672 8.498-.013 16.997-.003 25.496-.005.263-.058.419.16.488.382l-.111.287c-.35.142-.73.086-1.096.095q-12.272-.001-24.544 0c-.177.005-.347-.044-.518-.087"/><path fill="#000" d="M21.673.591 26.332.59v1.553q-.896.001-1.79-.002c-.778 2.226-.924 4.672-.325 6.96 1.808.1 3.556 1.102 4.456 2.69.335-.214.577-.537.864-.805q3.908-3.902 7.812-7.806c.277-.272.556-.64.982-.652.355.014.606.296.826.543a9.9 9.9 0 0 1 2.403 4.592c.997 4.042-.913 8.583-4.479 10.721 1.333.016 2.667-.011 4 .015.784.011 1.546.21 2.297.418 1.37.52 2.48 1.69 2.887 3.102.303 1.143.217 2.408-.337 3.464-.099.23-.247.454-.242.712-.006 2.076.001 4.153-.004 6.23.756.03 1.516.382 1.926 1.037.358.485.436 1.109.38 1.696-.212 1.045-1.173 1.931-2.262 1.917q-8.412.003-16.825-.001c-.847 1.123-1.204 2.606-.898 3.983.166.913.644 1.75 1.283 2.417.423.438.831.892 1.238 1.346q3.144-.006 6.286-.001c1.123-.022 2.051 1.092 1.892 2.193a7 7 0 0 0-.115.462c-.302.691-1.003 1.233-1.778 1.214H16.137c-1.767-.01-3.531.02-5.296-.017-.702-.182-1.34-.722-1.487-1.454-.118-.388-.03-.792.053-1.176.315-.688 1.01-1.243 1.79-1.222q3.143-.005 6.286.001c.707-.86 1.62-1.567 2.116-2.585.83-1.634.615-3.709-.494-5.161q-8.415.004-16.828.001c-.72.012-1.402-.388-1.825-.956-.619-.791-.597-2.001.033-2.781.422-.583 1.132-.88 1.836-.913-.008-2.511.014-5.024-.01-7.535-.261-.523-.607-1.02-.676-1.617-.28-1.321.201-2.765 1.23-3.642.833-.748 1.98-.997 3.062-1.117 1.374-.058 2.751-.007 4.127-.03-.555-.818-.874-1.82-.717-2.812.14-1.47 1.267-2.73 2.654-3.177a2.68 2.68 0 0 1-.31-1.989 2.79 2.79 0 0 1 1.891-1.974c.517-.162 1.065-.084 1.597-.1.541-.528 1.07-1.101 1.335-1.824a4.22 4.22 0 0 0-.153-3.256c-.244-.411.034-.985.49-1.085.391-.114.74.157 1.034.374 2.262 1.609 3.906 4.109 4.364 6.855l.439-.113a13.74 13.74 0 0 1 .226-7.139h-1.231zm16.079 4.387c.79 1.015 1.377 2.202 1.594 3.478.66 3.169-.966 6.637-3.811 8.174-1.881 1.065-4.222 1.305-6.264.57-.148-.046-.294-.1-.448-.118-.204.145-.272.42-.422.614 1.55.706 3.313.834 4.98.549 1.586-.326 3.093-1.08 4.256-2.212 1.716-1.622 2.705-3.991 2.627-6.353-.02-1.912-.77-3.78-1.965-5.26q-.277.275-.547.558m-19.43-.02A5.73 5.73 0 0 1 17.25 8.33l1.34-.001q.003.777 0 1.555c-1.49-.002-2.98 0-4.47-.002a1.31 1.31 0 0 0-.96.946c-.067.614.335 1.272.971 1.358.969.035 1.939.004 2.907.014v1.553c-1.402.004-2.804-.009-4.204.008-.552.097-1.074.367-1.436.798-.745.85-.725 2.26.052 3.084.44.493 1.097.751 1.752.745 2.337-.003 4.675.004 7.011-.003a5.33 5.33 0 0 1-1.597-4.352c.104-1.542.956-2.99 2.198-3.892a9.6 9.6 0 0 0-2.491-5.184m15.302 4.118c1.425.043 2.852.009 4.278.018-.178-1.09-.595-2.135-1.262-3.02-1.004 1.003-1.99 2.022-3.017 3.002m-.016 1.59c1.023.988 2.022 2 3.02 3.012.686-.876 1.09-1.934 1.275-3.024-1.431-.002-2.864-.025-4.295.013m-8.965.029.07.543c-.486.132-.973.268-1.462.386q-.107-.416-.186-.839c-1.956.434-3.309 2.57-2.85 4.522.256 1.395 1.363 2.577 2.726 2.953.769.205 1.592.18 2.348-.07 1.16-.411 2.118-1.396 2.427-2.597.34-1.11.11-2.369-.567-3.306-.58-.848-1.52-1.37-2.506-1.592m4.669 2.71c.12.716.12 1.445.008 2.163.53.204 1.07.414 1.645.439.001-1.418.005-2.835-.002-4.252q-.822.83-1.651 1.65m3.213-1.651c-.011 1.416-.004 2.833-.004 4.25 1.093-.088 2.106-.591 3-1.202-.943-1.066-2.005-2.025-2.996-3.048M5.646 19.996c-.43.072-.856.185-1.255.365-.654.293-1.121.934-1.247 1.635-.154.739.132 1.5.586 2.076.69.662 1.564 1.18 2.532 1.27A3.83 3.83 0 0 0 9.49 24.06c.335-.392.744-.75 1.254-.887 1.247-.354 2.633.132 3.505 1.066.441.458.69 1.052 1.021 1.587.195.304.314.674.607.904.323.273.864.256 1.148-.064.58-.638 1.016-1.418 1.723-1.932 1.248-.963 3.03-1.214 4.468-.534.72.248 1.202.92 1.943 1.118.561.116 1.18.057 1.66-.275.72-.472 1.395-1.01 2.11-1.489.792-.565 1.887-.605 2.764-.226.957.442 1.4 1.448 2.036 2.222.546.699 1.688.767 2.343.186.545-.51.891-1.237 1.573-1.59.62-.371 1.421-.43 2.083-.136.793.332 1.279 1.079 1.904 1.63.548.578 1.514.646 2.16.197.478-.355.672-.947.892-1.474.436-1.119.175-2.476-.678-3.33-.859-.875-2.16-1.095-3.335-1.09H6.624c-.326.003-.654.003-.978.053m5.163 4.908c-.689.844-1.63 1.494-2.689 1.775-1.409.447-2.987.194-4.244-.559-.006 2.072-.001 4.145-.003 6.218q1.227 0 2.45.002c-.363-.974.031-2.139.897-2.705.504-.378 1.155-.447 1.763-.38.476.14.933.376 1.267.75.546.627.759 1.55.444 2.335q1.687-.004 3.372 0c-.117-.38-.173-.786-.102-1.18.196-1.163 1.358-2.072 2.539-1.917 1.443.104 2.487 1.75 1.94 3.097q1.685-.004 3.372 0c-.184-.54-.199-1.146.044-1.669.339-.851 1.227-1.46 2.148-1.437.912-.02 1.798.582 2.133 1.429.247.525.233 1.134.051 1.677q1.685-.005 3.371 0c-.593-1.433.647-3.177 2.189-3.106 1.538-.06 2.759 1.672 2.186 3.106q1.687-.004 3.372 0c-.603-1.434.65-3.188 2.195-3.106 1.532-.05 2.75 1.675 2.175 3.106q1.227-.003 2.452-.002l-.001-4.92c-.763.319-1.64.373-2.424.092-.99-.369-1.59-1.288-2.365-1.95-.188-.163-.442-.186-.678-.197-.182.095-.385.169-.515.334-.492.56-.914 1.221-1.595 1.575-.992.58-2.317.55-3.276-.087-.869-.508-1.259-1.489-1.912-2.21a1.25 1.25 0 0 0-1.512-.175c-.8.521-1.54 1.134-2.35 1.64-1.195.696-2.768.63-3.896-.166-.34-.252-.67-.524-1.062-.69-.87-.365-1.922-.27-2.702.266-.994.642-1.355 1.99-2.505 2.425-.766.333-1.683.197-2.36-.277-1.02-.776-1.193-2.227-2.2-3.01-.563-.36-1.433-.633-1.969-.084M8.28 30.828c-.605.132-.737 1.053-.2 1.355.477.397 1.28-.058 1.215-.665-.002-.49-.56-.867-1.015-.69m7.747 0a.72.72 0 0 0-.541.692c-.05.432.356.79.762.817.42-.007.836-.381.788-.82.005-.49-.557-.861-1.009-.69m7.562.07c-.494.27-.481 1.079.032 1.322.479.337 1.22-.126 1.156-.7.013-.579-.717-.926-1.188-.622m7.739.003c-.473.266-.485 1.035-.002 1.295.475.377 1.265-.085 1.193-.678.01-.58-.724-.926-1.191-.617m7.746-.002c-.207.136-.366.364-.364.62-.043.441.373.816.797.82.443-.031.85-.457.746-.915-.061-.533-.741-.801-1.179-.525m-36.88 2.99c-.863.104-.808 1.522.07 1.528 14.411.015 28.823 0 43.235.008.383.041.835-.142.912-.559.177-.493-.281-1.033-.791-.993-10.926-.006-21.852-.001-32.778-.002-3.55.013-7.102-.026-10.649.018m18.761 3.09a6.65 6.65 0 0 1 .537 4.493c-.282 1.246-1.015 2.326-1.88 3.243q4.393.006 8.788 0c-.895-.934-1.642-2.052-1.908-3.336a6.6 6.6 0 0 1 .558-4.398 878 878 0 0 0-6.095-.001m-10.044 9.97c.17.042.34.091.518.087q12.272-.004 24.544 0c.365-.01.747.047 1.096-.096l.111-.287c-.07-.221-.225-.44-.488-.382-8.5.002-16.998-.008-25.496.005-.366-.017-.371.423-.285.673"/></svg>