<svg xmlns="http://www.w3.org/2000/svg" width="51" height="49" fill="none"><path fill="#48FDBC" d="M34.287 4.273c.24-.056.494-.042.735.001.239.176.452.41.532.701a.9.9 0 0 0 .344.479c.211.038.432.045.643-.001.175-.077.342-.192.543-.17.383-.04.733.206.911.53.061.288.073.6-.027.882-.245.362-.714.366-1.086.51-.202.109-.448.123-.624.279-.348.252-.31.665-.53 1.028-.083.36-.314.664-.389 1.026-.064.246-.215.455-.317.684-.048.063-.1.202-.202.14-.361-.091-1.32-.497-1.71-.487-.006-.55.414-.963.524-1.482.06-.19.18-.354.242-.543.096-.41.492-.774.438-1.192-.036-.48-.36-.863-.612-1.252-.071-.207-.018-.431.02-.64.23-.12.3-.426.565-.493M10.378 19.685c.267-.125.475-.375.783-.401.37-.06.758-.057 1.121.046.208.088.389.229.59.332.107.047.147.163.213.252.109.174.32.27.392.47.104.333.218.665.299 1.005.03.202-.004.426.088.613.162.163.35.363.603.333.503-.068 1.029-.1 1.518.063.452.304.823.74 1.006 1.261.092.39.09.794.046 1.19-.01.224-.028.508.191.642.26.168.531.32.817.437.34.238.561.596.81.923.133.193.1.445.197.653.102.206.082.445.092.669-.01.261.02.542-.106.782-.09.23-.053.508-.218.708-.118.149-.233.302-.33.466-.234.322-.572.538-.882.779-.181.099-.406.1-.571.23-.13.094-.273.17-.418.238-.46.309-.498.427-.796.893-.062.18-.507-.362-.615-.204-.335-.28-.154-.772-.35-1.125-.128-.402-.131-.866.059-1.25.047-.136.073-.279.137-.408.23-.317.466-.638.77-.892.158-.128.32-.253.473-.387.289-.159.585-.305.875-.461.305-.234.217-.673.133-.995-.227-.105-.427-.316-.7-.244a4.6 4.6 0 0 0-.938.461c-.28.126-.202.615-.46.778-.294.186-.707.307-1.03.452-.073-.517-.286-1.003-.348-1.523-.056-.331-.049-.705.152-.99.188-.314.217-.778.511-.99.188-.193.576-.22.716-.468.07-.17.406-.04.374-.236a5 5 0 0 0-.198-.453c-.138-.07-.287-.113-.425-.181-.165-.083-.313.07-.467.11-.334.1-.58.36-.88.524-.098.04-.12.153-.168.236l-.212.024c-.002-.28-.164-.521-.175-.8a2.8 2.8 0 0 0-.238-1.006c-.146-.222-.393-.405-.67-.374-.233-.014.194.442-.004.527-.086.349.075.52.137.869.107.391.268.644.29 1.054-.123-.026-.91.06-1.023 0-.197-.104-.43-.06-.64-.123-.211-.08-.446-.073-.667-.049-.298.134-.114-.103-.063.261-.039.263.188.437.357.597.22.192.53.076.794.126.273.05.585.007.815.192.18.125.38.227.535.387.216.315.71 1.964.764 2.343.132.363-.71-.03-.664.351-.32-.112-.624-.265-.931-.408-.371-.097-.765-.06-1.13-.175-.393-.056-.346.011-.692.232.415.068.4.34-.198.34-.09.314-.078.069.149.272.339.106.7.042 1.048.083.261.007.5.12.755.163.25.11.582.304.791.496.244.2.55.329.731.597.203.296.666.765.678 1.149.017.34.25 1.202.337 1.526.449-.183.604.303.59.43-.207-.281-1.645-.92-1.925-1.116-.408-.17-.801-.391-1.24-.477-.667-.112-1.361.063-2.018-.125-.287-.187-.652-.255-.879-.525-.103-.12-.243-.196-.36-.298-.402-.436-.648-.989-.825-1.549-.039-.32-.544-.723-.205-1.062.084-.376.015-.859.205-1.19.225-.26.99-.323.876-.698q-.183-.323-.367-.644c-.147-.232-.12-.52-.212-.77-.068-.171-.434-.794-.365-.965.097-.247.057-.545.23-.76.087-.115.168-.234.257-.346q.232-.166.457-.34c.32-.104.282-.262.524-.52.229-.161.174-.48.149-.72-.1-.36.46-.158.485-.545-.04-.464.141.097.332-.315.121-.15.243-.298.35-.457M40.293 23.523c.266.01.265.288.355.475.199.328.386.676.437 1.062q-1.146.055-2.292.06c.432-.593 1.069-1.003 1.5-1.597M38.531 26.655c.633-.072 1.282.02 1.901-.137.223-.014.447-.014.67-.02-.015.246-.014.497-.085.735-.117.316-.306.598-.437.908-.057.137-.154.25-.238.37-.064-.196-.225-.32-.387-.432-.134-.194-.285-.378-.493-.495a1.7 1.7 0 0 0-.35-.351c-.147-.238-.408-.362-.58-.578M37.425 28.479c.09-.243.034-.517.162-.747.077.226.262.37.444.508.395.416.792.828 1.216 1.216.05.192-.182.284-.321.356-.286.058-.517.243-.783.347-.256.047-.514.075-.772.105.026-.595.018-1.19.054-1.785M35.579 28.286c.115-.137.26-.245.407-.345-.007.754-.061 1.507-.048 2.262-.24-.006-.493-.02-.694-.165-.266-.182-.634-.184-.84-.448-.053-.172.132-.25.227-.353.317-.317.637-.63.948-.951"/><path fill="#fff" d="M24.327 33.832c.323-.1.668-.046 1-.06.311-.027.59.13.894.164.274.016.465.233.707.334.283.12.498.348.728.546.384.355.697.78.967 1.227.091.243.241.456.354.688.143.48.321.948.493 1.417.066.348.069.706.137 1.053.105.289.056.602.07.903-.014.315.04.644-.07.947-.085.4-.035.834-.213 1.21-.129.382-.326.735-.434 1.123-.222.24-.299.573-.529.807-.317.473-.76.84-1.166 1.234-.25.113-.431.339-.692.43-.323.11-.582.354-.907.457-.268.056-.547.065-.802.171-.5.09-1.013.067-1.518.045-.32-.003-.608-.163-.926-.185-.3-.012-.534-.214-.777-.366-.131-.098-.303-.114-.435-.206-.265-.228-.588-.391-.785-.69-.332-.209-.527-.564-.748-.875-.167-.369-.486-.663-.554-1.073-.084-.307-.255-.59-.289-.91-.109-.85-.108-1.712-.005-2.562.031-.36.22-.677.307-1.022.079-.445.434-.767.561-1.195.692-1.08 1.537-2.12 2.661-2.776.208-.148.397-.34.657-.393.213-.047.383-.189.576-.282.24-.077.499-.08.738-.16m-.95 3.839c-.404-.003-.73.254-1.096.384-.13.043-.218.154-.321.237-.278.235-.614.424-.8.749-.085.15-.261.235-.302.413-.051.169-.148.317-.231.472-.169.27-.127.608-.277.887-.087.44-.062.896-.039 1.342-.001.242.147.445.174.682.042.341.271.61.4.92.128.159.259.317.384.479.24.3.58.492.885.718.297.092.572.239.867.338.435.085.88.072 1.32.05.39-.006.73-.215 1.09-.333.257-.07.423-.297.663-.401.3-.264.58-.552.82-.87.158-.287.339-.56.49-.85.1-.26.072-.551.171-.812.083-.2.062-.42.07-.63-.008-.28.028-.572-.085-.835-.102-.29-.043-.633-.232-.891a9 9 0 0 1-.425-.705c-.12-.14-.255-.266-.352-.423-.225-.146-.426-.324-.632-.493-.273-.124-.532-.283-.817-.377-.566-.11-1.151-.11-1.725-.051"/><path fill="#48FDBC" d="M23.284 40.187c.242-.06.497-.021.725.072.264.032.457.221.638.398.224.182.293.475.436.714.078.36.072.738.01 1.102-.066.184-.175.352-.244.537-.033.113-.14.175-.21.264-.075.088-.132.203-.244.253-.177.081-.323.226-.513.279a2.34 2.34 0 0 1-1.11-.027 2.2 2.2 0 0 1-.753-.655 3.8 3.8 0 0 1-.264-.701 3.3 3.3 0 0 1-.002-.56c.06-.282.167-.55.28-.814.224-.263.467-.516.754-.71.164-.057.337-.083.497-.152"/><path fill="#000" d="M24.792.143c.413-.125.867-.094 1.29-.033.339.193.714.394.884.766.123.286.382.49.487.784.096.3.352.509.445.81.27.42.541.839.764 1.285.067.24.298.386.364.625.09.322.372.537.502.838.096.206.24.385.329.595.12.304.395.519.497.834.068.24.298.386.364.625.097.338.399.563.526.886.24.376.389.803.696 1.136.162-.365.412-.694.49-1.091.071-.301.283-.548.343-.852.045-.234.2-.423.281-.644.018-.143.016-.289.003-.431-.19-.48-.64-.847-.676-1.385-.036-.264-.197-.52-.094-.792.137-.297.065-.657.262-.928.139-.206.257-.436.46-.59.192-.162.356-.375.604-.458.292-.106.56-.293.878-.32.395-.034.82-.037 1.177.164.197.12.445.143.62.3.261.219.47.499.736.707.438-.013.888-.057 1.318.055.216.112.419.252.65.333.31.256.576.563.827.876.082.227.11.472.21.694.093.485.084 1.005-.108 1.466-.019.332-.271.553-.482.777-.16.328-.53.417-.815.598-.281.203-.656.09-.962.221-.218.123-.443.275-.553.509-.094.168-.107.366-.172.545-.109.217-.224.43-.334.645-.118.22-.102.487-.238.7-.13.218-.253.454-.268.713.058.292.327.465.436.731.153.31.405.575.471.921.07.286.192.555.282.833.086.385.095.781.134 1.172.113.378.106.79-.002 1.17-.04.65-.091 1.31-.372 1.909-.13.236.067.43.195.608.281.492.52 1.01.878 1.454.08.23.189.448.345.64.139.296.31.573.498.84.147.305.317.599.52.87.72-.671 1.373-1.411 2.096-2.079.228-.185.51-.334.813-.303.515-.004.897.401 1.175.79.29.285.451.663.702.978.116.482.535.827.594 1.325.079.31.262.587.295.909.039.272.053.551.163.807.09.62.066 1.253.058 1.88-.02.293.005.603-.125.877-.073.284-.06.585-.143.868-.101.29-.226.571-.295.87-.127.423-.478.753-.541 1.198.023.372.298.641.49.937.233.545.618 1.008.843 1.558.156.245.38.45.462.738.295.52.615 1.029.912 1.55.188.23.243.535.43.767.102.135.225.258.286.42.099.301.325.534.45.823.206.276.29.625.522.884.214.253.271.597.494.845.324.611.737 1.175 1.025 1.807.146.232.357.43.44.7.089.3.314.561.297.888.052.414-.213.76-.35 1.13-.366.388-.854.741-1.412.721-6.315.006-12.631-.009-18.946.008-.201.313-.363.656-.613.935-.234.474-.713.752-1.012 1.179q-.493.387-1.009.739c-.412.139-.715.506-1.157.565-.326.06-.594.296-.93.319-.327.053-.665.048-.982.154-.376.02-.754.024-1.129-.003-.475-.16-1.015-.059-1.463-.306-.163-.07-.321-.154-.498-.183-.396-.066-.663-.398-1.02-.553-.837-.503-1.495-1.248-2.043-2.046-.108-.288-.378-.491-.417-.806q-7.913-.003-15.824 0c-.29-.007-.605.032-.87-.116-.19-.104-.378-.215-.587-.28-.057-.168-.19-.281-.321-.393-.103-.22-.13-.467-.237-.685-.048-.265-.061-.559.062-.806.088-.194.093-.424.237-.59.168-.217.255-.482.429-.694.194-.245.27-.558.47-.8.147-.16.152-.395.291-.559.16-.2.252-.443.401-.651.229-.304.346-.674.588-.97.12-.398.415-.702.656-1.032.192-.105.428-.26.647-.13.207.129.482.288.474.567.012.192.006.386-.036.575-.095.2-.274.355-.35.569-.11.292-.349.51-.475.795-.086.227-.287.389-.353.626-.096.324-.417.517-.503.843-.098.265-.322.461-.41.733-.226.329-.417.68-.62 1.021-.046.137-.018.284-.02.425.315.049.633.033.95.034h12.13c.918-.006 1.836.012 2.754-.01a3 3 0 0 1-.17-.961c-.007-.936-.093-1.91.264-2.8.085-.282.111-.586.266-.844.165-.264.148-.606.361-.842.138-.168.169-.39.29-.568.096-.18.256-.316.35-.498.267-.447.634-.818.963-1.218.242-.206.41-.492.695-.648.233-.238.523-.41.756-.65.117-.136.314-.151.451-.262.28-.236.65-.312.942-.532.545-.139 1.06-.373 1.606-.507a8.7 8.7 0 0 1 1.623-.009c.537.09 1.021.358 1.544.502.422.304.923.508 1.269.91.145.187.357.307.47.52.285.22.435.552.645.834.108.137.142.315.243.457.162.234.33.475.384.76.072.3.3.54.332.85.049.4.202.773.297 1.162.027.244.049.491.139.722.07.744.062 1.495.006 2.239-.083.243-.114.497-.156.749a2 2 0 0 0-.139.65c3.939-.014 7.877-.002 11.815-.006 2.213-.008 4.426.016 6.639-.012.11-.368-.074-.736-.325-.996-.08-.307-.272-.559-.47-.8-.233-.565-.634-1.042-.863-1.606-.13-.22-.338-.391-.422-.638-.085-.228-.246-.414-.354-.628-.137-.318-.376-.578-.522-.89-.081-.19-.24-.335-.306-.53-.099-.344-.428-.555-.533-.896-.204-.377-.426-.745-.638-1.118-.127-.36-.454-.61-.56-.978-.128-.249-.327-.456-.42-.724-.24-.348-.438-.719-.656-1.08-.1.13-.236.226-.355.338-.289.25-.518.572-.86.756-.12.183-.315.259-.505.346-.31.26-.697.396-1.036.612-.207.141-.47.146-.683.275-.221.086-.447.24-.694.163a4 4 0 0 1-.502-.363c-.085-.23-.077-.483-.033-.72.151-.163.291-.375.531-.404.45-.082.808-.384 1.224-.552.203-.126.39-.276.616-.363.291-.298.632-.544.949-.815.237-.284.458-.583.7-.862.157-.345.464-.602.574-.97.145-.312.311-.617.367-.961.2-.458.279-.952.377-1.438.024-.47.02-.943.01-1.414.009-.304-.122-.587-.146-.888-.121-.395-.262-.784-.369-1.183-.213-.342-.274-.764-.566-1.055-.21-.202-.237-.588-.521-.693-.293.293-.56.614-.893.865.126.252.37.425.473.692.103.292.334.53.375.845.067.415.316.782.336 1.207.04.565.037 1.134 0 1.7-.026.415-.282.767-.335 1.175-.075.329-.313.59-.397.918-.276.301-.453.674-.74.964-.242.344-.632.54-.934.823-.278.289-.686.365-.998.605-.49.111-.945.352-1.448.408-.318.14-.672.105-1.011.114-.248-.01-.508.016-.742-.083-.216-.074-.455-.05-.663-.148-.417-.178-.89-.212-1.252-.506-.317-.106-.582-.304-.82-.537-.277.329-.607.61-.905.92.47.493 1.12.74 1.705 1.066.273.175.613.152.902.285.128.05.268.06.396.11.32.145.682.08 1.018.155.154.109.249.29.408.399.016.182.045.373-.013.552-.208.266-.495.589-.871.5-.277-.115-.585-.095-.863-.202-.354-.087-.74-.057-1.06-.254-.283-.168-.625-.18-.901-.361-.657-.384-1.35-.731-1.9-1.266-.192-.226-.432-.457-.45-.77-.005-.248-.033-.53.133-.735.245-.4.634-.676.914-1.047.141-.128.34-.172.454-.337.13-.096.15-.263.237-.39.319-.273.572-.613.923-.848 1.618-1.611 3.224-3.234 4.84-4.846.081-.145.008-.308-.036-.45-.076-.293-.334-.482-.464-.746-.11-.292-.324-.527-.44-.817a2.9 2.9 0 0 1-.391-.74c-.315-.3-.443-.716-.652-1.085-.195.331-.449.62-.674.93q-.21.185-.342.434c-.593.493-1.13 1.102-1.87 1.388-.182.094-.336.246-.544.28-.519.17-1.037.35-1.571.453-.5.012-1.024.074-1.504-.097-.43-.065-.82-.272-1.232-.4-.185-.131-.363-.272-.581-.345-.357-.242-.652-.562-.952-.867-.09-.299-.11-.646.066-.917.24-.237.628-.285.932-.156.278.211.541.448.77.714.255.111.497.247.745.374.266.095.558.078.823.18.508.125.998-.078 1.497-.141.273-.058.503-.23.765-.32.366-.108.61-.428.943-.598.174-.23.452-.347.607-.595.32-.322.592-.691.81-1.09.118-.21.315-.376.36-.622.063-.281.247-.512.324-.786.082-.44.244-.858.317-1.3.089-.876.09-1.791-.247-2.62-.054-.365-.283-.661-.424-.992-.387-.562-.885-1.056-1.494-1.372a7 7 0 0 0-1.258-.342c-.603-.048-1.165.208-1.741.339-.287.159-.554.353-.857.483-.29.256-.641.439-.89.74-.452.432-.758.984-1.119 1.487-.11.26-.216.519-.372.756-.087.352-.162.706-.3 1.043-.116.223-.066.489-.163.72-.18.643.049 1.325-.09 1.971-.016.206-.243.243-.38.347-.278.13-.554-.03-.805-.146-.052-.197-.198-.364-.19-.575a12 12 0 0 1-.001-1.56c-.004-.266.163-.5.134-.77a2.2 2.2 0 0 1 .089-.752l.126-.057q-.005-.146-.008-.29c.225-.017.116-.27.18-.416.13-.383.39-.704.545-1.076a8 8 0 0 1 2.427-2.653c.423-.197.758-.589 1.26-.588.066-.385-.264-.654-.44-.953-.126-.31-.334-.574-.465-.88-.156-.243-.374-.457-.453-.743-.043-.196-.24-.299-.304-.483-.122-.307-.333-.568-.464-.87a5.2 5.2 0 0 1-.5-.84 1.9 1.9 0 0 1-.312-.53c-.12-.294-.38-.5-.483-.799-.216-.368-.395-.755-.658-1.093-.15-.177-.16-.433-.333-.595-.125-.136-.182-.313-.238-.484-.14-.02-.295-.057-.424.025-.278.313-.406.719-.648 1.056-.109.29-.313.523-.488.772-.091.348-.365.6-.49.933-.144.252-.362.493-.35.8.057.292.1.588.201.868.149.652-.032 1.31-.196 1.938-.163.281-.351.55-.49.846-.309.395-.68.744-1.108 1.01-.526.263-1.063.538-1.66.602-.03.329-.324.53-.428.828-.084.249-.272.44-.406.66a15 15 0 0 1-.852 1.466c-.093.252-.273.453-.404.684.06.336-.27.52-.367.808-.037.12-.161.185-.184.311-.147.365-.501.602-.643.973-.087.268-.293.464-.439.697a11.5 11.5 0 0 1-.889 1.518c-.09.212.027.445.032.666.474.058.998-.008 1.417.263.158.09.33.147.498.212.498.316.868.782 1.2 1.264.253.383.342.844.482 1.276.094.34-.013.707.106 1.036.52.144.871.586 1.226.964.148.25.363.464.45.747.078.252.269.458.31.723.132.863.13 1.745.006 2.608-.025.224-.216.396-.16.633-.222.07-.201.37-.213.564-.148.018-.135.16-.165.272-.073.074-.131.167-.219.225-.287.143-.46.425-.705.622-.312.243-.609.527-1 .635-.321.199-.718.278-.974.57-.159.17-.334.325-.48.508-.17.171-.153.436-.282.632-.1.317-.2.636-.255.965-.146.322-.45.535-.722.747-.127.088-.246.209-.407.226a3.2 3.2 0 0 1-1.158.027c-.296-.009-.498-.252-.716-.42-.345-.22-.505-.627-.814-.886-.287-.185-.562-.41-.92-.427-.63-.275-1.341-.009-1.992-.194-.31-.136-.68-.079-.967-.273-.475-.248-.92-.54-1.356-.85-.063.354-.396.556-.473.9-.088.225-.27.393-.397.592-.146.336-.367.634-.505.974-.161.144-.251.334-.306.54-.18.19-.419.403-.7.374-.252-.007-.525-.144-.623-.385a1.3 1.3 0 0 1 .224-1.159c.2-.256.328-.556.515-.822.132-.17.134-.407.293-.56q.28-.312.407-.712c.24-.258.33-.605.534-.888.15-.18-.041-.379-.12-.543-.146-.211-.128-.476-.205-.71-.166-.333-.126-.716-.142-1.077.016-.36-.027-.747.145-1.078.073-.22.065-.47.192-.672.128-.224.253-.45.383-.672.046-.111-.056-.192-.1-.28-.265-.718-.463-1.49-.32-2.256.098-.36.19-.726.34-1.069.299-.379.504-.85.937-1.102.246-.134.42-.373.688-.471-.105-.747-.116-1.52.05-2.258.314-.639.628-1.313 1.196-1.766.252-.114.43-.35.703-.418.339-.123.667-.301 1.035-.314.393-.02.792-.033 1.18.042.283.076.55.203.825.301.233.078.405.264.621.375.127.054.176.193.268.287.101.055.219.046.33.057.039-.235.192-.414.326-.601.106-.22.19-.454.35-.644.319-.613.74-1.17 1.018-1.805.14-.207.33-.387.412-.63.058-.168.158-.314.262-.457.322-.611.736-1.17 1.02-1.803.183-.248.378-.514.423-.826-.276-.064-.515-.219-.771-.331a2.3 2.3 0 0 0-.508-.333c-.172-.269-.43-.463-.608-.73-.337-.293-.373-.764-.59-1.136a4.4 4.4 0 0 1-.007-2.02c.128-.3.257-.6.344-.915.408-.617.662-1.326 1.133-1.902.27-.367.452-.803.78-1.126.208-.443.584-.793.993-1.054.375-.107.807-.104 1.142.116.469.316.726.836 1.046 1.285a1 1 0 0 1 .326.458c.237.333.44.69.695 1.01.117-.295.366-.513.473-.812.132-.321.405-.557.527-.882.242-.434.486-.868.771-1.273.193-.136.396-.262.585-.406m-5.99 3.324c-.142.293-.42.501-.522.817-.072.217-.268.364-.335.582-.077.255-.284.45-.338.712-.069.326-.296.61-.301.951-.043.466.216.877.374 1.298.169.16.274.38.47.512.21.181.424.384.711.424.21.022.385.168.6.163.262.006.542.04.786-.08.175-.077.367-.097.553-.133.284-.256.604-.48.844-.78.119-.213.237-.428.333-.653.098-.418.121-.87-.002-1.285a7 7 0 0 1-.364-.898c-.184-.256-.384-.507-.47-.817-.363-.463-.589-1.023-.995-1.455-.15-.204-.256-.443-.465-.6-.274.426-.636.793-.88 1.242m15.64-.113c-.293.074-.368.412-.623.542-.041.23-.1.478-.022.706.278.428.635.852.675 1.38.059.46.041.93-.065 1.383-.068.208-.2.39-.266.598-.121.572-.585 1.025-.578 1.633.43-.012.751.305 1.15.407.111.067.168-.086.221-.155.113-.252.279-.483.35-.754.083-.398.337-.733.428-1.13.243-.4.518-.795.902-1.072.194-.172.465-.188.687-.308.41-.158.927-.163 1.197-.562.11-.31.097-.655.03-.972-.197-.357-.583-.628-1.004-.583-.221-.025-.406.102-.598.187a1.8 1.8 0 0 1-.709.001 1 1 0 0 1-.378-.527c-.089-.321-.324-.58-.587-.773a2 2 0 0 0-.81-.001M10.543 17.846c-.114.169-.243.326-.371.485-.203.436-.395.902-.352 1.394-.028.41.194.77.3 1.151.025.255.084.593-.159.763-.256.275-.643.32-.981.428q-.24.187-.485.361c-.094.12-.18.245-.272.367-.184.229-.141.545-.244.806a.77.77 0 0 0 0 .572c.096.266.067.571.223.817q.197.34.39.683c.12.398-.199.723-.437.997-.2.352-.415.707-.503 1.106-.02.34-.03.686.01 1.025.19.593.45 1.18.875 1.641.124.109.273.19.383.316.24.286.627.358.931.556.696.2 1.433.015 2.14.134.465.09.882.326 1.315.505.296.208.627.367.848.665a.68.68 0 0 0-.06-.392c-.091-.344-.215-.684-.233-1.043-.013-.407-.328-.697-.543-1.01-.193-.285-.517-.422-.775-.634-.222-.203-.536-.212-.8-.328-.27-.045-.524-.165-.8-.172-.37-.044-.752.024-1.112-.089-.24-.215-.442-.542-.346-.876q.09-.19.195-.37c.367-.235.808-.233 1.224-.174.388.122.806.083 1.199.185.325.152.647.314.987.433-.048-.404-.08-.815-.22-1.2a2.6 2.6 0 0 0-.429-1.12c-.164-.17-.376-.278-.568-.41-.243-.197-.574-.151-.864-.204-.278-.052-.607.07-.841-.133-.18-.17-.42-.355-.379-.633-.053-.386.294-.671.61-.813.235-.026.484-.032.708.052.222.066.469.02.678.13.12.064.255.077.386.105-.024-.435-.202-.839-.316-1.254-.066-.37-.115-.747-.025-1.117.211-.09.344-.346.591-.331.294-.034.556.161.71.397.152.335.235.699.252 1.067.012.295.185.55.187.847q.112-.015.225-.025c.051-.088.073-.207.177-.25.318-.174.58-.45.933-.557.163-.042.32-.204.496-.116.146.072.304.118.45.192q.117.235.21.48c.034.208-.115.376-.189.557-.148.263-.503.221-.702.426-.312.224-.607.48-.806.814-.213.301-.221.698-.162 1.049.067.55.292 1.066.368 1.615.344-.154.488-.54.8-.737.274-.173.483-.434.781-.567.31-.202.647-.365.994-.49.29-.076.502.148.742.26.09.34.183.806-.14 1.055-.308.165-.622.32-.928.488-.163.142-.334.275-.502.41-.322.27-.572.61-.816.946-.068.137-.095.289-.146.433-.2.407-.198.9-.06 1.325.206.375.015.895.37 1.193.114-.167.21-.344.277-.535.316-.494.73-.929 1.218-1.256.154-.073.305-.152.443-.253.176-.138.413-.138.606-.244.328-.255.687-.484.936-.825.102-.174.224-.336.348-.494.175-.212.136-.506.232-.75.133-.255.103-.553.112-.83-.01-.238.011-.49-.098-.709-.102-.22-.067-.488-.208-.692-.264-.347-.497-.727-.859-.98a5.3 5.3 0 0 1-.866-.462c-.232-.142-.213-.444-.202-.681.046-.42.048-.849-.049-1.261-.194-.552-.588-1.015-1.067-1.338-.518-.172-1.075-.138-1.609-.066-.268.032-.468-.18-.64-.353-.097-.198-.06-.436-.093-.65-.086-.36-.206-.712-.317-1.065-.075-.212-.3-.314-.416-.5-.07-.093-.112-.216-.226-.266-.213-.11-.404-.26-.624-.352a2.8 2.8 0 0 0-1.19-.05c-.325.028-.546.294-.83.426m29.752 5.678c-.432.593-1.069 1.003-1.5 1.596a53 53 0 0 0 2.292-.06c-.051-.385-.239-.733-.438-1.061-.09-.188-.089-.465-.354-.475m-1.763 3.131c.173.217.434.34.581.579q.2.15.35.35c.208.118.358.302.493.495.161.113.323.237.386.433.085-.12.182-.234.239-.37.131-.31.32-.592.437-.908.07-.239.07-.49.085-.735-.224.005-.447.005-.67.02-.62.156-1.268.065-1.901.136m-1.107 1.824c-.035.595-.028 1.19-.053 1.786.257-.03.516-.059.772-.106.266-.104.497-.288.782-.346.14-.072.372-.164.322-.357-.424-.387-.821-.8-1.216-1.215-.182-.138-.367-.282-.444-.508-.129.23-.072.504-.163.746m-1.845-.194c-.311.322-.63.635-.947.952-.097.103-.28.181-.228.352.206.264.575.266.84.448.2.146.455.16.694.165-.013-.754.04-1.508.048-2.26-.148.099-.292.207-.407.343m-11.255 5.547c-.239.08-.497.084-.737.16-.193.094-.363.236-.577.283-.26.052-.448.245-.656.392-1.125.656-1.97 1.696-2.661 2.776-.127.429-.483.75-.562 1.196-.087.345-.275.662-.306 1.022-.104.85-.104 1.712.005 2.56.034.322.205.605.289.912.067.41.387.704.554 1.072.22.311.416.667.748.875.196.3.52.462.784.69.133.093.305.108.436.206.242.153.476.354.777.367.318.021.606.181.926.185.505.022 1.018.044 1.518-.045.254-.107.534-.115.802-.171.325-.103.584-.348.907-.458.26-.09.441-.317.692-.43.407-.394.849-.76 1.166-1.234.23-.233.306-.567.53-.806.106-.389.304-.742.432-1.123.179-.377.128-.81.213-1.21.112-.304.057-.633.07-.947-.013-.301.036-.614-.07-.904-.068-.347-.07-.704-.137-1.052-.171-.469-.35-.938-.493-1.418-.112-.232-.262-.445-.354-.687-.27-.447-.582-.872-.967-1.227-.229-.199-.444-.426-.728-.546-.241-.101-.432-.318-.706-.335-.304-.033-.583-.19-.894-.163-.333.013-.678-.04-1 .06"/><path fill="#000" d="M23.377 37.67c.574-.059 1.16-.059 1.725.052.285.093.544.252.817.377.206.168.406.347.631.493.098.156.233.283.353.423q.196.361.425.704c.19.258.13.6.232.891.113.263.077.556.086.834-.009.21.012.432-.07.63-.1.262-.071.553-.172.813-.151.291-.332.563-.49.85-.24.318-.52.607-.82.87-.24.104-.406.33-.662.401-.361.118-.7.328-1.09.334-.44.021-.886.034-1.32-.051-.296-.099-.571-.246-.868-.338-.305-.226-.644-.417-.885-.718-.125-.162-.256-.32-.383-.479-.13-.31-.36-.579-.401-.92-.027-.237-.175-.44-.174-.682-.024-.446-.048-.902.04-1.342.15-.278.107-.617.276-.887.083-.154.18-.303.231-.472.04-.177.217-.262.303-.413.185-.325.52-.513.799-.749.103-.083.19-.194.32-.236.367-.13.692-.388 1.097-.385m.368 1.42c-.208.09-.433.123-.646.196-.373.253-.687.582-.979.923a6 6 0 0 0-.364 1.057q-.03.364.003.727c.08.314.201.617.342.91.26.353.59.65.98.85.467.132.966.135 1.44.036.247-.069.436-.257.667-.363.145-.065.218-.214.317-.328.09-.115.229-.196.272-.343.09-.24.231-.457.316-.697.08-.472.088-.963-.012-1.431-.186-.31-.276-.691-.567-.928-.235-.228-.486-.474-.828-.515-.296-.121-.627-.172-.941-.095"/><path stroke="#000" d="M17.574 13.432h9.578M5.023 34.074h16.844M28.145 34.074h17.834M18.895 23.836H38.38"/></svg>