<svg xmlns="http://www.w3.org/2000/svg" width="42" height="32" fill="none"><path fill="#48FDBC" d="M38.085 21.414c0 1.473-8.058 2.667-18 2.667-9.94 0-18-1.194-18-2.667 0-.766.845-1.18 4.334-1.667.095-.013-1.362 1.721-.667 1.667.411-.032 6.876 1.035 7.333 1 1.667-2.333.333-2.667.333-2.667l4 2 1-1.333-1-.954s2.195-.046 3.334-.046c1.115 0 6.333.046 6.333.046l1.666.954.334 2.333 7-1s-.942-1.826 0-1.556c1.278.366 2 .782 2 1.223"/><path fill="#fff" d="M40.886 28.562v-7.496l-.396.377-2.204 1.7-9.527 1.358-4.801.176H13.426l-9.251-1.231-2.287-1.081-.743-.83v6.712l.893 1.206 8.095 1.383 7.54.578 11.438-.176 9.426-1.408z"/><path fill="#fff" d="m29.393 22.805 6.406-1.002-3.365-7.491-.99-1.263-.808-.092a4.16 4.16 0 0 0-3.87 1.738l-.666 1.227-.38.447-2.41-.203-.454 1.432 4.593 1.866zM12.073 22.645l-6.202-.885 3.097-7.507.99-1.263.802-.091a3.98 3.98 0 0 1 3.795 1.8l.747 1.164.379.448-.723 1.591 2.745 2.878-1.2.813-2.55-2.188zM34.631 7.412c.94-.298 2.022.488 2.027 1.474.071.914-.78 1.748-1.693 1.656-.807-.017-1.512-.747-1.506-1.55-.041-.717.49-1.391 1.172-1.58"/><path fill="#F7F7F7" d="M6.776 7.412c.94-.298 2.021.488 2.027 1.474.07.914-.78 1.748-1.693 1.656-.807-.017-1.512-.747-1.506-1.55-.042-.717.49-1.391 1.172-1.58"/><path fill="#fff" d="m18.048 3.187 1.61 3.574c0 .088-.04.21-.205 0-.205-.263-.79 0-1.083 0s-1.64-1.23-2.752-1.552-1.932-.322-2.195-.41c-.264-.088-1.786-.82-1.873-.995-.07-.14-.166-.742-.205-1.025-.01-.244-.024-.772 0-.936.03-.205 1.142-.878 1.405-.878h1.346L16 1.52zM24.634 5.385l-.702 1.376-1.025-1.552-.175-2.022.614-.993 1.288-.234c.176.615.533 1.88.556 2.02s-.36.995-.556 1.405"/><path fill="#48FDBC" d="M11.686 3.225c.226-.696 1.134-1.208 1.928-.95 1.322.355 2.337 1.28 3.075 2.287.381.52.704 1.073.975 1.645a9.4 9.4 0 0 0-3.149-1.553c-.733-.175-1.51-.205-2.218-.46-.416-.155-.718-.561-.611-.97M23.021 3.234c.023-.176.198-.256.322-.355.341-.033.728.154.777.523.2 1.055-.247 2.099-.765 2.996.029-.608.013-1.224-.14-1.817-.082-.444-.28-.889-.194-1.347M6.079 8.346c.492-.166.997.393.758.863-.174.433-.832.504-1.105.131-.277-.33-.09-.92.347-.994M34.234 8.347c.406-.14.885.222.82.658-.01.48-.638.746-1.01.464-.44-.26-.318-1.029.19-1.122"/><path fill="#F7F7F7" d="M13.558 8.683c.767-.22 1.661.254 1.898 1.02.319.792-.168 1.785-.98 2.036-.519.157-1.14.09-1.55-.287a1.59 1.59 0 0 1-.46-1.782c.161-.492.601-.852 1.092-.987M26.971 8.689c.94-.298 2.021.488 2.027 1.475.071.913-.78 1.747-1.693 1.655-.807-.017-1.512-.747-1.506-1.55-.042-.717.49-1.39 1.172-1.58"/><path fill="#000" d="M12.9.053c1.069-.215 2.125.258 3.024.793 1.629 1.06 2.803 2.693 3.643 4.419.58 1.135.95 2.374 1.108 3.638.061.403-.36.758-.748.666-.4-.06-.544-.484-.782-.752-1.069-1.426-2.595-2.485-4.278-3.05-1.074-.33-2.262-.305-3.25-.89-.873-.49-1.367-1.575-1.134-2.554.292-1.131 1.26-2.063 2.418-2.27m-1.167 2.55c-.126.536.228 1.069.715 1.271.83.335 1.74.374 2.598.604a10.6 10.6 0 0 1 3.688 2.037 13.7 13.7 0 0 0-1.142-2.157c-.864-1.321-2.053-2.534-3.601-3-.93-.339-1.993.333-2.258 1.246M22.076 2.8c.079-.852.89-1.559 1.742-1.534a1.93 1.93 0 0 1 1.626.86c.39.565.382 1.293.328 1.948-.194 1.443-.942 2.752-1.845 3.869-.392.48-.85.91-1.362 1.258-.354.208-.762-.042-.924-.373-.002-.192-.003-.39.103-.559.544-1.009.792-2.188.655-3.329-.12-.709-.44-1.41-.323-2.14m1.287.093c-.086.459.112.903.195 1.348.152.592.168 1.209.14 1.816.517-.897.963-1.94.764-2.996-.05-.369-.436-.555-.777-.523-.124.1-.3.18-.322.355M6.608 7.063c1.035-.205 2.094.609 2.216 1.645.119.821-.38 1.666-1.128 2.002a2.05 2.05 0 0 1-1.5.025c-.79-.314-1.313-1.192-1.184-2.036.11-.814.774-1.523 1.596-1.636m.14 1.284c-.436.074-.624.665-.346.995.273.372.931.302 1.105-.131.239-.471-.266-1.03-.758-.864M34.791 7.058c.919-.166 1.887.455 2.127 1.355.232.706-.035 1.534-.606 2-.514.471-1.298.558-1.94.326-.814-.323-1.356-1.24-1.19-2.111.142-.787.803-1.47 1.61-1.57m.109 1.29c-.509.093-.631.862-.191 1.12.372.283 1 .016 1.011-.463.064-.436-.414-.798-.82-.658M11.695 8.449c.704-.922 2.006-1.322 3.11-.962.844.233 1.51.907 1.848 1.702.256.798.242 1.716-.187 2.452-.429.756-1.21 1.32-2.076 1.434-1.06.186-2.186-.309-2.792-1.191-.725-.998-.68-2.478.097-3.435m1.864.234c-.491.135-.931.495-1.093.987a1.59 1.59 0 0 0 .46 1.783c.411.376 1.032.443 1.551.286.812-.251 1.298-1.244.98-2.037-.237-.765-1.131-1.239-1.898-1.02M26.778 7.427c.633-.154 1.306-.05 1.895.217.969.48 1.641 1.533 1.61 2.62.012 1.35-1.07 2.62-2.41 2.805-1.154.22-2.388-.376-2.963-1.391-.249-.462-.418-.979-.392-1.508.015-1.285.992-2.496 2.26-2.743m.195 1.261c-.683.19-1.214.863-1.172 1.58-.006.804.699 1.534 1.506 1.55.913.093 1.764-.741 1.693-1.655-.006-.986-1.087-1.773-2.027-1.475M3.744 11.339c.094-.423.662-.616.992-.338.349.25.323.856-.053 1.067-.146.105-.335.074-.503.094-.301-.147-.553-.474-.436-.823M37.05 11.73c-.142-.382.132-.853.552-.86.438-.048.8.448.637.853-.061.208-.253.325-.424.436-.31.032-.684-.094-.766-.428M8.85 12.483c.354-.327.802-.516 1.226-.733.19.409.396.814.7 1.151-.77.188-1.449.72-1.795 1.435-1.04 2.474-2.036 4.967-3.094 7.433-.406-.122-.834-.163-1.23-.317.962-2.376 1.96-4.737 2.932-7.109.258-.711.668-1.38 1.26-1.86M31.275 11.762c.98.38 1.837 1.105 2.274 2.073.582 1.363 1.13 2.741 1.71 4.105.474 1.218 1.028 2.405 1.475 3.631-.416.113-.838.2-1.259.29-.82-2.086-1.715-4.142-2.554-6.22-.276-.57-.426-1.202-.802-1.718a2.72 2.72 0 0 0-1.51-1.012c.244-.37.498-.737.666-1.15M25.756 14.078c.416.127.83.261 1.265.314-.267.564-.315 1.2-.22 1.812.842.283 1.687.562 2.527.854.206.062.415.19.482.407.217.445-.306 1-.763.84-1.157-.38-2.31-.773-3.463-1.165-.498-.135-.97-.352-1.466-.487-.331-.121-.695.281-.519.596.219.23.558.263.841.373 2.142.769 4.3 1.497 6.436 2.278.391.142.506.735.18 1a.65.65 0 0 1-.727.16c-.612-.23-1.239-.423-1.848-.663.268.816.655 1.589.955 2.394-.428.043-.856.095-1.285.115-.106-.076-.127-.208-.177-.316-.383-.915-.753-1.834-1.134-2.75-1.187-.46-2.404-.838-3.594-1.29-.73-.287-1.14-1.183-.907-1.927.188-.7.847-1.244 1.574-1.27.556-.036 1.049.27 1.57.412-.021-.577.125-1.135.273-1.687M14.338 14.397c.424-.073.85-.158 1.245-.335.378 1.047.39 2.237-.036 3.271-.022.096-.141.24-.024.317.704.54 1.432 1.047 2.146 1.575.462.319.783.865.771 1.434.018.736-.504 1.46-1.22 1.65-.528.187-1.12.032-1.56-.289-.525-.381-1.06-.748-1.582-1.13-.23.627-.524 1.228-.746 1.857-.444-.031-.886-.095-1.33-.11l.04-.154c.327-.782.642-1.57.974-2.349-1.151-.796-2.284-1.62-3.429-2.423-.15-.104-.313-.213-.378-.392-.162-.34.07-.78.433-.86.224-.074.448.038.628.166 2.068 1.464 4.13 2.933 6.199 4.396.27.251.729-.02.687-.37.026-.196-.16-.315-.29-.423-1.401-1.03-2.81-2.05-4.21-3.08-.444-.298-.266-1.08.271-1.14.606-.046.94.603 1.479.774.245-.775.26-1.632-.068-2.386M17.258 17.348A120 120 0 0 1 21 17.27c.053.447.185.88.383 1.284-.84 0-1.682.016-2.521.015-.494-.459-1.063-.824-1.604-1.22"/><path fill="#000" d="M36.953 18.691c1.219.319 2.467.635 3.541 1.322.41.281.824.636.946 1.141.15.54-.162 1.089-.571 1.425-.749.629-1.693.943-2.605 1.254-2.12.61-4.305.958-6.496 1.182a38 38 0 0 1-3.113.29c-3.065.213-6.144.342-9.219.284-2.034-.053-4.07-.13-6.099-.284-1.246-.056-2.485-.22-3.725-.357-2.326-.284-4.669-.647-6.876-1.46-.745-.328-1.557-.677-2.023-1.38-.36-.532-.189-1.267.271-1.68.91-.854 2.153-1.194 3.316-1.55-.16.514-.401.998-.59 1.5-.647.25-1.352.451-1.86.947-.097.077-.051.22.047.274.493.442 1.14.638 1.745.875 1.92.607 3.914.942 5.91 1.182 1.25.189 2.51.29 3.77.375 3.49.28 6.995.34 10.495.255 1.947-.035 3.889-.188 5.832-.314 2.402-.225 4.805-.525 7.162-1.06 1.004-.274 2.035-.523 2.94-1.053.157-.125.393-.224.45-.429-.113-.225-.36-.348-.563-.483a9.3 9.3 0 0 0-2.062-.768c-.227-.489-.42-.99-.623-1.488"/><path fill="#000" d="M.566 24.714c.143-.386.676-.51.987-.251.24.156.161.52.392.683.258.211.58.319.882.45 1.366.499 2.807.73 4.23 1.002 1.604.207 3.204.458 4.82.56 5.83.473 11.7.496 17.532.054 1.867-.108 3.72-.364 5.572-.625 1.196-.228 2.4-.43 3.565-.799.497-.143.99-.329 1.43-.608.305-.156.205-.588.49-.762.16-.11.36-.1.545-.11.304.139.534.459.455.805-.136.733-.845 1.145-1.455 1.459-.514.214-1.03.44-1.574.569l-.058.034c-2.726.74-5.548 1.012-8.353 1.272-3.035.196-6.077.347-9.12.36-2.59-.024-5.181-.117-7.763-.297-1.63-.063-3.252-.268-4.872-.452-1.754-.226-3.508-.525-5.197-1.056-.777-.289-1.605-.572-2.189-1.19-.269-.28-.467-.713-.319-1.098"/><path fill="#000" d="M.516 28.12c.014-.466.588-.771.98-.506.319.156.203.616.515.778.677.436 1.475.61 2.239.83 1.898.471 3.84.724 5.778.963 3.358.328 6.733.526 10.109.529 3.362.032 6.726-.077 10.075-.376 1.398-.072 2.785-.287 4.17-.475.983-.114 1.948-.348 2.917-.535.91-.253 1.862-.442 2.673-.948.243-.122.24-.41.353-.622.146-.232.443-.258.692-.254.237.127.455.334.463.62.013.536-.382.963-.792 1.25-.98.663-2.147.943-3.274 1.244-2.37.53-4.79.797-7.206 1-4.321.313-8.664.491-12.996.303-4.126-.172-8.27-.397-12.322-1.232-1.148-.288-2.323-.564-3.352-1.168-.505-.296-1.035-.764-1.022-1.4"/></svg>