<svg xmlns="http://www.w3.org/2000/svg" width="38" height="32" fill="none"><path fill="#fff" d="m30.417 29.027-1.402 2.398-14.055.26-6.268-.547-.997-2.469v-2.588l.522-2.445-1.4-3.894 4.344 1.116.594 1.59c-.016.594-.038 1.824 0 1.995.038.17.427.673.617.902h.974l1.044-1.543.285-3.704-.902-1.045-.427-2.635 1.33-1.71.95-.804.284 1.187 1.448 1.947 1.876 1.21 1.162 1.21 1.64 1.236.64-.356v-3.49l1.543.31 2.66 2.3.498 2.803-.665 2.778-.474 1.732 1.71-1.02 1.709-2.353h.76l.878 3.373zM31.181 28.463l1.26.617-.928.25h-.958l.276-.544z"/><path fill="#48FDBC" d="M14.172 18.999c.363-.552.759-1.088 1.122-1.64.197.556.29 1.14.608 1.663.298.464.737.871 1.287 1.152 2.97 1.665 4.517 5.847 3.094 8.812.09.164.188.367.432.41a.59.59 0 0 0 .526-.15c1.042-.841 2.043-8.126 1.64-9.272.614.249 1.229.519 1.723.909.82.622 1.37 1.472 1.52 2.37.17.886-.013 1.805-.435 2.63-.258.597-.569 1.178-.817 1.776-.15.305.325.636.677.465.526-.268 1.055-.538 1.535-.857.779-.515 1.358-1.193 1.794-1.916.262.478.584.948.686 1.47.142.564.09 1.151-.1 1.703-.179.502-.544.938-.874 1.382q-.535.713-1.066 1.427c-5.744-.003-11.488.003-17.232-.003-.435-.51-.935-.999-1.189-1.591a3.6 3.6 0 0 1-.175-2.762c.398-.879.461-1.853.157-2.756-.233-.605-.51-1.198-.733-1.805.696.177 1.445.247 2.089.54.906.417 1.456 1.267 1.379 2.101-.106 1.205.273 4.01 1.426 4.596.367.186.828.258 1.252.176.579-.093 1.055-.486 1.181-.945.712-1.912 1.618-3.877-.87-7.599-.187-.33-.511-.599-.682-.936a1.48 1.48 0 0 1 .044-1.35m9.874 5.629c-.157.052-.273.17-.296.305-.08.372-.167.75-.38 1.09-.083.122-.089.277.012.395.161.252.694.246.846-.01.28-.438.452-.924.478-1.417.02-.268-.358-.466-.66-.363m-4.751 1.851c.001.468-.002.936.001 1.404.078.108.175.218.329.26.307.105.678-.126.657-.388q.006-.573.001-1.146c.011-.169-.121-.342-.325-.393-.27-.08-.569.051-.663.263m3.484.315c-.207.095-.346.26-.48.414-.18.25.114.584.462.562.327-.008.491-.268.67-.45.227-.31-.265-.695-.652-.526m-12.626.64c-.132.07-.233.185-.23.315-.042.848.392 1.706 1.155 2.293a.56.56 0 0 0 .641.01c.238-.137.239-.444.018-.593-.55-.451-.865-1.082-.832-1.715.003-.292-.458-.47-.752-.31m7.164.376c.011.55-.027 1.102.02 1.65.116.38.853.363.969-.01-.004-.567.005-1.135-.003-1.702 0-.16-.14-.31-.334-.35-.322-.101-.69.14-.652.412m2.294 1.176c-.15.043-.239.151-.314.257.003.328-.015.657.007.985.05.235.362.345.633.31.145-.078.31-.17.335-.32.027-.283.01-.567.01-.85.026-.268-.364-.498-.671-.382"/><path fill="#F7F7F7" d="M6.379 28.702c.339-.185.672-.377 1.02-.544q.085.273.135.556c-.384-.003-.77.014-1.155-.012M31.42 28.346q.33.187.666.363-.422.014-.844.006.082-.189.179-.37"/><path fill="#F7F7F7" d="M5.6 28.853c1.013.004.93-.474 1.943-.456.185.374.73 2.343.971 2.682a522 522 0 0 1-4.37 0c.152-.397 1.173-1.91 1.456-2.226M30.273 30.034q1.45-.002 2.9.001c.284.314.514.672.663 1.069-1.397.003-2.795.01-4.191-.003.198-.362.433-.703.628-1.067"/><path fill="#000" d="M14.801.043c.263-.1.607.012.712.222.138.212-.098.42-.06.639-.008.232.254.388.358.59.326.51.21 1.145-.237 1.587-.185.17-.055.422-.236.594-.196.21-.647.22-.844.006-.176-.142-.143-.356-.108-.534.055-.285.277-.523.458-.767.146-.221.05-.484-.137-.671-.315-.35-.434-.8-.292-1.214.064-.174.158-.37.386-.452M19.027.117c.25-.212.742-.118.874.14.1.24-.108.471-.058.712.07.239.324.41.425.638.146.335.142.705 0 1.04-.105.22-.326.392-.425.613-.005.16-.005.34-.18.45-.27.232-.806.108-.91-.185-.073-.344.076-.693.333-.972.209-.21.266-.516.08-.746-.187-.241-.408-.486-.421-.778-.026-.312-.008-.671.282-.912M23.31.199c.206-.262.732-.256.928.01.213.215-.053.453-.024.685-.002.2.18.358.298.525.26.318.29.722.19 1.083-.086.334-.488.566-.497.917-.014.223-.267.442-.567.416a.55.55 0 0 1-.525-.35c.02-.262.038-.54.221-.768.117-.146.243-.288.326-.448.108-.418-.425-.672-.487-1.06-.1-.335-.063-.702.138-1.01"/><path fill="#fff" d="M9.073 6.588c.383-.253.89-.288 1.304-.087.756.338 1.012 1.437.447 2.056-.48.64-1.536.622-2.025.006-.528-.567-.37-1.563.274-1.975M12.055 5.79c.47.016.94.02 1.41.024.221 1.296.205 2.627-.068 3.915-.47-.023-.94-.017-1.41-.029.266-1.283.287-2.618.068-3.91M14.67 9.13c.031-.892.017-1.786.058-2.677.881.027 1.763.035 2.644.048.01.885-.04 1.77-.029 2.655-.89.01-1.781-.042-2.672-.026M18.976 6.793c.515-.396 1.333-.317 1.756.179.351.379.465.98.231 1.448-.175.431-.617.702-1.064.765-.645.09-1.308-.39-1.437-1.024a1.35 1.35 0 0 1 .514-1.368M22.172 6.586c.882.009 1.764.036 2.645.039.044.886-.03 1.774-.015 2.661-.889.005-1.777-.042-2.666-.031.005-.89.04-1.78.036-2.669M26.07 9.941a9.1 9.1 0 0 1 .068-3.924c.452.016.906.04 1.358.024-.203 1.294-.273 2.619-.044 3.916-.46-.01-.922-.023-1.382-.016M28.527 7.596c.304-.406 1.022-.349 1.203.144.249.468-.194 1.061-.709.993-.535-.018-.832-.73-.494-1.137"/><mask id="a" fill="#fff"><path fill-rule="evenodd" d="M5.812 8.139c-.548.007-.995.023-1.048.058a1.2 1.2 0 0 0-.165.314 2 2 0 0 1-.078.179c-.492.999-1.749 1.533-2.807 1.174C.704 9.554-.002 8.483.12 7.431c.064-1.162 1.154-2.14 2.31-2.11.325.012.541.325.494.633l-.078.18c-.146.186-.377.214-.595.241l-.03.004c-.647.088-1.164.736-1.07 1.388.053.586.54 1.1 1.13 1.156.53.077 1.064-.229 1.312-.694l.027-.067c.118-.295.243-.605.522-.782.336-.288 2.31-.309 3.343-.308.142-.527.475-.988.907-1.318.725-.538 1.789-.626 2.552-.114q-.01-.086-.032-.176c-.035-.162-.071-.326.023-.474.12-.236.415-.299.659-.285q.497.012.994.018c.457.006.913.012 1.37.03.313.019.426.306.523.553l.029.073q.54.01 1.08.017c.69.01 1.382.019 2.072.042.313-.008.55.225.716.464.827-.59 2.02-.573 2.826.05.15-.256.418-.443.72-.45q.799.016 1.597.028t1.596.03c.058-.285.227-.608.563-.605.435-.011.871 0 1.307.01.37.01.741.018 1.111.014.218-.005.475.072.551.3.12.215.057.436-.007.659-.036.125-.072.25-.076.375.903-.274 1.969.268 2.22 1.192.603.026.652.036.691.045.04.01.07.016.696.034h.2c.474-.004.98-.008 1.358.316.288.182.416.502.538.806l.028.069c.256.48.807.795 1.354.716.607-.057 1.11-.588 1.163-1.192.099-.672-.435-1.341-1.101-1.431l-.032-.004c-.225-.028-.462-.057-.614-.248q-.04-.094-.08-.186c-.049-.319.174-.64.51-.654 1.192-.03 2.315.978 2.382 2.177.124 1.084-.603 2.19-1.646 2.508-1.09.37-2.387-.18-2.893-1.21a2 2 0 0 1-.081-.185 1.2 1.2 0 0 0-.17-.324c-.133-.088-.293-.085-.446-.083H32.6c-.537-.008-.494-.018-.453-.027s.078-.018-.455-.025l-.08-.003c-.282-.012-.566-.023-.847.015a1.8 1.8 0 0 1-1.486 1.173c-.154.036-.305.011-.457-.014-.112-.018-.223-.036-.336-.03.014.096.042.194.07.294.07.244.14.494.014.724-.107.203-.342.29-.561.27-.384-.016-.768-.02-1.152-.024a31 31 0 0 1-1.329-.033c-.322-.024-.44-.356-.5-.625a93 93 0 0 1-1.617-.022q-.472-.01-.946-.017c-.103-.01-.208-.008-.313-.006-.218.004-.436.009-.63-.101-.168-.078-.285-.228-.395-.37-.82.601-2.028.57-2.822-.063-.15.245-.4.45-.7.448-.492.01-.985-.002-1.478-.014-.586-.015-1.171-.03-1.755-.007-.03.294-.222.6-.552.591q-.534-.013-1.07-.019c-.486-.006-.972-.013-1.457-.032-.432-.004-.605-.525-.43-.869-.75.333-1.68.308-2.368-.165-.544-.333-.89-.918-1.05-1.525a8 8 0 0 1-.764 0 10 10 0 0 0-.609-.006.7.7 0 0 1-.259-.038m2.984.421c-.529-.567-.37-1.563.274-1.975.383-.253.89-.288 1.303-.087.757.338 1.012 1.437.447 2.056-.479.64-1.535.622-2.024.006m3.19 1.132c.267-1.283.288-2.618.07-3.91.47.015.94.02 1.41.024.22 1.296.205 2.627-.068 3.914a23 23 0 0 0-.867-.02q-.273-.003-.544-.008m4.082-.556c-.466-.01-.933-.02-1.4-.012q.018-.597.023-1.194c.005-.495.011-.99.034-1.483.706.021 1.412.03 2.118.04l.526.008c.005.433-.005.866-.014 1.299-.01.452-.02.904-.015 1.356-.424.004-.848-.005-1.272-.014m2.391-.977a1.35 1.35 0 0 1 .514-1.368c.516-.396 1.333-.316 1.757.18.35.378.464.98.23 1.448-.175.43-.616.7-1.064.764-.644.09-1.308-.39-1.437-1.024m3.694-.046c.01-.511.021-1.023.019-1.534q.574.007 1.148.018c.5.01.998.02 1.497.02.025.504.011 1.01-.002 1.514-.01.383-.02.765-.014 1.148-.422.003-.844-.007-1.266-.016-.467-.01-.933-.02-1.4-.015q.005-.568.018-1.135m5.182 1.836c-.422-.01-.844-.02-1.266-.013a9.1 9.1 0 0 1 .068-3.924l.267.01c.364.014.728.028 1.092.014-.204 1.294-.273 2.619-.044 3.916q-.06 0-.117-.003m1.685-1.22c-.535-.02-.832-.732-.494-1.139.303-.405 1.022-.348 1.203.145.248.467-.195 1.06-.71.993" clip-rule="evenodd"/></mask><path fill="#000" fill-rule="evenodd" d="M5.812 8.139c-.548.007-.995.023-1.048.058a1.2 1.2 0 0 0-.165.314 2 2 0 0 1-.078.179c-.492.999-1.749 1.533-2.807 1.174C.704 9.554-.002 8.483.12 7.431c.064-1.162 1.154-2.14 2.31-2.11.325.012.541.325.494.633l-.078.18c-.146.186-.377.214-.595.241l-.03.004c-.647.088-1.164.736-1.07 1.388.053.586.54 1.1 1.13 1.156.53.077 1.064-.229 1.312-.694l.027-.067c.118-.295.243-.605.522-.782.336-.288 2.31-.309 3.343-.308.142-.527.475-.988.907-1.318.725-.538 1.789-.626 2.552-.114q-.01-.086-.032-.176c-.035-.162-.071-.326.023-.474.12-.236.415-.299.659-.285q.497.012.994.018c.457.006.913.012 1.37.03.313.019.426.306.523.553l.029.073q.54.01 1.08.017c.69.01 1.382.019 2.072.042.313-.008.55.225.716.464.827-.59 2.02-.573 2.826.05.15-.256.418-.443.72-.45q.799.016 1.597.028t1.596.03c.058-.285.227-.608.563-.605.435-.011.871 0 1.307.01.37.01.741.018 1.111.014.218-.005.475.072.551.3.12.215.057.436-.007.659-.036.125-.072.25-.076.375.903-.274 1.969.268 2.22 1.192.603.026.652.036.691.045.04.01.07.016.696.034h.2c.474-.004.98-.008 1.358.316.288.182.416.502.538.806l.028.069c.256.48.807.795 1.354.716.607-.057 1.11-.588 1.163-1.192.099-.672-.435-1.341-1.101-1.431l-.032-.004c-.225-.028-.462-.057-.614-.248q-.04-.094-.08-.186c-.049-.319.174-.64.51-.654 1.192-.03 2.315.978 2.382 2.177.124 1.084-.603 2.19-1.646 2.508-1.09.37-2.387-.18-2.893-1.21a2 2 0 0 1-.081-.185 1.2 1.2 0 0 0-.17-.324c-.133-.088-.293-.085-.446-.083H32.6c-.537-.008-.494-.018-.453-.027s.078-.018-.455-.025l-.08-.003c-.282-.012-.566-.023-.847.015a1.8 1.8 0 0 1-1.486 1.173c-.154.036-.305.011-.457-.014-.112-.018-.223-.036-.336-.03.014.096.042.194.07.294.07.244.14.494.014.724-.107.203-.342.29-.561.27-.384-.016-.768-.02-1.152-.024a31 31 0 0 1-1.329-.033c-.322-.024-.44-.356-.5-.625a93 93 0 0 1-1.617-.022q-.472-.01-.946-.017c-.103-.01-.208-.008-.313-.006-.218.004-.436.009-.63-.101-.168-.078-.285-.228-.395-.37-.82.601-2.028.57-2.822-.063-.15.245-.4.45-.7.448-.492.01-.985-.002-1.478-.014-.586-.015-1.171-.03-1.755-.007-.03.294-.222.6-.552.591q-.534-.013-1.07-.019c-.486-.006-.972-.013-1.457-.032-.432-.004-.605-.525-.43-.869-.75.333-1.68.308-2.368-.165-.544-.333-.89-.918-1.05-1.525a8 8 0 0 1-.764 0 10 10 0 0 0-.609-.006.7.7 0 0 1-.259-.038m2.984.421c-.529-.567-.37-1.563.274-1.975.383-.253.89-.288 1.303-.087.757.338 1.012 1.437.447 2.056-.479.64-1.535.622-2.024.006m3.19 1.132c.267-1.283.288-2.618.07-3.91.47.015.94.02 1.41.024.22 1.296.205 2.627-.068 3.914a23 23 0 0 0-.867-.02q-.273-.003-.544-.008m4.082-.556c-.466-.01-.933-.02-1.4-.012q.018-.597.023-1.194c.005-.495.011-.99.034-1.483.706.021 1.412.03 2.118.04l.526.008c.005.433-.005.866-.014 1.299-.01.452-.02.904-.015 1.356-.424.004-.848-.005-1.272-.014m2.391-.977a1.35 1.35 0 0 1 .514-1.368c.516-.396 1.333-.316 1.757.18.35.378.464.98.23 1.448-.175.43-.616.7-1.064.764-.644.09-1.308-.39-1.437-1.024m3.694-.046c.01-.511.021-1.023.019-1.534q.574.007 1.148.018c.5.01.998.02 1.497.02.025.504.011 1.01-.002 1.514-.01.383-.02.765-.014 1.148-.422.003-.844-.007-1.266-.016-.467-.01-.933-.02-1.4-.015q.005-.568.018-1.135m5.182 1.836c-.422-.01-.844-.02-1.266-.013a9.1 9.1 0 0 1 .068-3.924l.267.01c.364.014.728.028 1.092.014-.204 1.294-.273 2.619-.044 3.916q-.06 0-.117-.003m1.685-1.22c-.535-.02-.832-.732-.494-1.139.303-.405 1.022-.348 1.203.145.248.467-.195 1.06-.71.993" clip-rule="evenodd"/><path fill="#000" d="m5.812 8.139.344-.94-.173-.063-.184.003zm-1.048.058-.553-.833-.127.084-.097.12zm-.165.314.927.376zm-.078.179-.89-.457-.004.008-.004.007zM1.714 9.864l.321-.947-.014-.005-.014-.004zM.12 7.431l.993.114.004-.03.001-.029zm2.31-2.11.039-1h-.014zm.494.633.915.404.053-.121.02-.131zm-.078.18.784.621.083-.105.053-.122zm-.595.241-.122-.992zm-.03.004-.125-.992-.01.001zM1.15 7.767l.997-.089-.003-.028-.004-.028zm1.13 1.156.142-.99-.024-.003-.024-.002zm1.312-.694.882.47.025-.046.02-.05zm.027-.067.928.372zm.522-.782.534.845.062-.039.055-.047zm3.343-.308-.002 1 .767.001.2-.74zm.907-1.318-.596-.803-.01.008zm2.552-.114-.557.83 1.786 1.199-.235-2.138zm-.032-.176-.977.213zm.023-.474.843.538.027-.042.022-.043zm.659-.285-.056.998.015.001h.015zm.994.018-.013 1zm1.37.03.063-.999h-.013l-.013-.001zm.523.553-.93.366zm.029.073-.927.376.248.61.66.014zm1.08.017.014-1zm2.072.042-.034 1 .031.001h.031zm.716.464-.823.57.578.833.825-.589zm2.826.05-.613.79.897.695.577-.977zm.72-.45.023-1-.025-.001h-.025zm1.597.028.015-1zm1.596.03-.023.999.835.019.168-.818zm.563-.605-.01 1h.035zm1.307.01-.024 1zm1.111.014.012 1h.01zm.551.3-.947.318.03.089.045.081zm-.007.659.961.277zm-.076.375-1-.029-.04 1.39 1.331-.404zm2.22 1.192-.966.262.191.707.733.03zm.691.045-.218.976zm.696.034-.028 1h.022zm.2 0 .007 1zm1.358.316-.651.759.055.047.062.04zm.538.806-.928.372zm.028.069-.927.375.02.05.025.046zm1.354.716-.094-.995-.025.002-.024.004zM36.813 8.3l-.989-.145-.004.028-.003.028zm-1.101-1.431.134-.991-.01-.002zm-.032-.004.122-.993zm-.614-.248-.92.393.053.122.083.105zm-.08-.186-.988.151.02.131.053.121zm.51-.654-.025-1-.014.001zm2.382 2.177-.999.055.002.03.003.029zm-1.646 2.508-.292-.956-.014.005-.015.004zm-2.893-1.21.897-.442-.003-.007-.004-.008zm-.081-.185-.927.376zm-.17-.324.776-.63-.096-.118-.127-.085zm-.446-.083-.014-1zm-.043 0-.016 1h.026zm-.453-.027-.225-.975zm-.455-.025-.04 1h.028zm-.08-.003-.04 1zm-.847.015-.134-.991-.608.082-.202.58zm-1.486 1.173-.107-.994-.059.007-.057.013zm-.457-.014.16-.987zm-.336-.03-.05-1-1.1.056.16 1.09zm.07.294-.962.273zm.014.724-.876-.481-.004.007-.004.007zm-.561.27.088-.996-.023-.002-.023-.001zm-1.152-.024-.01 1zm-1.329-.033-.074.997.01.001h.01zm-.5-.625.977-.218-.175-.78-.8-.002zm-1.617-.022.02-1zm-.946-.017-.106.995.046.004.046.001zm-.313-.006-.021-1zm-.63-.101.493-.87-.035-.02-.037-.017zm-.395-.37.793-.61-.597-.776-.788.58zm-2.822-.063.624-.781-.884-.707-.592.965zm-.7.448.004-1h-.024zm-1.478-.014.025-1zm-1.755-.007-.04-.999-.87.034-.085.868zm-.552.591-.027 1zm-1.07-.019-.013 1zm-1.457-.032.039-.999h-.029zm-.43-.869.892.453 1.272-2.506-2.57 1.14zm-2.368-.165.567-.824-.022-.015-.022-.013zm-1.05-1.525.968-.253-.209-.801-.826.056zm-.764 0-.032 1zm-.609-.006-.031-1-.013.001h-.013zM9.07 6.585l.538.843.007-.004.006-.004zM8.796 8.56l.783-.622-.025-.03-.027-.03zm1.578-2.062-.438.9.015.007.015.006zm.446 2.056-.738-.674-.033.036-.029.038zm1.236-2.772.031-.999-1.222-.039.205 1.206zm-.07 3.91-.978-.203-.243 1.172 1.196.03zm1.48-3.886.986-.168-.14-.824-.837-.008zm-.068 3.914-.05 1 .851.04.177-.832zm-.867-.02.01-1zm2.137-.576-1-.034-.036 1.052 1.053-.018zm1.4.012-.021 1zM14.69 7.93l-1-.011zm.035-1.483.03-1-.983-.03-.046.983zm2.118.04-.014 1zm.526.008 1-.01-.01-.976-.975-.014zm-.014 1.299 1 .022zM17.34 9.15l.011 1 1.003-.011-.014-1.002zm1.633-2.359.586.81.012-.008.01-.009zm-.514 1.368.98-.2-.002-.008-.001-.008zm2.27-1.189-.76.65.013.015.014.015zm.232 1.449-.895-.447-.017.034-.015.036zm-1.065.764.14.99zm2.276-2.604.009-1-1.014-.009.005 1.014zm-.019 1.534 1 .02zm1.167-1.516.019-1zm1.497.02.999-.049-.047-.948-.95-.003zm-.002 1.514 1 .026zm-.014 1.148.006 1 1.012-.006-.018-1.01zm-1.266-.016.022-1zm-1.4-.015-1-.007-.007 1.019 1.02-.012zm3.934.688-.98.2.166.813.83-.013zm1.266.013-.023 1zm-1.198-3.937.034-.999-.813-.027-.192.79zm.267.01-.038 1zm1.092.014.988.156.188-1.2-1.213.045zm-.044 3.916-.023 1 1.22.028-.213-1.202zm1.074-2.362.77.64.015-.02.016-.02zm.494 1.138.13-.991-.048-.007-.048-.001zm.709-.993-.939.344.024.065.032.06zm-23.93-.596c-.277.003-.541.01-.747.02-.1.005-.203.011-.292.022-.043.004-.1.012-.162.025-.01.002-.201.035-.387.158L5.317 9.03a1 1 0 0 1-.312.134c-.024.005-.034.005-.02.004q.04-.005.167-.012c.168-.008.403-.014.673-.018zm-1.812.428c-.185.228-.28.482-.315.568l1.854.752.04-.097c.006-.01-.002.008-.025.037zm-.315.568-.041.098 1.78.913c.053-.104.093-.206.115-.259zm-.049.113c-.273.556-1.013.864-1.588.67l-.642 1.893c1.54.522 3.316-.237 4.025-1.68zm-1.616.66c-.552-.169-.96-.792-.895-1.363l-1.987-.228c-.176 1.533.827 3.054 2.297 3.503zm-.89-1.422c.034-.607.656-1.181 1.287-1.166l.05-2C.772 4.28-.785 5.66-.88 7.377zM2.39 6.32a.5.5 0 0 1-.374-.193.43.43 0 0 1-.081-.325l1.977.304C4.035 5.3 3.48 4.36 2.468 4.32zm-.382-.77-.083.192 1.84.786.073-.17zm.053-.035a.5.5 0 0 1 .204-.151q.017-.005-.02.003l-.117.016.245 1.985c.13-.016.814-.053 1.256-.613zm.067-.132-.033.004.248 1.984.03-.003zm-.043.005C.918 5.546-.019 6.68.161 7.912l1.98-.29c-.003-.018-.001-.074.055-.146a.27.27 0 0 1 .157-.106zM.155 7.856c.092 1.041.938 1.96 2.03 2.063l.189-1.991a.24.24 0 0 1-.141-.08.3.3 0 0 1-.086-.17zm1.981 2.057c.991.143 1.913-.417 2.338-1.214L2.71 7.758a.36.36 0 0 1-.145.142.24.24 0 0 1-.143.034zm2.383-1.31q.016-.035.028-.07L2.691 7.79l-.026.063zm.028-.07c.031-.076.054-.133.078-.186q.034-.076.055-.111c.028-.047.029-.032-.005-.01L3.607 6.534c-.6.378-.823 1.022-.916 1.255zm.245-.394c-.112.096-.199.114-.149.098.027-.009.086-.024.185-.041.197-.034.467-.06.785-.08.63-.04 1.356-.044 1.87-.044l.002-2c-.52 0-1.298.004-1.996.048a10 10 0 0 0-.998.105c-.149.025-.307.059-.456.106-.126.04-.349.122-.545.29zm3.657-.807a1.5 1.5 0 0 1 .549-.783L7.785 4.96a3.5 3.5 0 0 0-1.267 1.853zm.539-.775c.427-.318 1.028-.335 1.398-.087l1.115-1.66c-1.158-.777-2.684-.618-3.706.141zm2.95-1.026c-.014-.12-.039-.23-.05-.28l-1.954.426.014.064.001.008zm-.05-.28-.015-.075c-.002-.012 0 0 0 .025a.63.63 0 0 1-.097.326l-1.685-1.074c-.352.55-.174 1.146-.157 1.224zm-.062.192a.5.5 0 0 1-.266.25c-.04.015-.049.009-.023.01l.111-1.997a2 2 0 0 0-.774.109 1.5 1.5 0 0 0-.832.722zm-.26.262q.51.011 1.008.017l.027-2a77 77 0 0 1-.982-.017zm1.008.017c.458.007.903.013 1.345.03l.075-2c-.47-.017-.939-.023-1.393-.03zm1.32.028a.56.56 0 0 1-.392-.203c-.017-.022-.018-.03-.006-.003.013.028.027.062.053.128l1.862-.732c-.038-.095-.137-.365-.314-.6a1.45 1.45 0 0 0-1.077-.586zm-.345-.078.033.083 1.853-.753-.024-.062zm.94.707q.546.01 1.086.017l.028-2q-.54-.007-1.075-.017zm1.086.017c.693.01 1.373.019 2.052.042l.069-1.999c-.703-.024-1.404-.034-2.093-.043zm2.114.042a.4.4 0 0 1-.141-.022.3.3 0 0 1-.065-.032l.016.017q.023.024.055.07L19.2 5.333c-.197-.284-.706-.918-1.566-.894zm1.268.278c.472-.337 1.181-.323 1.633.027l1.224-1.582c-1.157-.896-2.836-.917-4.018-.073zm3.107-.256q.002.001-.016.014a.2.2 0 0 1-.098.027l-.054-2c-.706.02-1.262.446-1.555.942zm-.164.041q.806.017 1.604.029l.031-2q-.797-.01-1.59-.029zm1.604.029q.798.012 1.59.029l.045-2q-.805-.017-1.604-.029zm2.592-.77c.01-.047.019-.037-.017.009a.548.548 0 0 1-.41.186l.019-2a1.47 1.47 0 0 0-1.18.575 2 2 0 0 0-.371.828zm-.392.195c.407-.01.818-.001 1.258.01l.049-2c-.432-.01-.893-.022-1.358-.01zm1.258.01c.367.009.756.018 1.147.014l-.024-2a30 30 0 0 1-1.074-.014zm1.157.013c-.004 0-.046.003-.117-.03a.6.6 0 0 1-.301-.35l1.895-.637c-.144-.431-.459-.69-.746-.825a1.75 1.75 0 0 0-.774-.157zm-.343-.21a.5.5 0 0 1-.059-.243c.001-.012.002-.01-.004.016l-.033.12 1.922.554c.042-.147.275-.789-.08-1.424zm-.096-.107c-.029.1-.106.35-.114.623l1.999.058c0 .022-.004.027.002.002a1 1 0 0 1 .035-.13zm1.176 1.61c.4-.123.87.152.963.496l1.93-.523c-.407-1.506-2.068-2.315-3.475-1.887zm1.887 1.234c.3.012.45.02.524.026l.035.003-.028-.005-.016-.003.436-1.952c-.147-.033-.303-.044-.868-.068zm.515.021c.16.036.321.041.886.057l.057-1.999a24 24 0 0 1-.54-.019c-.04-.002-.042-.003-.029-.001q.015 0 .04.006l.022.004zm.908.058h.213l-.015-2h-.185zm.213 0c.254-.003.41-.001.542.02.115.02.147.046.158.055L34.38 7.14c-.71-.61-1.627-.56-2.017-.558zm.817.161c-.03-.018-.025-.03.005.022q.023.037.059.117c.025.056.048.115.08.194l1.856-.744c-.096-.242-.324-.895-.932-1.28zm.144.333.03.072 1.853-.75-.026-.066zm.074.168c.433.81 1.371 1.38 2.379 1.235l-.286-1.98c-.085.013-.249-.047-.329-.197zm2.33 1.241c1.11-.105 1.971-1.04 2.066-2.1l-1.993-.177a.34.34 0 0 1-.097.195.28.28 0 0 1-.164.09zm2.059-2.043c.183-1.253-.77-2.406-1.957-2.567l-.268 1.982c.044.006.12.04.182.12.063.08.068.147.064.175zm-1.967-2.569q-.018 0-.034-.004l-.245 1.985.03.004zm-.034-.004-.123-.016-.024-.005a.485.485 0 0 1 .196.145l-1.569 1.241c.447.566 1.138.603 1.275.62zm.184.352q-.04-.095-.085-.197l-1.83.807.076.176zm-.011.055a.4.4 0 0 1-.079.31.48.48 0 0 1-.362.188l-.077-1.999c-1.023.04-1.584.989-1.46 1.804zm-.455.498c.667-.017 1.324.588 1.36 1.232l1.996-.11c-.097-1.753-1.688-3.164-3.405-3.121zm1.364 1.29c.07.604-.361 1.26-.944 1.44l.585 1.912c1.501-.46 2.526-2.014 2.346-3.58zm-.973 1.448c-.607.206-1.386-.118-1.675-.705l-1.795.882c.725 1.474 2.539 2.25 4.112 1.718zm-1.682-.72a1 1 0 0 1-.044-.103l-1.854.751c.022.055.064.16.118.265zm-.044-.103c-.037-.09-.133-.347-.32-.578l-1.554 1.26c-.022-.028-.029-.044-.023-.033l.015.034.028.068zm-.544-.782c-.434-.288-.923-.251-1.013-.25l.03 2h.078q.022 0 .004-.001a.5.5 0 0 1-.205-.082zm-1.013-.25h-.038l.019 2h.048zm-.013 0-.287-.006-.08-.003a1 1 0 0 1 .116.02c.013.003.153.034.303.13a.998.998 0 0 1-.253 1.794c-.031.01-.059.015-.044.012l-.45-1.949-.019.005a1 1 0 0 0-.187.064 1 1 0 0 0-.46.419 1 1 0 0 0 .328 1.336c.152.098.295.129.313.133.08.02.15.026.169.028.097.009.262.013.519.017zm-.245 1.947.02-.005.053-.014a1.007 1.007 0 0 0 .651-.59 1 1 0 0 0-.464-1.26c-.13-.068-.247-.09-.266-.095-.071-.014-.133-.02-.151-.02a9 9 0 0 0-.51-.015l-.024 2 .287.005.088.003-.024-.002-.074-.013a.997.997 0 0 1-.08-1.931c.032-.01.06-.015.045-.012zm-.64-1.998-.078-.003-.08 1.998.08.003zm-.078-.003c-.268-.011-.64-.029-1.022.023L30.9 9.61c.179-.024.374-.019.672-.007zm-1.832.685a.8.8 0 0 1-.65.508l.216 1.989a2.8 2.8 0 0 0 2.323-1.84zm-.765.528c.044-.01.069-.007.057-.008l-.04-.005-.09-.014-.322 1.974c.12.02.466.088.842.002zm-.074-.027c-.093-.015-.31-.054-.546-.042l.1 1.997c-.013.001-.013 0 .01.002l.115.017zm-1.485 1.103c.025.172.073.335.097.421l1.924-.546a2 2 0 0 1-.043-.168zm.097.421c.019.065.03.104.038.14l.009.041c0-.004-.003-.03.004-.072a.5.5 0 0 1 .049-.14l1.752.964c.358-.65.116-1.324.072-1.479zm.092-.016a.5.5 0 0 1 .237-.227.35.35 0 0 1 .174-.032l-.177 1.992c.49.044 1.184-.137 1.534-.798zm.366-.262a36 36 0 0 0-1.184-.025l-.02 2c.386.004.753.008 1.118.023zm-1.184-.025a30 30 0 0 1-1.286-.032l-.107 1.997c.468.026.933.03 1.372.035zm-1.265-.03c.094.007.193.04.28.098.08.054.121.111.138.137.015.024.016.032.009.012a1 1 0 0 1-.025-.093l-1.952.436c.036.162.11.455.287.728.197.306.56.635 1.114.676zm-.572-.628a92 92 0 0 1-1.6-.022l-.04 2c.538.01 1.086.021 1.636.022zm-1.6-.022-.953-.017-.027 2q.468.006.94.017zm-.861-.011c-.176-.019-.345-.014-.439-.012l.042 2c.117-.003.158-.002.186 0zm-.439-.012a4 4 0 0 1-.19-.001c-.015-.002.022 0 .074.03l-.986 1.74c.473.267.977.234 1.144.23zm-.188-.008c.057.026.082.054.072.044l-.031-.036-.064-.081-1.586 1.218c.086.113.342.472.768.67zm-1.408-.27c-.452.332-1.162.317-1.606-.037l-1.248 1.563c1.143.912 2.85.959 4.038.086zm-3.082.221c-.015.024-.023.026-.008.016a.3.3 0 0 1 .164-.045l-.008 2c.782.004 1.306-.516 1.557-.925zm.132-.028a32 32 0 0 1-1.433-.015l-.05 2c.49.012 1.004.025 1.523.014zm-1.433-.015c-.58-.014-1.198-.03-1.82-.006l.079 1.999c.547-.022 1.1-.008 1.691.007zm-2.775.896a.24.24 0 0 1 .063-.133.534.534 0 0 1 .408-.18l-.054 2c.518.014.927-.232 1.184-.542.24-.29.358-.637.389-.95zm.47-.312q-.548-.013-1.084-.019l-.026 2q.535.007 1.056.019zm-1.084-.019a55 55 0 0 1-1.431-.031l-.078 1.999c.5.02 1 .026 1.483.032zm-1.46-.032a.54.54 0 0 1 .31.107.5.5 0 0 1 .155.188.33.33 0 0 1-.013.29L9.97 9.42a1.68 1.68 0 0 0-.038 1.412c.2.46.662.902 1.35.91zm-.846-.783c-.483.215-1.037.172-1.395-.075l-1.133 1.648c1.016.699 2.32.707 3.34.256zm-1.44-.103c-.262-.161-.49-.489-.604-.926l-1.935.505c.203.777.668 1.62 1.495 2.126zM7.378 7.185a7 7 0 0 1-.665 0l-.064 1.998c.247.008.552.018.865-.003zm-.665 0c-.198-.007-.432-.015-.672-.007l.062 1.999c.167-.006.338 0 .546.006zm-.698-.006a.4.4 0 0 1 .142.02l-.688 1.879c.21.076.435.11.66.097zm2.517-1.436c-.6.384-.938 1.01-1.027 1.627-.09.62.056 1.33.56 1.872l1.463-1.364c-.024-.025-.062-.096-.044-.22.018-.125.082-.202.125-.23zm2.28-.144a2.34 2.34 0 0 0-2.293.152L9.621 7.42a.34.34 0 0 1 .315-.022zm.748 3.63c.541-.594.654-1.375.51-2.025s-.573-1.3-1.288-1.619l-.815 1.826c.042.02.12.087.15.227.031.138-.01.216-.034.242zm-3.546-.047c.461.582 1.155.843 1.795.846.643.002 1.35-.258 1.812-.874l-1.6-1.2c-.017.024-.078.074-.205.074-.13 0-.209-.055-.236-.09zM11.07 5.95a9.6 9.6 0 0 1-.062 3.539l1.958.406c.292-1.406.315-2.867.075-4.28zm2.405-1.144c-.472-.004-.93-.009-1.388-.023l-.063 1.999c.483.015.964.02 1.433.024zm.9 5.122c.301-1.416.317-2.875.077-4.29l-1.972.336c.2 1.176.185 2.38-.06 3.539zm-1.855.772c.292.003.562.006.829.02l.097-1.998c-.31-.016-.619-.019-.905-.022zm-.559-.009c.19.005.379.007.559.01l.021-2-.529-.009zm2.724-.567c.444-.008.891.001 1.362.012l.043-2c-.463-.01-.95-.02-1.44-.012zm-.994-2.206c-.005.4-.01.787-.023 1.172l1.999.068c.014-.41.019-.82.023-1.216zm.035-1.518c-.024.515-.03 1.027-.035 1.518l2 .024c.005-.498.011-.975.033-1.449zm3.13-.912c-.707-.01-1.405-.02-2.1-.04l-.062 1.998c.716.022 1.43.032 2.135.041zm.528.007-.527-.007-.028 2 .526.007zm.97 2.321c.01-.43.02-.88.015-1.331l-2 .02c.005.414-.005.831-.014 1.267zm-.014 1.32c-.005-.43.004-.865.014-1.32l-2-.044c-.01.449-.02.918-.014 1.39zm-2.293 1c.42.009.861.018 1.304.014l-.021-2c-.406.004-.813-.005-1.24-.014zm2.34-4.155a2.35 2.35 0 0 0-.904 2.395l1.953-.433a.35.35 0 0 1 .123-.342zm3.103.34c-.774-.906-2.194-1.038-3.126-.323l1.218 1.586a.3.3 0 0 1 .204-.043c.102.01.162.053.183.079zm.365 2.544c.437-.875.214-1.92-.392-2.574L19.997 7.65c.036.038.07.102.082.177a.24.24 0 0 1-.012.145zm-1.818 1.309c.702-.1 1.507-.536 1.85-1.379l-1.853-.753c-.003.008-.017.037-.07.073a.5.5 0 0 1-.208.078zM17.48 8.359c.232 1.14 1.376 1.98 2.555 1.815l-.278-1.98c-.033.004-.106-.004-.19-.064a.3.3 0 0 1-.128-.17zm3.692-1.775c.002.497-.008.995-.019 1.508l2 .041c.01-.509.021-1.033.019-1.559zm2.167-.986q-.575-.013-1.158-.019l-.019 2q.565.007 1.14.018zm1.48.02q-.732-.005-1.48-.02l-.038 2c.498.009 1.005.018 1.513.02zm.996 2.54c.013-.5.028-1.042 0-1.59l-1.997.099c.023.46.011.926-.002 1.438zM25.8 9.261c-.006-.357.004-.718.014-1.105l-2-.053c-.01.38-.02.784-.013 1.192zm-2.288 1c.42.01.856.02 1.294.017l-.011-2c-.406.002-.815-.006-1.24-.016zm-1.366-.014c.447-.005.897.004 1.366.015l.044-2c-.464-.01-.947-.02-1.434-.015zm-.994-2.156q-.012.568-.018 1.15l2 .012q.005-.553.018-1.12zm4.932 2.844c.398-.006.801.003 1.227.013l.047-2c-.42-.01-.861-.02-1.306-.013zm-.92-5.16a10.1 10.1 0 0 0-.076 4.36l1.96-.4a8.1 8.1 0 0 1 .06-3.488zm1.276-.753-.27-.01-.067 1.999.262.01zm1.018.014c-.32.012-.647 0-1.018-.014l-.075 1.998c.358.014.759.03 1.166.015zm.977 4.741c-.203-1.15-.146-2.356.048-3.586l-1.976-.311c-.214 1.358-.296 2.802-.041 4.245zm-1.124 1.171.117.003.046-2-.116-.002zm.445-3.998c-.46.554-.443 1.251-.231 1.747.213.499.716 1.004 1.46 1.03l.068-2a.35.35 0 0 1 .311.184c.014.033.052.17-.07.318zm2.91.44c-.247-.677-.852-1.003-1.39-1.06-.526-.055-1.153.128-1.552.66l1.602 1.198c-.095.128-.212.136-.258.131a.36.36 0 0 1-.279-.24zM28.89 9.72c.69.09 1.265-.265 1.58-.7.32-.44.483-1.115.143-1.754l-1.766.938a.35.35 0 0 1 .005-.36c.028-.038.125-.13.3-.107z" mask="url(#a)"/><path fill="#000" d="M14.947 12.943c.175-.343.822-.311.942.053.233.672.38 1.364.597 2.04.123.618.404 1.233.937 1.666.392.351.926.522 1.403.764 1.294.668 2.397 1.65 3.083 2.831.59-.78.765-1.81.408-2.7-.117-.354-.334-.672-.52-1-.093-.351.277-.677.674-.595l2.13 1.044c1.134.549 2.085 1.392 2.677 2.409.844 1.386.92 3.056.492 4.561-.197.525-.365 1.066-.67 1.553l.092-.018c.822-.61 1.462-1.412 1.831-2.304.104-.293.175-.593.286-.883.14-.291.643-.344.862-.096.157.213.256.454.373.685.35.734.78 1.442 1.034 2.209.26.92.248 1.901-.047 2.814 1.207.535 2.409 1.235 3.076 2.306.212.38.36.8.36 1.227.011.29-.313.524-.632.488H3.658c-.318.035-.643-.198-.63-.488.01-.779.457-1.505 1.059-2.055.835-.764 1.894-1.313 2.993-1.727.005-.45-.025-.903.056-1.348.095-.636.405-1.229.49-1.866.138-.822-.089-1.653-.42-2.418-.203-.578-.439-1.147-.643-1.725-.096-.28-.339-.608-.106-.884.088-.14.274-.159.43-.2.805.162 1.59.384 2.391.56.646.146 1.273.38 1.783.77 1.092.787 1.654 2.1 1.422 3.329-.04.22-.13.45-.043.67a.73.73 0 0 0 .372.29c.318.134.736-.043.839-.338.179-.436.264-.897.424-1.339a4.6 4.6 0 0 0 .251-2.005c-.094-.817-.445-1.603-.985-2.27a2.74 2.74 0 0 1-.515-2.421c.141-.537.501-.994.786-1.475.45-.702.881-1.414 1.335-2.114m-.944 3.444a1.92 1.92 0 0 0-.048 1.606c.184.401.534.72.735 1.113a5.03 5.03 0 0 1 .578 3.817c-.189.597-.353 1.2-.554 1.794-.136.547-.65 1.014-1.275 1.124a1.98 1.98 0 0 1-1.35-.208c-.477-.268-.764-.763-.764-1.258.017-.266.119-.52.14-.784.083-.992-.51-2.002-1.488-2.499-.695-.348-1.503-.431-2.254-.642.24.722.54 1.427.791 2.146a4.88 4.88 0 0 1-.169 3.278c-.323 1.074-.28 2.248.19 3.284.273.704.813 1.285 1.282 1.892 6.198.007 12.395 0 18.594.003.38-.567.766-1.131 1.149-1.697.357-.527.75-1.046.944-1.642.205-.657.26-1.355.107-2.026-.11-.62-.457-1.179-.74-1.748-.47.86-1.095 1.666-1.935 2.28-.518.378-1.089.699-1.657 1.017-.38.204-.891-.19-.73-.552.267-.712.603-1.403.88-2.111.457-.982.653-2.075.47-3.128-.16-1.069-.755-2.079-1.64-2.819-.533-.463-1.197-.784-1.858-1.08.434 1.362-.049 2.903-1.173 3.903-.138.142-.355.235-.568.18-.264-.052-.37-.294-.466-.488-.6-1.227-1.677-2.264-3-2.908-.307-.158-.643-.269-.935-.45a3.7 3.7 0 0 1-1.39-1.369c-.341-.623-.442-1.316-.655-1.977-.392.656-.819 1.293-1.211 1.95M6.235 29.154c.382.022.766.008 1.148.01a3.6 3.6 0 0 0-.135-.488c-.345.147-.677.316-1.013.478m24.89-.314a4 4 0 0 0-.177.324q.419.006.838-.005-.334-.154-.66-.32M4.837 30.11c-.281.277-.515.59-.665.94q2.172.007 4.344 0a7 7 0 0 1-.658-.933c-1.007-.016-2.014-.004-3.02-.007m25.445 0c-.193.32-.427.62-.624.937 1.388.011 2.777.006 4.166.003a2.9 2.9 0 0 0-.658-.94q-1.442-.002-2.884 0M30.995 17.486c.295-.06.642.177.614.497.004.563.008 1.126-.001 1.689-.009.344-.43.587-.738.435-.18-.103-.342-.289-.324-.51-.002-.541-.007-1.084.003-1.626a.52.52 0 0 1 .445-.485"/><path fill="#000" d="M9.702 14.83c.295-.06.642.177.614.497.004.562.008 1.126-.001 1.689-.008.344-.43.587-.738.435-.18-.103-.342-.29-.324-.51-.002-.542-.007-1.084.004-1.626a.52.52 0 0 1 .445-.485M32.824 18.11c.302-.24.798-.03.836.354.022.573.013 1.149.005 1.722-.003.239-.192.407-.39.506-.283.032-.614-.113-.648-.425-.043-.463-.005-.929-.02-1.392.003-.263-.033-.596.217-.765M23.859 24.705c.257-.11.578.1.56.385a3.6 3.6 0 0 1-.406 1.502c-.129.271-.582.277-.718.01a.4.4 0 0 1-.011-.418c.181-.361.255-.761.323-1.156a.42.42 0 0 1 .252-.323M32.639 22.125c.078-.368.602-.495.857-.23.255.25.163.644.169.964-.003.242-.196.41-.397.507-.263.019-.576-.096-.633-.385a2.6 2.6 0 0 1 .004-.857M19.277 25.688c.091-.254.378-.412.639-.316a.47.47 0 0 1 .313.471q.005.69 0 1.377c.02.314-.338.591-.634.465-.148-.05-.241-.183-.316-.312-.003-.561 0-1.123-.002-1.685M22.782 27c.33-.178.748.23.554.56-.151.19-.291.468-.569.475-.296.024-.546-.331-.392-.595.113-.163.232-.338.407-.44M9.858 27.392c.22-.15.565.017.562.288-.024.59.211 1.179.623 1.6.165.14.164.425-.013.554a.353.353 0 0 1-.48-.01 2.85 2.85 0 0 1-.864-2.14.36.36 0 0 1 .172-.292M17.371 27.289c-.037-.327.318-.616.628-.495.186.048.321.229.321.42.008.681 0 1.363.003 2.044-.111.448-.822.468-.933.01-.045-.657-.008-1.32-.019-1.98M19.58 28.699c.295-.139.67.137.646.46 0 .339.016.68-.01 1.018-.024.18-.183.292-.323.385-.26.042-.56-.09-.61-.372-.02-.394-.003-.789-.006-1.183.072-.127.157-.257.302-.308"/></svg>