<svg xmlns="http://www.w3.org/2000/svg" width="58" height="49" fill="none"><path fill="#48FDBC" d="M21.746 29.307c.547-.828 1.141-1.635 1.688-2.463.295.835.436 1.711.912 2.498a5 5 0 0 0 1.935 1.732c.407.228.875.368 1.302.568 1.843.813 3.345 2.124 4.179 3.674.135.246.282.552.65.618a.89.89 0 0 0 .79-.227c1.566-1.264 2.238-3.212 1.633-4.934.922.374 1.846.78 2.59 1.366 1.231.935 2.059 2.211 2.283 3.562.255 1.331-.018 2.713-.654 3.953-.386.896-.854 1.769-1.226 2.669-.225.457.488.955 1.016.697.791-.402 1.586-.808 2.308-1.286 1.17-.775 2.04-1.794 2.695-2.88.394.718.878 1.424 1.03 2.209.214.847.138 1.73-.148 2.56-.27.754-.818 1.41-1.315 2.076-.533.715-1.071 1.428-1.6 2.145-8.634-.005-17.265.004-25.898-.005-.653-.766-1.405-1.501-1.786-2.391-.653-1.31-.714-2.794-.263-4.15.598-1.322.692-2.785.235-4.143-.35-.91-.767-1.8-1.102-2.712 1.047.266 2.172.371 3.14.811 1.361.628 2.188 1.904 2.072 3.158-.03.334-.171.655-.196.99 0 .627.4 1.252 1.065 1.59a3 3 0 0 0 1.88.264c.87-.139 1.587-.73 1.776-1.42.28-.751.509-1.513.772-2.268.444-1.618.173-3.362-.805-4.824-.281-.497-.768-.9-1.024-1.407a2.23 2.23 0 0 1 .066-2.03m14.84 8.46c-.236.078-.41.255-.446.458-.12.56-.25 1.126-.57 1.639-.126.184-.133.416.018.593.242.379 1.042.37 1.27-.015.422-.659.68-1.39.72-2.13.03-.402-.538-.7-.992-.545m-7.14 2.782c.002.703-.002 1.407.002 2.11.117.161.262.327.494.39.462.158 1.02-.189.988-.582q.008-.862 0-1.723c.018-.254-.181-.513-.488-.59-.406-.12-.855.077-.996.395m5.235.472c-.31.144-.52.393-.72.624-.273.374.17.877.693.843.491-.01.739-.403 1.006-.674.343-.466-.396-1.046-.979-.793m-18.974.964c-.198.103-.35.277-.346.472-.063 1.275.59 2.563 1.737 3.446a.84.84 0 0 0 .963.017c.357-.208.359-.669.027-.893-.827-.678-1.3-1.626-1.251-2.577.006-.439-.688-.705-1.13-.465m10.767.564c.016.826-.041 1.655.03 2.479.173.572 1.281.547 1.456-.014-.006-.853.008-1.706-.005-2.558 0-.24-.211-.466-.501-.527-.485-.151-1.038.211-.98.62m3.446 1.767c-.226.064-.358.227-.47.386.004.493-.023.988.01 1.48.075.354.543.52.95.467.218-.117.467-.256.504-.482.04-.424.015-.85.016-1.276.038-.403-.548-.749-1.01-.575"/><path fill="#F7F7F7" d="M10.031 43.893c.51-.277 1.01-.567 1.533-.817.084.273.155.552.204.835-.579-.004-1.158.02-1.737-.018M47.663 43.354q.495.28 1 .546c-.423.014-.846.014-1.268.009.08-.19.172-.374.268-.556M7.916 45.527c1.522.004 3.045-.016 4.566.01.277.563.631 1.085.995 1.596q-3.282.014-6.567 0a5.2 5.2 0 0 1 1.006-1.607M46.39 45.527c1.453-.001 2.906-.004 4.36.001.425.471.77 1.01.995 1.606-2.1.005-4.2.015-6.3-.005.3-.543.652-1.055.945-1.602"/><path fill="#000" d="M22.69.816c.394-.152.911.018 1.07.333.206.318-.147.632-.09.96-.013.35.38.583.537.888.49.765.315 1.72-.356 2.384-.278.256-.083.635-.354.893-.296.314-.973.331-1.27.01-.264-.215-.214-.536-.162-.803.083-.43.417-.787.688-1.154.22-.331.075-.727-.205-1.008-.473-.525-.653-1.201-.44-1.824.098-.262.238-.558.582-.679M29.038.934c.376-.319 1.115-.178 1.313.21.15.36-.163.708-.087 1.07.104.36.486.615.639.958.22.504.213 1.06 0 1.565-.158.33-.49.587-.639.92-.007.24-.008.512-.272.677-.406.349-1.21.162-1.367-.279-.11-.517.116-1.04.501-1.46.314-.316.4-.776.122-1.122-.283-.362-.615-.73-.635-1.17-.039-.467-.011-1.007.425-1.369M35.477 1.05c.308-.393 1.098-.385 1.393.014.32.323-.08.681-.036 1.03-.003.302.27.538.448.79.391.478.436 1.085.285 1.627-.128.502-.733.85-.747 1.378-.021.335-.401.665-.853.625a.825.825 0 0 1-.787-.526c.028-.393.056-.811.331-1.153.176-.22.366-.433.49-.675.163-.627-.639-1.01-.732-1.592a1.82 1.82 0 0 1 .208-1.518"/><path fill="#fff" d="M14.08 10.661a2.01 2.01 0 0 1 1.959-.13c1.136.507 1.52 2.159.671 3.09-.72.96-2.307.934-3.042.008-.794-.852-.556-2.349.411-2.968M18.564 9.457a94 94 0 0 0 2.119.036 15.7 15.7 0 0 1-.103 5.882c-.706-.034-1.412-.025-2.12-.043.4-1.928.433-3.934.104-5.875M22.49 14.477c.045-1.34.023-2.684.085-4.024 1.324.041 2.65.054 3.974.073.014 1.33-.06 2.66-.043 3.99-1.34.014-2.677-.063-4.017-.04M28.96 10.971c.775-.595 2.004-.475 2.64.27.527.569.699 1.473.348 2.176-.264.648-.928 1.054-1.6 1.15-.969.136-1.965-.587-2.16-1.54a2.02 2.02 0 0 1 .772-2.056M33.767 10.656c1.325.012 2.65.054 3.975.057.066 1.332-.046 2.667-.023 4-1.336.008-2.671-.063-4.007-.047.008-1.337.061-2.674.054-4.01M39.625 15.697a13.6 13.6 0 0 1 .102-5.897c.68.023 1.36.06 2.041.036-.306 1.944-.41 3.935-.066 5.884-.693-.016-1.386-.034-2.078-.023M43.316 12.175c.455-.61 1.535-.524 1.807.217.373.703-.292 1.594-1.066 1.492-.803-.027-1.25-1.098-.742-1.71"/><mask id="a" fill="#fff"><path fill-rule="evenodd" d="M9.164 12.99c-.816.01-1.48.036-1.558.088-.113.14-.18.306-.247.472-.037.09-.074.182-.118.268-.739 1.502-2.628 2.304-4.218 1.765-1.518-.465-2.579-2.075-2.397-3.656.096-1.746 1.734-3.215 3.471-3.172.49.019.814.488.743.952q-.06.134-.117.272c-.22.278-.567.32-.894.361l-.047.006c-.971.131-1.749 1.106-1.605 2.086.078.88.81 1.654 1.695 1.737.797.115 1.6-.344 1.973-1.044l.04-.1c.179-.444.365-.91.786-1.175.504-.433 3.473-.464 5.024-.463.215-.789.715-1.48 1.363-1.974 1.089-.809 2.687-.94 3.835-.171-.01-.086-.03-.175-.049-.264-.053-.243-.107-.491.035-.713.18-.354.624-.449.99-.428q.747.018 1.494.026c.686.01 1.372.019 2.058.045.47.03.64.461.787.832l.043.11q.81.014 1.623.025c1.038.014 2.077.029 3.115.064.47-.013.826.338 1.075.697 1.243-.887 3.037-.861 4.246.074.227-.384.629-.664 1.083-.677q1.2.026 2.4.044t2.399.043c.087-.427.341-.912.845-.907.655-.017 1.31-.001 1.965.015.557.013 1.114.027 1.67.02.327-.007.713.11.828.452.181.323.086.655-.01.99-.055.187-.11.376-.115.564 1.357-.413 2.959.402 3.335 1.791.907.038.98.054 1.04.068.06.013.106.023 1.046.05h.299c.713-.006 1.474-.012 2.042.475.433.274.626.755.809 1.212l.041.103c.386.722 1.214 1.196 2.035 1.077.912-.086 1.668-.884 1.749-1.792.148-1.01-.654-2.015-1.656-2.151l-.048-.006c-.337-.041-.695-.086-.922-.372l-.12-.28c-.074-.479.26-.963.765-.982 1.792-.045 3.48 1.47 3.58 3.27.187 1.63-.906 3.292-2.473 3.77-1.639.556-3.587-.27-4.348-1.82q-.067-.134-.122-.276c-.07-.171-.139-.343-.255-.487-.2-.132-.44-.129-.67-.125h-.065c-.807-.012-.742-.027-.681-.041s.117-.027-.684-.037l-.119-.005c-.425-.017-.85-.034-1.273.023-.332.954-1.232 1.655-2.233 1.763-.232.053-.46.016-.688-.02a2.4 2.4 0 0 0-.505-.047c.022.144.064.293.106.443.105.366.211.742.021 1.088-.16.304-.515.434-.844.405-.576-.025-1.153-.03-1.73-.036a46 46 0 0 1-1.997-.05c-.485-.036-.66-.535-.751-.939-.81-.001-1.62-.017-2.43-.033q-.713-.015-1.423-.025c-.154-.017-.312-.013-.47-.01-.327.007-.655.014-.947-.151-.253-.118-.428-.342-.594-.558-1.232.905-3.048.86-4.24-.093-.226.368-.6.676-1.053.674a49 49 0 0 1-2.22-.022c-.88-.022-1.76-.044-2.639-.01-.043.442-.333.901-.828.888q-.804-.02-1.608-.029c-.73-.01-1.461-.019-2.19-.047-.649-.007-.909-.79-.647-1.306-1.128.5-2.525.462-3.558-.248-.818-.502-1.338-1.38-1.577-2.293-.383.026-.766.014-1.15.002-.304-.01-.61-.02-.914-.01a1 1 0 0 1-.407-.065m4.502.64c-.795-.852-.556-2.349.41-2.967a2.01 2.01 0 0 1 1.96-.131c1.137.508 1.52 2.16.672 3.09-.72.96-2.308.934-3.042.008m4.795 1.7c.4-1.927.432-3.933.103-5.874.707.022 1.413.029 2.12.036a15.7 15.7 0 0 1-.103 5.882c-.434-.021-.869-.026-1.303-.03q-.408-.004-.817-.013m6.134-.835a53 53 0 0 0-2.105-.018c.02-.597.027-1.195.034-1.793.009-.744.018-1.487.052-2.23 1.06.033 2.122.047 3.183.062l.79.01c.008.652-.007 1.302-.021 1.953-.015.679-.03 1.358-.022 2.037-.637.007-1.274-.007-1.911-.02m3.593-1.467a2.02 2.02 0 0 1 .772-2.056c.775-.595 2.003-.475 2.64.27.527.568.698 1.472.347 2.176-.264.647-.927 1.054-1.6 1.149-.968.136-1.965-.586-2.16-1.539m5.551-.07c.016-.768.032-1.536.028-2.304q.862.009 1.726.027c.75.014 1.5.028 2.25.03.037.757.017 1.516-.003 2.274-.016.575-.03 1.15-.021 1.726-.635.003-1.27-.01-1.904-.024a62 62 0 0 0-2.103-.023q.007-.853.027-1.706m7.788 2.76c-.635-.015-1.27-.03-1.903-.02a13.6 13.6 0 0 1 .102-5.896l.4.014c.548.02 1.095.042 1.642.022-.306 1.944-.41 3.935-.066 5.884zm2.531-1.835c-.803-.027-1.25-1.099-.742-1.71.456-.61 1.536-.524 1.808.217.373.703-.292 1.594-1.066 1.493" clip-rule="evenodd"/></mask><path fill="#000" fill-rule="evenodd" d="M9.164 12.99c-.816.01-1.48.036-1.558.088-.113.14-.18.306-.247.472-.037.09-.074.182-.118.268-.739 1.502-2.628 2.304-4.218 1.765-1.518-.465-2.579-2.075-2.397-3.656.096-1.746 1.734-3.215 3.471-3.172.49.019.814.488.743.952q-.06.134-.117.272c-.22.278-.567.32-.894.361l-.047.006c-.971.131-1.749 1.106-1.605 2.086.078.88.81 1.654 1.695 1.737.797.115 1.6-.344 1.973-1.044l.04-.1c.179-.444.365-.91.786-1.175.504-.433 3.473-.464 5.024-.463.215-.789.715-1.48 1.363-1.974 1.089-.809 2.687-.94 3.835-.171-.01-.086-.03-.175-.049-.264-.053-.243-.107-.491.035-.713.18-.354.624-.449.99-.428q.747.018 1.494.026c.686.01 1.372.019 2.058.045.47.03.64.461.787.832l.043.11q.81.014 1.623.025c1.038.014 2.077.029 3.115.064.47-.013.826.338 1.075.697 1.243-.887 3.037-.861 4.246.074.227-.384.629-.664 1.083-.677q1.2.026 2.4.044t2.399.043c.087-.427.341-.912.845-.907.655-.017 1.31-.001 1.965.015.557.013 1.114.027 1.67.02.327-.007.713.11.828.452.181.323.086.655-.01.99-.055.187-.11.376-.115.564 1.357-.413 2.959.402 3.335 1.791.907.038.98.054 1.04.068.06.013.106.023 1.046.05h.299c.713-.006 1.474-.012 2.042.475.433.274.626.755.809 1.212l.041.103c.386.722 1.214 1.196 2.035 1.077.912-.086 1.668-.884 1.749-1.792.148-1.01-.654-2.015-1.656-2.151l-.048-.006c-.337-.041-.695-.086-.922-.372l-.12-.28c-.074-.479.26-.963.765-.982 1.792-.045 3.48 1.47 3.58 3.27.187 1.63-.906 3.292-2.473 3.77-1.639.556-3.587-.27-4.348-1.82q-.067-.134-.122-.276c-.07-.171-.139-.343-.255-.487-.2-.132-.44-.129-.67-.125h-.065c-.807-.012-.742-.027-.681-.041s.117-.027-.684-.037l-.119-.005c-.425-.017-.85-.034-1.273.023-.332.954-1.232 1.655-2.233 1.763-.232.053-.46.016-.688-.02a2.4 2.4 0 0 0-.505-.047c.022.144.064.293.106.443.105.366.211.742.021 1.088-.16.304-.515.434-.844.405-.576-.025-1.153-.03-1.73-.036a46 46 0 0 1-1.997-.05c-.485-.036-.66-.535-.751-.939-.81-.001-1.62-.017-2.43-.033q-.713-.015-1.423-.025c-.154-.017-.312-.013-.47-.01-.327.007-.655.014-.947-.151-.253-.118-.428-.342-.594-.558-1.232.905-3.048.86-4.24-.093-.226.368-.6.676-1.053.674a49 49 0 0 1-2.22-.022c-.88-.022-1.76-.044-2.639-.01-.043.442-.333.901-.828.888q-.804-.02-1.608-.029c-.73-.01-1.461-.019-2.19-.047-.649-.007-.909-.79-.647-1.306-1.128.5-2.525.462-3.558-.248-.818-.502-1.338-1.38-1.577-2.293-.383.026-.766.014-1.15.002-.304-.01-.61-.02-.914-.01a1 1 0 0 1-.407-.065m4.502.64c-.795-.852-.556-2.349.41-2.967a2.01 2.01 0 0 1 1.96-.131c1.137.508 1.52 2.16.672 3.09-.72.96-2.308.934-3.042.008m4.795 1.7c.4-1.927.432-3.933.103-5.874.707.022 1.413.029 2.12.036a15.7 15.7 0 0 1-.103 5.882c-.434-.021-.869-.026-1.303-.03q-.408-.004-.817-.013m6.134-.835a53 53 0 0 0-2.105-.018c.02-.597.027-1.195.034-1.793.009-.744.018-1.487.052-2.23 1.06.033 2.122.047 3.183.062l.79.01c.008.652-.007 1.302-.021 1.953-.015.679-.03 1.358-.022 2.037-.637.007-1.274-.007-1.911-.02m3.593-1.467a2.02 2.02 0 0 1 .772-2.056c.775-.595 2.003-.475 2.64.27.527.568.698 1.472.347 2.176-.264.647-.927 1.054-1.6 1.149-.968.136-1.965-.586-2.16-1.539m5.551-.07c.016-.768.032-1.536.028-2.304q.862.009 1.726.027c.75.014 1.5.028 2.25.03.037.757.017 1.516-.003 2.274-.016.575-.03 1.15-.021 1.726-.635.003-1.27-.01-1.904-.024a62 62 0 0 0-2.103-.023q.007-.853.027-1.706m7.788 2.76c-.635-.015-1.27-.03-1.903-.02a13.6 13.6 0 0 1 .102-5.896l.4.014c.548.02 1.095.042 1.642.022-.306 1.944-.41 3.935-.066 5.884zm2.531-1.835c-.803-.027-1.25-1.099-.742-1.71.456-.61 1.536-.524 1.808.217.373.703-.292 1.594-1.066 1.493" clip-rule="evenodd"/><path fill="#000" d="m9.164 12.99.362-.932-.18-.07-.195.002zm-1.558.088-.553-.833-.127.084-.096.12zm-.247.472.926.376zm-.118.268-.89-.456-.004.007-.004.008zm-4.218 1.765.321-.947-.014-.005-.014-.004zM.626 11.927l.993.114.004-.03.001-.029zm3.471-3.172.039-1h-.014zm.743.952.915.404.053-.121.02-.131zm-.117.272.784.62.083-.105.052-.123zm-.894.361.122.992zm-.047.006-.124-.993-.01.002zm-1.605 2.086.996-.089-.003-.028-.004-.028zm1.695 1.737.143-.99-.024-.003-.024-.002zm1.973-1.044.883.471.025-.046.02-.05zm.04-.1.93.372zm.786-1.175.534.845.061-.039.056-.047zm5.024-.463v1l.764.001.201-.738zm1.363-1.974-.597-.803-.01.008zm3.835-.171-.558.83 1.786 1.199-.234-2.138zm-.049-.264-.977.213zm.035-.713.843.538.026-.041.022-.044zm.99-.428-.056.998h.015l.015.001zm1.494.026-.013 1zm2.058.045.064-.998-.013-.001h-.013zm.787.832-.93.366zm.043.11-.926.376.248.61.659.013zm1.623.025-.014 1zm3.115.064-.035 1h.062zm1.075.697-.823.57.578.833.825-.59zm4.246.074-.612.791.897.694.576-.976zm1.083-.677.023-1h-.049zm2.4.044-.016 1zm2.399.043-.023 1 .835.02.167-.819zm.845-.907-.01 1h.036zm1.965.015-.024 1zm1.67.02.012 1h.01zm.828.452-.948.318.03.088.046.082zm-.01.99-.962-.278zm-.115.564-1-.03-.04 1.391 1.331-.404zm3.335 1.791-.966.261.192.708.732.03zm1.04.068.217-.976zm1.046.05-.029 1h.022zm.299 0 .008 1zm2.042.475-.651.76.055.047.062.039zm.809 1.212.928-.373zm.041.103-.927.375.02.05.025.046zm2.035 1.077-.094-.996-.025.003-.024.003zm1.749-1.792-.99-.145-.004.028-.002.028zm-1.656-2.151.134-.991-.01-.001zm-.048-.006.122-.992zm-.922-.372-.92.392.053.123.083.105zm-.12-.28-.99.151.021.131.054.121zm.765-.982-.025-1h-.014zm3.58 3.27-.999.056.002.03.003.029zm-2.473 3.77-.292-.955-.014.004-.015.005zm-4.348-1.82.897-.44-.003-.008-.004-.008zm-.122-.276-.926.376zm-.255-.487.776-.63-.096-.118-.127-.085zm-.67-.125.015 1zm-.065 0-.016 1h.026zm-.681-.041.224.974zm-.684-.037-.039 1h.027zm-.119-.005-.04 1zm-1.273.023-.134-.991-.609.082-.201.58zm-2.233 1.763-.108-.994-.058.006-.057.014zm-.688-.02.16-.988zm-.505-.047-.05-.999-1.1.055.161 1.09zm.106.443.962-.273zm.021 1.088-.876-.482-.004.007-.004.007zm-.844.405.089-.996-.023-.002h-.023zm-1.73-.036.01-1zm-1.997-.05-.074.998h.02zm-.751-.939.976-.218-.174-.78-.8-.002zm-2.43-.033-.02 1zm-1.423-.025-.106.994.046.005h.046zm-.47-.01.02 1zm-.947-.151.493-.87-.035-.02-.037-.018zm-.594-.558.793-.609-.596-.776-.79.58zm-4.24-.093.624-.781-.884-.707-.592.965zm-1.053.674.005-1h-.025zm-2.22-.022.025-1zm-2.639-.01-.038-.999-.872.034-.085.868zm-.828.888-.027 1zm-1.608-.029-.013 1zm-2.19-.047.039-1h-.029zm-.647-1.306.892.453 1.272-2.507-2.57 1.14zm-3.558-.248.567-.824-.022-.015-.022-.014zm-1.577-2.293.968-.253-.21-.8-.825.055zm-1.15.002-.031.999zm-.914-.01-.032-1h-.012l-.013.001zm4.506-2.392.539.842.006-.004.006-.004zm-.412 2.967.784-.621-.025-.031-.027-.03zm2.371-3.098-.437.9.015.006.015.007zm.672 3.09-.739-.675-.032.036-.03.038zm1.856-4.166.032-1-1.222-.038.204 1.205zm-.103 5.875-.98-.203-.242 1.172 1.196.03zm2.223-5.84.985-.167-.14-.825-.836-.007zm-.103 5.883-.049.999.85.041.177-.833zm-1.303-.03.01-1zm3.212-.867-1-.034-.036 1.053 1.053-.019zm2.105.018-.022 1zm-2.07-1.811.999.011zm.05-2.23.032-1-.984-.03-.046.984zm3.184.062.013-1zm.79.01 1-.01-.01-.975-.975-.014zm-.021 1.953 1 .022zm-.022 2.037.011 1 1.003-.01-.014-1.003zm2.454-3.544.586.81.011-.008.012-.009zm-.772 2.056.98-.2-.002-.008-.002-.008zm3.412-1.787-.76.65.012.015.014.014zm.347 2.177-.895-.447-.017.034-.014.036zm-1.6 1.149.14.99zm3.42-3.913.01-1-1.015-.01.005 1.015zm-.028 2.304 1 .02zm1.754-2.277.019-1zm2.25.03.998-.05-.047-.948-.949-.002zm-.003 2.274 1 .027zm-.021 1.726.006 1 1.011-.006-.017-1.011zm-1.904-.024-.022 1zm-2.103-.023-1-.007-.007 1.019 1.019-.012zm5.912 1.034-.98.2.166.813.83-.013zm1.902.02-.023 1zm-1.8-5.916.034-1-.813-.027-.193.79zm.4.014-.037 1zm1.642.022.988.155.188-1.199-1.213.044zm-.066 5.884-.023 1 1.22.028-.212-1.202zm1.614-3.55.77.64.016-.02.015-.02zm.742 1.71.13-.99-.048-.007-.048-.002zm1.066-1.492-.94.345.025.064.032.06zm-35.973-.4c-.412.006-.796.015-1.093.03a7 7 0 0 0-.403.03 2 2 0 0 0-.197.03c-.02.005-.216.04-.405.165L8.16 13.91a.9.9 0 0 1-.292.128l.015-.002q.082-.01.277-.02c.26-.013.614-.022 1.018-.027zm-2.321.458c-.223.275-.34.584-.398.726l1.853.752c.036-.09.057-.138.077-.18.018-.036.026-.044.021-.038zm-.398.726c-.04.098-.06.148-.081.188l1.78.912c.067-.132.12-.265.154-.348zm-.089.203c-.52 1.058-1.892 1.634-2.999 1.26l-.642 1.893c2.073.703 4.48-.325 5.436-2.27zm-3.027 1.25c-1.06-.324-1.823-1.487-1.697-2.586l-1.987-.228c-.237 2.062 1.121 4.121 3.099 4.727zm-1.692-2.645C1.69 10.79 2.86 9.725 4.073 9.755l.05-2C1.858 7.7-.247 9.571-.374 11.872zM4.06 9.754a.24.24 0 0 1-.18-.09.14.14 0 0 1-.028-.109l1.977.304c.148-.961-.516-2.058-1.692-2.103zm-.134-.45-.122.282 1.84.785q.058-.137.112-.26zm.013.054a.3.3 0 0 1 .06-.054c.017-.01.023-.011.008-.006a1 1 0 0 1-.1.022c-.054.01-.114.017-.2.027l.245 1.986c.24-.03 1.04-.081 1.556-.734zm-.232-.01-.048.006.248 1.984.045-.005zm-.058.007c-1.492.202-2.69 1.661-2.46 3.221l1.978-.289c-.058-.4.3-.89.75-.95zM1.18 12.52c.12 1.336 1.21 2.514 2.598 2.645l.189-1.991c-.381-.036-.757-.407-.794-.83zm2.55 2.64c1.257.18 2.448-.534 2.998-1.564l-1.765-.942c-.197.37-.612.574-.948.526zm3.042-1.66.042-.103-1.856-.744-.04.097zm.042-.103c.094-.235.158-.39.234-.517a.5.5 0 0 1 .157-.185l-1.069-1.69c-.74.467-1.026 1.267-1.178 1.648zm.508-.788c-.092.078-.145.08-.05.05q.105-.035.347-.078c.322-.055.748-.097 1.233-.127.966-.06 2.07-.068 2.842-.067l.002-2c-.778 0-1.935.007-2.967.07-.514.032-1.022.08-1.447.152a5 5 0 0 0-.618.144c-.17.055-.427.152-.645.338zm5.338-.96c.15-.553.511-1.065 1.004-1.44l-1.213-1.59c-.802.61-1.442 1.482-1.72 2.506zm.994-1.433c.792-.588 1.928-.65 2.681-.144l1.115-1.66c-1.541-1.035-3.602-.831-4.989.199zm4.233-1.083c-.017-.148-.048-.29-.066-.368l-1.954.426c.022.1.029.135.032.16zm-.066-.368-.027-.137c-.006-.031-.006-.04-.005-.035a.443.443 0 0 1-.067.21l-1.687-1.075c-.398.625-.202 1.303-.168 1.463zm-.05-.047a.3.3 0 0 1-.087.107c-.026.022-.043.027-.037.025a.3.3 0 0 1 .058-.012 1 1 0 0 1 .108-.003l.111-1.997c-.279-.015-.624.01-.963.133a1.74 1.74 0 0 0-.974.842zm.072.118c.505.014 1.01.02 1.507.027l.027-2c-.5-.007-.991-.013-1.482-.026zm1.507.027c.688.01 1.362.018 2.033.044l.076-1.999c-.7-.026-1.398-.036-2.082-.045zm2.008.043a.35.35 0 0 1-.15-.05c-.05-.03-.07-.058-.07-.057a1 1 0 0 1 .046.084c.028.06.055.126.093.223l1.861-.732c-.062-.157-.187-.494-.404-.781a1.67 1.67 0 0 0-1.25-.683zm-.08.2q.02.056.047.12l1.852-.753-.039-.099zm.954.743q.817.014 1.628.026l.028-2q-.812-.011-1.618-.025zm1.628.026c1.04.014 2.068.028 3.094.064l.069-2c-1.05-.035-2.099-.05-3.135-.064zm3.157.064c-.039 0-.045-.018.001.016.056.04.134.12.223.25l1.645-1.138c-.28-.404-.908-1.156-1.925-1.128zm1.627.51c.888-.633 2.198-.61 3.054.052l1.224-1.581c-1.561-1.209-3.84-1.239-5.44-.098zm4.527-.23a.44.44 0 0 1 .138-.146.2.2 0 0 1 .11-.04l-.052-2c-.86.024-1.549.544-1.918 1.169zm.2-.186q1.206.027 2.406.044l.031-2q-1.199-.018-2.392-.043zm2.406.044q1.199.017 2.392.043l.046-2q-1.207-.025-2.407-.043zm3.394-.756a.8.8 0 0 1 .063-.182l.01-.015-.016.015a.337.337 0 0 1-.2.073l.018-2a1.7 1.7 0 0 0-1.373.673 2.5 2.5 0 0 0-.46 1.034zm-.108-.109a38 38 0 0 1 1.915.015l.049-2c-.651-.015-1.332-.032-2.016-.014zm1.915.015c.554.014 1.128.028 1.706.021l-.024-2a45 45 0 0 1-1.633-.02zm1.716.02q.03 0 .05.004.02.006-.002-.002a.3.3 0 0 1-.09-.067.44.44 0 0 1-.1-.164l1.896-.637a1.6 1.6 0 0 0-.859-.944 2.1 2.1 0 0 0-.938-.189zm-.066-.06a.2.2 0 0 1-.023-.064c-.004-.02-.002-.027-.003-.013a1 1 0 0 1-.018.099c-.013.055-.03.116-.056.203l1.922.554c.074-.258.339-1.011-.077-1.755zm-.1.225c-.047.163-.143.476-.152.813l1.999.058c0-.04.014-.104.075-.317zm1.138 1.799c.854-.26 1.86.287 2.078 1.095l1.931-.522c-.533-1.97-2.73-3.053-4.59-2.487zm3.002 1.833a28 28 0 0 1 .888.049l-.024-.004.435-1.952c-.167-.038-.346-.055-1.216-.09zm.864.045c.18.04.356.049 1.236.074l.057-2a36 36 0 0 1-.826-.029c-.062-.003-.078-.005-.074-.005l.029.005.013.003zm1.258.074h.313l-.016-2h-.285zm.313 0c.797-.007 1.147.032 1.383.234l1.302-1.518c-.9-.772-2.072-.721-2.7-.717zm1.5.32c.043.028.1.08.172.202.079.134.146.295.242.537l1.857-.745c-.158-.394-.45-1.208-1.203-1.684zm.414.739.043.106 1.854-.75-.04-.1zm.088.202c.562 1.052 1.778 1.78 3.06 1.596l-.286-1.98c-.36.052-.8-.167-1.01-.558zm3.011 1.602c1.416-.135 2.53-1.336 2.65-2.7l-1.991-.177c-.04.452-.439.847-.847.885zm2.644-2.643c.233-1.591-.988-3.08-2.51-3.287l-.27 1.982c.482.065.864.586.801 1.015zm-2.52-3.288-.05-.006-.245 1.985.046.005zm-.05-.006a5 5 0 0 1-.209-.029 1 1 0 0 1-.107-.024c-.017-.006-.013-.006.002.003q.027.016.054.05l-1.569 1.24c.523.661 1.333.714 1.584.745zm-.125.227-.126-.292-1.83.808c.039.087.076.174.117.27zm-.052-.04a.11.11 0 0 1-.023.09.2.2 0 0 1-.06.051.23.23 0 0 1-.101.029l-.078-1.999c-1.19.046-1.865 1.158-1.715 2.133zm-.198.17c1.267-.031 2.488 1.08 2.556 2.327l1.997-.11c-.13-2.356-2.285-4.273-4.603-4.216zm2.561 2.386c.132 1.148-.664 2.36-1.771 2.7l.585 1.912c2.025-.62 3.416-2.73 3.173-4.84zm-1.8 2.709c-1.156.391-2.587-.21-3.13-1.315l-1.795.883c.98 1.992 3.446 3.045 5.567 2.326zm-3.137-1.33a3 3 0 0 1-.085-.196l-1.853.752c.035.086.089.222.158.357zm-.085-.196c-.06-.147-.18-.461-.406-.74l-1.553 1.259c-.003-.003.006.007.025.046.022.044.043.095.08.187zm-.63-.944c-.5-.332-1.07-.294-1.236-.292l.029 2a4 4 0 0 1 .198.003c.015.002-.033-.002-.096-.044zm-1.236-.292h-.06l.019 2h.07zm-.034 0a28 28 0 0 1-.552-.013l-.03-.002h-.01l.022.002c.01.001.04.006.082.016a.997.997 0 0 1 .172 1.875c-.06.027-.108.041-.121.045l-.037.01-.449-1.949-.024.006a1 1 0 0 0-.192.065 1 1 0 0 0-.462.42 1 1 0 0 0 .329 1.337c.152.098.295.13.315.135.083.02.157.026.182.029.123.011.35.018.742.025zm-.474 1.933a1.2 1.2 0 0 0 .225-.075 1.01 1.01 0 0 0 .51-.537 1 1 0 0 0-.465-1.26c-.131-.07-.248-.092-.269-.097a1 1 0 0 0-.165-.022c-.119-.01-.342-.015-.732-.02l-.024 2c.411.005.56.01.597.013.014.002-.026 0-.084-.013a.996.996 0 0 1-.714-1.346 1 1 0 0 1 .634-.581c.03-.01.056-.015.038-.01zm-.869-2.01-.117-.005-.081 1.998.12.005zm-.117-.005c-.41-.017-.925-.04-1.448.03l.268 1.983c.32-.044.659-.033 1.099-.015zm-2.258.693c-.203.581-.771 1.03-1.397 1.098l.215 1.988c1.377-.149 2.609-1.101 3.07-2.429zm-1.512 1.117c.004 0-.01.004-.059 0a3 3 0 0 1-.245-.033l-.321 1.974c.196.032.618.113 1.071.009zm-.304-.033c-.15-.024-.422-.072-.715-.058l.1 1.998c.045-.003.108.004.294.034zm-1.655 1.087c.033.22.095.433.133.57l1.924-.546a3 3 0 0 1-.078-.316zm.133.57c.027.095.047.165.063.232a1 1 0 0 1 .024.133c.004.047-.006.015.02-.032l1.752.963c.421-.765.144-1.565.065-1.842zm.1.347a.27.27 0 0 1 .116-.117c.018-.009.02-.005.012-.006l-.177 1.992c.6.053 1.412-.17 1.816-.934zm.082-.126c-.596-.026-1.189-.031-1.763-.037l-.02 2c.58.005 1.14.011 1.697.035zm-1.763-.037a45 45 0 0 1-1.953-.048l-.108 1.997c.69.037 1.379.044 2.04.05zm-1.933-.047a.39.39 0 0 1 .176.064c.051.034.07.065.067.06a.5.5 0 0 1-.038-.086 2 2 0 0 1-.054-.198l-1.952.436c.051.23.148.598.363.931.236.367.653.74 1.29.788zm-.823-.942c-.8-.001-1.602-.017-2.413-.033l-.04 2c.81.015 1.628.032 2.449.034zm-2.413-.033q-.711-.016-1.429-.025l-.027 2q.705.01 1.417.025zm-1.337-.02c-.228-.024-.45-.018-.596-.015l.041 2c.17-.004.264-.004.344.004zm-.596-.015a3 3 0 0 1-.353-.005.4.4 0 0 1-.077-.015l-.003-.002-.985 1.74c.57.323 1.183.288 1.46.282zm-.505-.059c.015.007.004.006-.038-.036a3 3 0 0 1-.184-.223l-1.586 1.219c.142.184.456.618.967.855zm-1.607-.456c-.864.635-2.181.605-3.024-.068l-1.248 1.563c1.541 1.23 3.856 1.293 5.456.117zm-4.5.19a.6.6 0 0 1-.156.175c-.04.027-.051.022-.04.022l-.009 2c.934.004 1.583-.619 1.91-1.15zm-.22.197a48 48 0 0 1-2.176-.022l-.05 2c.736.018 1.5.037 2.265.022zm-2.176-.022c-.875-.022-1.787-.045-2.703-.009l.078 1.999c.841-.033 1.69-.012 2.575.01zm-3.659.893a.2.2 0 0 1-.014.06q-.012.026-.005.013a.2.2 0 0 1 .076-.056.3.3 0 0 1 .137-.032l-.054 2c.601.016 1.076-.268 1.38-.634.287-.346.433-.77.47-1.156zm.194-.015q-.818-.02-1.622-.029l-.026 2q.804.009 1.594.028zm-1.622-.029c-.733-.01-1.45-.019-2.164-.046l-.079 1.998c.745.03 1.488.039 2.217.048zm-2.193-.047c.049 0 .115.019.172.061.05.037.067.073.07.079s0 .001 0-.009.003-.004-.007.016l-1.783-.906a2.02 2.02 0 0 0-.044 1.695c.237.546.775 1.055 1.571 1.064zm-1.062-1.22c-.86.382-1.882.326-2.586-.158l-1.133 1.648c1.361.936 3.134.957 4.53.338zm-2.63-.187c-.537-.329-.938-.95-1.132-1.693l-1.935.506c.283 1.082.921 2.218 2.022 2.893zm-2.167-2.438c-.326.022-.66.012-1.05 0l-.064 1.999c.375.012.808.027 1.249-.004zm-1.05 0c-.3-.01-.637-.02-.979-.01l.063 2c.268-.01.542 0 .852.009zm-1.004-.009h.007l.005.002-.724 1.864c.262.102.545.147.826.131zm4.024-2.236c-.761.487-1.2 1.291-1.317 2.095-.117.806.075 1.713.713 2.397l1.463-1.363c-.157-.169-.242-.436-.197-.746.046-.313.21-.566.416-.698zm2.936-.188a3.01 3.01 0 0 0-2.949.196l1.103 1.669c.283-.187.67-.212.971-.066zm.973 4.664c.683-.75.835-1.746.646-2.595-.189-.847-.744-1.678-1.649-2.082l-.815 1.826c.232.104.436.352.512.69.074.337-.006.631-.172.812zm-4.565-.044c.585.737 1.473 1.078 2.307 1.081.836.003 1.737-.335 2.319-1.111l-1.6-1.2c-.138.184-.392.312-.712.311-.324 0-.597-.135-.747-.324zm4.696-4.629c.309 1.82.278 3.7-.096 5.505l1.958.406c.426-2.051.46-4.183.11-6.245zm3.115-1.131a94 94 0 0 1-2.097-.035l-.064 1.999c.72.022 1.438.029 2.142.036zm.866 7.09c.438-2.064.462-4.193.11-6.258l-1.971.335a14.7 14.7 0 0 1-.095 5.508zm-2.292.762c.438.004.853.009 1.265.029l.098-1.998c-.457-.022-.91-.027-1.341-.031zm-.832-.014q.424.01.832.014l.022-2a53 53 0 0 1-.802-.013zm4.072-.853a52 52 0 0 1 2.066.018l.043-2c-.698-.014-1.42-.03-2.144-.017zm-.983-2.805c-.007.6-.014 1.187-.034 1.771l1.999.069c.02-.611.028-1.22.035-1.817zm.053-2.264c-.035.762-.044 1.523-.053 2.264l2 .023c.009-.746.017-1.472.05-2.194zm4.195-.892a185 185 0 0 1-3.165-.061l-.062 1.999c1.07.033 2.14.047 3.2.061zm.793.01-.793-.01-.027 2 .79.01zm.962 2.975c.015-.648.03-1.315.023-1.985l-2 .02c.006.633-.008 1.268-.022 1.92zm-.02 2.002a57 57 0 0 1 .02-2.002l-2-.044c-.014.676-.03 1.372-.02 2.072zm-2.934.992c.634.014 1.288.028 1.944.021l-.021-2c-.619.007-1.24-.006-1.88-.02zm3.8-5.334a3.02 3.02 0 0 0-1.161 3.084l1.952-.433a1.02 1.02 0 0 1 .382-1.03zm3.987.43c-.987-1.154-2.818-1.326-4.009-.413l1.218 1.587c.359-.276.985-.209 1.27.126zm.482 3.273c.554-1.11.273-2.458-.508-3.302l-1.468 1.359c.272.293.334.754.186 1.05zm-2.354 1.693c.927-.132 1.955-.703 2.385-1.763l-1.852-.753c-.096.236-.397.477-.814.536zm-3.28-2.33c.297 1.46 1.775 2.541 3.278 2.33l-.278-1.98c-.433.06-.95-.302-1.04-.748zm5.559-2.568c.003.753-.012 1.508-.028 2.279l2 .04c.016-.766.032-1.546.028-2.33zm2.745-.978a183 183 0 0 0-1.736-.027l-.019 2q.854.009 1.717.027zm2.233.03c-.74-.002-1.482-.016-2.233-.03l-.038 2c.749.014 1.507.028 2.266.03zm.994 3.3c.02-.752.042-1.548.002-2.35l-1.998.099c.036.713.017 1.434-.003 2.199zm-.02 1.683c-.01-.55.005-1.104.02-1.682l-2-.053c-.014.571-.03 1.168-.02 1.769zm-2.926.992c.633.014 1.28.028 1.932.025l-.012-2c-.618.003-1.239-.01-1.876-.024zm-2.07-.022a61 61 0 0 1 2.07.022l.044-2c-.698-.015-1.416-.03-2.137-.022zm-.984-2.726c-.011.567-.023 1.143-.027 1.72l2 .013q.007-.84.027-1.692zm6.901 3.76c.61-.01 1.225.005 1.863.02l.047-2c-.631-.014-1.286-.03-1.941-.02zm-.886-7.132a14.6 14.6 0 0 0-.11 6.332l1.96-.4a12.6 12.6 0 0 1 .094-5.46zm1.41-.75-.404-.014-.067 1.999.396.014zm1.567.022c-.503.019-1.013 0-1.567-.021l-.075 1.999c.54.02 1.125.042 1.715.021zm.956 6.71c-.319-1.803-.227-3.674.069-5.555l-1.976-.31c-.316 2.008-.433 4.118-.063 6.213zm-1.184 1.17.176.004.046-2q-.087 0-.175-.004zm1.044-5.184c-.545.656-.533 1.494-.271 2.106.263.615.87 1.212 1.748 1.242l.068-1.999a.1.1 0 0 1 .052.017l-.01-.011a.2.2 0 0 1-.032-.078l-.001-.026q0-.006-.002.005l-.014.022zm3.516.512c-.294-.8-1.012-1.196-1.67-1.265-.647-.068-1.403.158-1.877.793l1.601 1.198c-.008.011-.014.01-.001.005a.2.2 0 0 1 .069-.007c.028.003.037.01.032.007l-.017-.017a.1.1 0 0 1-.015-.025zm-2.135 2.828c.818.108 1.514-.314 1.902-.848.392-.54.58-1.348.177-2.105l-1.766.939a.1.1 0 0 1-.01-.046l-.003.008a.16.16 0 0 1-.042.056l-.02.014h.023z" mask="url(#a)"/><path fill="#000" d="M22.913 20.205c.262-.517 1.235-.469 1.416.08.35 1.008.57 2.048.896 3.063.186.93.608 1.855 1.409 2.505.589.528 1.392.785 2.108 1.148 1.945 1.004 3.602 2.48 4.633 4.256.887-1.172 1.15-2.72.613-4.057-.176-.533-.501-1.011-.78-1.505-.14-.527.416-1.016 1.012-.894 1.068.522 2.133 1.048 3.2 1.57 1.705.824 3.134 2.09 4.024 3.62 1.268 2.082 1.383 4.592.74 6.854-.297.789-.55 1.602-1.006 2.334.034-.007.101-.022.137-.028 1.236-.917 2.196-2.12 2.752-3.462.155-.44.263-.89.43-1.326.21-.439.966-.517 1.295-.145.235.32.384.682.56 1.03.526 1.103 1.172 2.166 1.554 3.319a7.3 7.3 0 0 1-.07 4.228c1.813.804 3.62 1.857 4.623 3.467.317.571.54 1.2.54 1.843.018.436-.47.788-.95.733H5.949c-.478.054-.967-.297-.947-.732.015-1.171.686-2.262 1.591-3.09 1.256-1.147 2.847-1.972 4.5-2.595.005-.675-.039-1.356.083-2.025.143-.955.607-1.846.735-2.804.208-1.236-.132-2.484-.63-3.633-.305-.87-.66-1.726-.966-2.594-.145-.42-.51-.913-.16-1.327.132-.21.412-.24.646-.303 1.21.245 2.39.578 3.594.842.97.22 1.913.573 2.679 1.158 1.64 1.184 2.486 3.155 2.137 5.003-.06.33-.195.677-.065 1.008.12.198.328.347.56.435.478.201 1.106-.065 1.26-.507.27-.657.397-1.35.637-2.013.357-.968.472-2 .378-3.014-.142-1.227-.67-2.409-1.48-3.411-.827-1.046-1.116-2.4-.775-3.638.213-.806.754-1.494 1.182-2.216.677-1.055 1.324-2.125 2.006-3.177m-1.42 5.175a2.89 2.89 0 0 0-.07 2.414c.276.602.801 1.081 1.104 1.672a7.55 7.55 0 0 1 .869 5.736c-.284.898-.531 1.804-.833 2.697-.204.821-.977 1.523-1.916 1.688a2.97 2.97 0 0 1-2.03-.313c-.716-.402-1.148-1.146-1.148-1.89.027-.399.18-.78.211-1.178.125-1.49-.766-3.009-2.235-3.755-1.045-.523-2.259-.649-3.388-.965.361 1.085.811 2.144 1.188 3.225a7.33 7.33 0 0 1-.253 4.926c-.487 1.613-.421 3.378.284 4.935.411 1.058 1.223 1.932 1.927 2.843 9.315.011 18.628 0 27.943.006.572-.853 1.153-1.7 1.728-2.551.536-.792 1.128-1.572 1.419-2.468.308-.986.39-2.036.16-3.044-.165-.933-.687-1.772-1.112-2.627-.706 1.292-1.647 2.504-2.908 3.425-.779.569-1.636 1.052-2.49 1.53-.57.305-1.34-.287-1.097-.83.402-1.07.906-2.108 1.324-3.173.685-1.475.98-3.118.704-4.7-.241-1.606-1.134-3.124-2.463-4.236-.802-.697-1.8-1.18-2.794-1.625.653 2.048-.073 4.364-1.762 5.867-.207.214-.533.353-.853.27-.397-.078-.556-.441-.701-.734-.9-1.843-2.521-3.402-4.51-4.369-.46-.238-.965-.404-1.404-.675a5.6 5.6 0 0 1-2.087-2.06c-.515-.935-.666-1.977-.985-2.97-.59.985-1.232 1.944-1.821 2.93M9.82 44.566c.575.034 1.151.012 1.726.016a5 5 0 0 0-.203-.734c-.519.22-1.017.474-1.523.718m37.406-.472q-.145.238-.267.488c.42.004.84.004 1.26-.008a36 36 0 0 1-.993-.48M7.72 46.004c-.423.415-.774.886-1 1.411q3.265.012 6.528 0c-.362-.449-.713-.908-.989-1.402-1.512-.024-3.026-.005-4.539-.01m38.24 0c-.292.48-.642.93-.94 1.407 2.087.017 4.174.009 6.262.004a4.4 4.4 0 0 0-.99-1.41c-1.445-.005-2.888-.003-4.333-.002M47.026 27.041c.444-.09.965.266.924.747.006.846.012 1.693-.002 2.539-.013.517-.645.882-1.108.654-.273-.155-.514-.435-.487-.767-.004-.814-.011-1.629.004-2.443.005-.365.313-.682.67-.73"/><path fill="#000" d="M15.026 23.041c.444-.09.966.266.924.747.006.846.012 1.693-.002 2.539-.013.517-.645.882-1.109.654-.272-.155-.513-.435-.486-.767-.004-.814-.011-1.629.004-2.443.005-.365.313-.682.67-.73M49.778 27.97c.454-.36 1.2-.046 1.255.532.033.861.02 1.726.009 2.588-.005.359-.29.611-.587.76-.425.048-.923-.17-.974-.64-.065-.694-.007-1.394-.03-2.09.005-.395-.05-.897.327-1.15M36.296 37.888c.386-.164.87.151.843.578a5.5 5.5 0 0 1-.611 2.257c-.194.408-.875.417-1.08.016a.6.6 0 0 1-.016-.629c.272-.543.383-1.144.485-1.736a.62.62 0 0 1 .379-.486M49.502 34.008c.117-.553.904-.743 1.287-.345.384.377.245.968.254 1.448-.004.364-.294.617-.596.763-.395.028-.866-.145-.952-.578a4 4 0 0 1 .007-1.288M29.414 39.361c.136-.382.568-.62.96-.474.295.092.486.404.47.708q.006 1.035-.001 2.068c.03.472-.507.89-.952.7-.223-.076-.362-.275-.475-.47-.004-.843 0-1.688-.002-2.532M34.682 41.337c.495-.269 1.124.346.833.84-.228.288-.438.703-.855.715-.445.035-.821-.498-.59-.895.17-.244.349-.508.612-.66M15.262 41.928c.33-.224.85.025.845.434a3.28 3.28 0 0 0 .936 2.403c.248.21.247.64-.02.833a.53.53 0 0 1-.72-.016 4.29 4.29 0 0 1-1.3-3.214.53.53 0 0 1 .26-.44M26.553 41.762c-.056-.49.477-.925.944-.743.279.072.482.344.482.632.012 1.023 0 2.047.005 3.07-.168.674-1.235.705-1.402.017-.068-.988-.013-1.984-.03-2.976M29.87 43.882c.445-.21 1.009.205.972.69-.001.51.024 1.022-.015 1.53-.036.273-.275.44-.485.58-.392.063-.844-.135-.916-.56-.031-.592-.005-1.185-.01-1.777.108-.19.236-.386.454-.463"/></svg>