<svg xmlns="http://www.w3.org/2000/svg" width="36" height="32" fill="none"><path fill="#fff" d="m33.271 14.368-2.34-1.504-1.65-.558-1.01-.895-1.182-.54-.665 1.01h-3.2270000000000003l-3.004.343-4.41 1.207-1.305.937-.197 2.413 6.083 2.069 9.336-1.158 3.571-1.896zM15.632 1.08c.293-.046.702-.02.833.3.165.452.016.937-.096 1.383-.293.898-.74 1.736-1.223 2.544-1.253 2.04-2.811 3.876-4.476 5.59-1.618 1.628-3.36 3.153-5.308 4.377a15 15 0 0 1-1.542.835c-.604.246-1.243.526-1.91.423-.348-.086-.455-.489-.43-.804.044-.49.21-.96.377-1.42.865-2.03 2.192-3.823 3.603-5.505 1.532-1.795 3.216-3.464 5.063-4.935 1.287-1 2.64-1.954 4.165-2.551.301-.125.622-.195.944-.237"/><path fill="#48FDBC" d="M16.343 3.541c.28.352.777.609.766 1.12 0 .359-.081.713-.188 1.053-.518 1.457-1.365 2.762-2.264 4.001-1.232 1.67-2.642 3.2-4.146 4.617-1.287 1.177-2.653 2.285-4.173 3.136-.725.373-1.496.782-2.333.736-.378-.165-.598-.546-.896-.819 1.1-.25 2.1-.81 3.045-1.418 1.828-1.212 3.47-2.692 4.982-4.287 1.528-1.618 2.934-3.371 4.06-5.305.496-.89.949-1.824 1.147-2.834"/><path fill="#fff" d="M14.997 16.868c1.336.896 2.928 1.295 4.492 1.585 3.162.535 6.42.501 9.568-.122 1.333-.308 2.709-.661 3.833-1.477.06.35-.003.73-.275.98-.64.623-1.507.932-2.338 1.213-1.48.466-3.029.658-4.571.78-1.764.104-3.54.062-5.29-.186-.834-.082-1.647-.287-2.458-.49-.942-.3-1.936-.613-2.67-1.31-.282-.242-.322-.625-.291-.973"/><path fill="#fff" d="M13.46 19.156c.194-.347.535-.611.898-.76.63.699 1.49 1.126 2.357 1.455 1.835.648 3.777.922 5.713 1.036 1.23.084 2.465.056 3.693-.047a21.5 21.5 0 0 0 4.017-.658c1.218-.367 2.521-.798 3.379-1.791.38.14.716.425.923.772.149.273-.075.556-.264.739-.642.551-1.464.814-2.25 1.085-1.784.529-3.638.793-5.49.92a46 46 0 0 1-4.973.001c-1.87-.13-3.745-.397-5.547-.937-.767-.27-1.57-.53-2.196-1.067-.194-.183-.419-.477-.26-.748"/><path fill="#fff" d="M13.409 20.98c1.329.889 2.92 1.236 4.463 1.557 1.043.153 2.087.335 3.142.387 1.322.103 2.65.129 3.977.106.635-.067 1.277-.026 1.91-.106 1.079-.056 2.145-.239 3.211-.402 1.515-.313 3.07-.675 4.38-1.537-.045.501.167 1.122-.268 1.505-.625.57-1.45.836-2.234 1.11-2.574.777-5.278.994-7.955 1.012-.31-.026-.64.227-.614.554-.002 1.227-.005 2.455.002 3.682a.52.52 0 0 0 .525.514c1.58 0 3.162-.079 4.727-.303 1.473-.177 2.938-.477 4.332-.992a7.8 7.8 0 0 0 1.485-.753c-.05.483.163 1.078-.233 1.46-.413.424-.973.65-1.504.882-2.047.763-4.235 1.056-6.402 1.217-1.226.034-2.453.115-3.679.036a28 28 0 0 1-4.625-.468c-.484-.075-.96-.2-1.431-.331l-.263-.047c-.864-.28-1.762-.545-2.5-1.093-.235-.182-.473-.437-.451-.756.003-2.41-.006-4.822.005-7.233"/><path fill="#48FDBC" d="M32.16 24.932c.56-.194 1.114-.414 1.61-.725.005.556.002 1.113.003 1.67.024.268-.194.482-.405.638-.62.428-1.369.653-2.098.873-2.216.584-4.53.778-6.827.819-.003-.75 0-1.5-.001-2.25.21 0 .423 0 .634-.009.865-.05 1.735-.063 2.597-.161 1.518-.163 3.037-.395 4.487-.855"/><path fill="#000" d="M15.466.023c.565-.07 1.184.008 1.61.42q.978.98 1.929 1.988c.405.428.452 1.056.407 1.615-.245 1.602-1.088 3.028-1.948 4.374-1.472 2.206-3.233 4.208-5.147 6.04-1.295 1.22-2.668 2.369-4.157 3.35-.745.487-1.524.927-2.346 1.273-.593.216-1.2.45-1.844.425-.498.026-.972-.223-1.31-.576-.512-.527-1.019-1.06-1.533-1.584-.214-.22-.45-.444-.54-.749-.255-.681-.087-1.42.093-2.096.305-.938.758-1.822 1.264-2.666 1.284-2.092 2.863-3.99 4.57-5.75 1.78-1.808 3.712-3.492 5.886-4.814.957-.551 1.966-1.069 3.066-1.25m.169 1.057a3.7 3.7 0 0 0-.944.237c-1.526.597-2.878 1.552-4.165 2.55C8.68 5.339 6.995 7.009 5.463 8.803c-1.411 1.683-2.738 3.476-3.603 5.507-.167.46-.333.928-.377 1.42-.025.314.082.717.43.803.668.103 1.306-.177 1.91-.423.532-.243 1.043-.53 1.542-.835 1.948-1.224 3.69-2.749 5.308-4.377 1.665-1.714 3.224-3.55 4.476-5.59.484-.808.93-1.646 1.223-2.544.113-.447.261-.93.097-1.383-.132-.32-.54-.346-.834-.3m1.893 1.334c-.22 1.105-.724 2.126-1.277 3.099-1.253 2.115-2.819 4.031-4.52 5.8-1.684 1.745-3.512 3.364-5.547 4.69-1.052.663-2.164 1.276-3.39 1.55.332.298.577.715.998.895.932.05 1.79-.397 2.597-.805 1.693-.93 3.213-2.142 4.646-3.43 1.675-1.55 3.244-3.221 4.617-5.048 1-1.354 1.944-2.782 2.52-4.375.119-.372.21-.76.21-1.15.011-.56-.542-.842-.854-1.226M26.618 10.26c.045-.31.426-.485.7-.351 1.795 1.1 2.954 3.167 2.944 5.275-.006.373-.484.61-.788.399-.237-.123-.255-.41-.26-.645-.072-1.402-.731-2.768-1.819-3.664-.694 1.219-1.919 2.069-3.23 2.51-.672.247-1.397.291-2.107.303a5.9 5.9 0 0 0-3.485 1.38c-.17.163-.428.254-.647.134-.335-.14-.381-.654-.105-.872 1.233-1.104 2.885-1.705 4.537-1.702 1.469-.002 2.9-.718 3.83-1.846.22-.264.382-.578.43-.921"/><path fill="#000" d="M19.474 11.815c1.482-.222 2.98-.385 4.481-.369.276-.003.542.257.52.537.012.277-.245.522-.519.516-2.048-.002-4.109.208-6.088.751-.82.269-1.662.548-2.351 1.084-.262.209-.544.49-.517.852.039.387.37.638.654.86.581.395 1.242.652 1.904.875 2.25.69 4.62.88 6.962.844 2.024-.044 4.063-.279 5.999-.898.75-.285 1.54-.572 2.114-1.157.237-.232.37-.617.169-.914-.346-.541-.959-.821-1.516-1.093-.297-.157-.692-.171-.905-.456-.214-.275-.042-.702.277-.803.299-.059.576.108.846.208.85.362 1.743.818 2.23 1.64.293.484.214 1.07.223 1.61.012.505-.024 1.012.021 1.516.747.373 1.538 1.01 1.563 1.916q.005 4.482 0 8.962c.003.6-.37 1.122-.827 1.478-.9.716-2.02 1.063-3.107 1.38-.66.144-1.313.32-1.983.41-1.271.18-2.547.37-3.833.381-.987.086-1.98.046-2.968.046-.584-.064-1.173-.039-1.757-.094-1.45-.126-2.9-.306-4.32-.634l-.049-.03c-.876-.169-1.723-.476-2.534-.843-.6-.314-1.213-.684-1.579-1.275-.186-.293-.228-.648-.224-.988.004-2.93-.004-5.86.003-8.791.003-.93.84-1.529 1.566-1.946.027-.79-.006-1.584.014-2.375.048-.746.621-1.32 1.21-1.713 1.296-.84 2.826-1.187 4.32-1.487m-4.477 5.054c-.03.348.009.732.291.974.734.696 1.728 1.01 2.67 1.31.81.202 1.625.408 2.457.49 1.752.248 3.527.29 5.29.186 1.543-.122 3.092-.315 4.573-.78.83-.281 1.696-.59 2.337-1.213.272-.25.336-.63.275-.981-1.124.816-2.5 1.17-3.833 1.478a26.6 26.6 0 0 1-9.568.121c-1.563-.29-3.155-.689-4.492-1.585m-1.534 2.285c-.16.271.066.566.26.749.626.538 1.428.797 2.196 1.067 1.801.54 3.676.806 5.547.937 1.656.09 3.317.09 4.973 0 1.852-.128 3.706-.392 5.489-.92.787-.272 1.608-.534 2.25-1.086.19-.183.413-.466.265-.74a1.84 1.84 0 0 0-.924-.771c-.857.993-2.16 1.424-3.379 1.79-1.313.35-2.66.564-4.016.66-1.229.102-2.464.13-3.694.046-1.936-.114-3.878-.388-5.712-1.036-.867-.33-1.727-.756-2.358-1.456-.363.15-.703.414-.897.76m-.055 1.828c-.01 2.412-.001 4.823-.005 7.234-.021.319.217.574.451.756.739.548 1.636.813 2.5 1.092l.263.048c.472.13.947.256 1.432.331 1.527.277 3.073.446 4.625.468 1.226.079 2.453-.002 3.68-.036 2.166-.16 4.354-.454 6.4-1.217.532-.233 1.092-.457 1.505-.881.395-.383.184-.978.233-1.461a7.8 7.8 0 0 1-1.486.753c-1.393.515-2.858.815-4.331.992-1.565.224-3.147.303-4.727.302a.52.52 0 0 1-.526-.513c-.006-1.227-.003-2.455-.001-3.682-.027-.328.303-.58.614-.554 2.677-.018 5.381-.235 7.955-1.012.783-.274 1.609-.54 2.234-1.11.434-.383.223-1.004.267-1.506-1.309.863-2.864 1.225-4.379 1.538-1.066.163-2.132.345-3.21.402-.634.08-1.276.039-1.91.106a42 42 0 0 1-3.979-.107c-1.055-.052-2.098-.233-3.14-.386-1.543-.32-3.136-.669-4.465-1.557m19.355 3.49c-1.557.537-3.187.809-4.818 1-.925.115-1.859.13-2.788.19-.227.009-.454.009-.68.01 0 .878-.003 1.756.001 2.635 2.467-.048 4.95-.275 7.33-.96.783-.257 1.587-.52 2.252-1.022.227-.183.46-.433.434-.748 0-.652.003-1.304-.003-1.955-.532.364-1.127.621-1.728.85"/></svg>