<svg xmlns="http://www.w3.org/2000/svg" width="47" height="62" fill="none"><path fill="#fff" d="M21.912 3.705c.423-.412.946-.811 1.58-.735.626-.029 1.067.45 1.5.82 1.426 1.077 3.416 1.358 5.1.764a1.58 1.58 0 0 1 1.537.084c.579.293.714.966 1.038 1.47.72 1.098 1.863 1.915 3.125 2.285.767.217 1.673.035 2.317.578.448.356.592.938.608 1.483.1 1.664 1.123 3.184 2.503 4.098.51.303 1.151.457 1.478.996.375.624.176 1.387-.101 2.01-.493 1.748.048 3.752 1.347 5.033.55.6.576 1.588.038 2.2-1.136.884-1.588 2.365-1.632 3.745.036.648.144 1.305.395 1.91.218.54.067 1.167-.271 1.627-.313.37-.804.496-1.218.718-1.192.702-2.056 1.89-2.448 3.196-.212.778-.002 1.72-.64 2.338-.608.664-1.584.463-2.373.687-1.274.348-2.403 1.178-3.146 2.258-.312.444-.427 1.023-.866 1.378-.449.31-1.043.471-1.573.278-1.756-.69-3.867-.364-5.355.776-.435.415-.97.82-1.615.739-.79.02-1.233-.712-1.845-1.074-1.387-.878-3.207-1.084-4.745-.485a1.65 1.65 0 0 1-1.479-.077c-.577-.285-.759-.944-1.055-1.46-.71-1.104-1.835-1.928-3.094-2.316-.455-.084-.91-.169-1.372-.2-.725-.026-1.414-.585-1.53-1.303-.12-.727-.134-1.494-.472-2.165-.48-1.06-1.264-2.009-2.289-2.589-.526-.27-1.176-.502-1.381-1.111-.272-.532-.077-1.127.124-1.643.504-1.423.196-3.039-.57-4.312-.295-.507-.812-.876-.98-1.455-.234-.59-.056-1.31.406-1.742.351-.336.615-.744.866-1.157.572-1.146.707-2.482.42-3.727-.1-.462-.44-.874-.362-1.366A1.86 1.86 0 0 1 5.03 14.85c1.457-.62 2.492-1.98 2.934-3.462.2-.523.1-1.094.21-1.632.23-.581.735-1.09 1.384-1.16a14 14 0 0 0 1.59-.237c1.456-.513 2.777-1.56 3.376-2.998.343-.775 1.369-1.193 2.151-.828 1.732.633 3.788.297 5.238-.829m-.717 4.74c-.961.205-1.94.365-2.861.72-4.228 1.412-7.738 4.75-9.376 8.852-.853 2.054-1.182 4.297-1.065 6.51-.084.92.137 1.817.33 2.708 1.163 5.099 5.17 9.456 10.195 11.064.83.313 1.712.45 2.575.649 1.522.163 3.06.158 4.584.019 1.347-.262 2.696-.57 3.947-1.141 4.29-1.819 7.644-5.655 8.84-10.12.22-.9.463-1.803.467-2.735.17-.317.136-.69.156-1.037-.067-1.656-.259-3.322-.781-4.902-1.35-4.29-4.728-7.892-8.932-9.578-1.2-.503-2.474-.796-3.753-1.023a28 28 0 0 0-4.326.014"/><path fill="#48FDBC" d="M20.574 11.938c1.763-.17 3.585-.211 5.297.296 3.723.946 6.92 3.678 8.455 7.162a12.25 12.25 0 0 1 1.023 6.25c-.142.784-.199 1.587-.46 2.345-.976 3.528-3.604 6.56-6.959 8.087a12.8 12.8 0 0 1-6.645 1.127c-3.868-.317-7.497-2.548-9.58-5.78-1.018-1.54-1.658-3.307-1.933-5.123-.054-.703-.052-1.41-.065-2.116a12.6 12.6 0 0 1 2.258-6.848c1.466-2.109 3.579-3.783 6.004-4.68.833-.35 1.722-.54 2.605-.72"/><path fill="#fff" d="M11.34 41.418c.579.318 1.007.854 1.261 1.453.634 1.387 2.19 2.292 3.723 2.145.788-.023 1.476-.53 2.275-.455.772.078 1.595.287 2.14.87.412.44.955.702 1.517.898-.576 1.808-1.051 3.645-1.607 5.459-.553 2.022-1.192 4.02-1.723 6.048a569 569 0 0 0-4.127-5.101c-.239-.353-.711-.43-1.1-.323-2.242.704-4.49 1.382-6.738 2.064 1.284-3.771 2.539-7.55 3.82-11.322.17-.585.42-1.143.56-1.736M33.117 44.21c.61-.477.947-1.186 1.24-1.878.895 1.779 1.862 3.524 2.779 5.295.837 1.526 1.607 3.09 2.461 4.607-1.348-.195-2.714-.176-4.064-.343-.755-.068-1.51-.161-2.27-.17-.387.002-.696.3-.877.612-1.235 1.872-2.395 3.796-3.665 5.643-1.671-2.948-3.35-5.892-5.02-8.841-.184-.286.055-.61.12-.898.162-.633.34-1.262.555-1.88.335-.156.704-.248 1.01-.464.5-.307.86-.817 1.427-1.02.77-.323 1.67-.445 2.459-.117 1.256.504 2.801.34 3.845-.546"/><path fill="#000" d="M20.844 1.942C22.08.78 24.135.652 25.537 1.596c.411.25.695.67 1.14.872.81.366 1.773.554 2.622.205 1.291-.531 2.877-.297 3.916.64.516.413.84.997 1.117 1.583.313.585.86 1.015 1.434 1.334.897.465 1.99.198 2.878.69a3.8 3.8 0 0 1 2.009 2.487c.08.437.071.883.151 1.319.274 1.045 1.032 1.998 2.07 2.38 1.015.45 1.758 1.405 2.011 2.47a4.9 4.9 0 0 1-.005 1.62c-.115.52-.456.983-.373 1.539-.09.888.252 1.784.876 2.422 1.011 1.051 1.372 2.762.644 4.062-.2.51-.581.915-.949 1.312-.672.848-.844 2.056-.465 3.065.266.752.338 1.578.14 2.355-.25 1.088-1.075 2.007-2.107 2.44-.818.284-1.39 1.01-1.736 1.77-.254.582-.155 1.232-.324 1.834-.238 1.209-1.193 2.196-2.325 2.652-.738.243-1.533.183-2.274.414 1.915 3.68 3.878 7.336 5.807 11.008.188.372.434.722.532 1.132.126.53-.282 1.114-.829 1.173-1.199.006-2.382-.211-3.575-.282-1.355-.015-2.695-.237-4.044-.328-1.302 2.068-2.648 4.106-3.954 6.172-.174.293-.38.567-.576.846-.489.3-1.224.26-1.533-.271-1.687-2.933-3.317-5.9-5.034-8.815-.438 1.818-1.04 3.595-1.52 5.402-.247.741-.408 1.507-.668 2.245-.116.5-.229 1.01-.535 1.438-.463.233-1.075.302-1.456-.115q-1.329-1.64-2.65-3.284c-.752-.95-1.544-1.872-2.277-2.838-2.213.692-4.436 1.35-6.65 2.038-.67.135-1.304.553-2.01.4-.214-.097-.375-.273-.554-.42-.073-.322-.134-.656-.023-.977Q6.92 48.22 9.4 40.853c-.88-.066-1.673-.487-2.316-1.066-.368-.436-.704-.91-.893-1.452-.191-.777-.115-1.619-.496-2.346-.363-.663-.883-1.288-1.604-1.58-.787-.346-1.495-.917-1.872-1.697-.435-.701-.45-1.562-.357-2.356.052-.554.42-1.024.441-1.586a3.7 3.7 0 0 0-.606-2.146c-.406-.484-.9-.939-1.074-1.567-.288-.962-.329-2.062.164-2.967.287-.75 1.078-1.17 1.33-1.938.13-.467.281-.944.242-1.434-.05-.771-.543-1.45-.513-2.232-.02-1.441.89-2.831 2.214-3.425 1.2-.449 1.998-1.7 2.02-2.953.014-1.821 1.61-3.462 3.451-3.538 1.138-.005 2.247-.596 2.868-1.54.247-.356.354-.79.627-1.13.8-1.13 2.283-1.687 3.646-1.46.623.07 1.173.448 1.812.424.857-.044 1.743-.305 2.36-.922m1.069 1.764c-1.451 1.125-3.506 1.462-5.239.829-.782-.365-1.808.053-2.15.828-.6 1.437-1.921 2.485-3.376 2.997-.527.106-1.056.194-1.59.238-.65.07-1.155.578-1.385 1.16-.11.538-.01 1.108-.21 1.632-.442 1.48-1.476 2.842-2.934 3.461a1.86 1.86 0 0 0-1.147 1.408c-.077.493.262.905.362 1.367.287 1.244.153 2.58-.42 3.727-.25.412-.514.82-.866 1.156-.462.433-.64 1.153-.406 1.742.168.579.685.949.98 1.455.767 1.274 1.075 2.89.57 4.312-.2.517-.396 1.112-.124 1.643.205.61.855.842 1.381 1.112 1.025.58 1.81 1.53 2.29 2.588.337.671.351 1.439.472 2.165.116.718.804 1.277 1.53 1.304.461.031.917.116 1.371.2 1.259.387 2.385 1.212 3.095 2.316.296.516.477 1.175 1.054 1.46.443.263 1.01.282 1.48.077 1.537-.6 3.358-.394 4.744.485.612.361 1.055 1.093 1.845 1.073.645.08 1.18-.323 1.616-.739 1.487-1.14 3.599-1.466 5.355-.776.53.194 1.124.032 1.572-.277.44-.356.555-.935.866-1.379.743-1.08 1.872-1.91 3.146-2.258.79-.223 1.765-.022 2.373-.686.638-.619.428-1.56.64-2.339.393-1.306 1.257-2.494 2.448-3.196.414-.221.906-.347 1.218-.718.338-.459.49-1.086.271-1.627-.25-.605-.359-1.261-.395-1.91.044-1.38.496-2.86 1.632-3.744.538-.613.512-1.601-.038-2.2-1.3-1.281-1.84-3.286-1.347-5.034.277-.622.476-1.385.102-2.01-.327-.539-.968-.692-1.478-.995-1.38-.915-2.403-2.435-2.503-4.099-.017-.544-.16-1.127-.609-1.482-.644-.543-1.55-.361-2.316-.579-1.263-.37-2.405-1.187-3.126-2.285-.323-.503-.46-1.176-1.038-1.47a1.58 1.58 0 0 0-1.536-.083c-1.685.594-3.675.313-5.101-.764-.432-.37-.874-.85-1.5-.82-.633-.077-1.157.322-1.58.735M11.342 41.418c-.139.593-.39 1.151-.56 1.736-1.28 3.771-2.536 7.55-3.82 11.322 2.25-.682 4.497-1.36 6.738-2.064.39-.107.862-.03 1.1.323a571 571 0 0 1 4.128 5.1c.53-2.027 1.17-4.025 1.723-6.047.555-1.814 1.03-3.651 1.606-5.46-.562-.195-1.104-.458-1.516-.897-.545-.583-1.368-.792-2.14-.87-.8-.076-1.488.432-2.275.454-1.534.148-3.09-.757-3.723-2.144-.254-.6-.682-1.135-1.261-1.453m21.774 2.793c-1.044.886-2.59 1.05-3.845.546-.789-.327-1.69-.206-2.459.118-.567.202-.928.712-1.428 1.02-.305.215-.674.307-1.01.463a23 23 0 0 0-.554 1.88c-.066.289-.304.612-.12.898 1.67 2.95 3.348 5.894 5.02 8.841 1.27-1.847 2.43-3.77 3.664-5.643.182-.312.49-.61.878-.613.759.01 1.514.103 2.27.172 1.35.166 2.716.147 4.064.342-.854-1.517-1.624-3.081-2.461-4.607-.918-1.77-1.884-3.516-2.78-5.295-.292.692-.63 1.401-1.24 1.878"/><path fill="#000" d="M21.197 8.445a28 28 0 0 1 4.325-.014c1.279.228 2.553.52 3.753 1.024 4.204 1.685 7.581 5.288 8.932 9.577.522 1.58.714 3.247.781 4.903-.02.347.014.719-.156 1.037-.004.932-.247 1.834-.467 2.734-1.196 4.465-4.55 8.302-8.84 10.12-1.25.57-2.6.879-3.947 1.141-1.524.14-3.062.144-4.584-.019-.863-.198-1.744-.335-2.575-.648-5.026-1.609-9.032-5.966-10.195-11.064-.193-.892-.414-1.788-.33-2.708-.117-2.214.212-4.456 1.065-6.51 1.638-4.103 5.148-7.441 9.376-8.852.92-.356 1.9-.515 2.861-.72m.115 2.04c-.927.189-1.86.389-2.734.755-2.546.942-4.763 2.7-6.302 4.913a13.2 13.2 0 0 0-2.37 7.189c.012.74.011 1.482.067 2.22.289 1.906.96 3.76 2.03 5.378 2.186 3.393 5.995 5.735 10.056 6.068a13.45 13.45 0 0 0 6.975-1.184c3.522-1.603 6.28-4.785 7.305-8.489.274-.795.334-1.638.483-2.46a12.86 12.86 0 0 0-1.074-6.562c-1.612-3.657-4.967-6.524-8.875-7.517-1.797-.533-3.71-.49-5.56-.311"/><path fill="#000" d="M29.342 17.823c.297-.387.87-.53 1.307-.294.35.125.51.51.552.85-.002.424-.29.766-.561 1.065-1.081 1.29-2.157 2.583-3.242 3.87-.524.617-1.012 1.268-1.595 1.836-1.392 1.657-2.776 3.321-4.169 4.976-.306.323-.55.764-1.008.895-.428.138-.817-.165-1.102-.445-.648-.662-1.322-1.3-1.973-1.956-.507-.486-1-.985-1.506-1.472-.228-.236-.5-.496-.48-.852-.047-.557.473-1.022 1.001-1.08.444.004.775.34 1.068.63.897.9 1.82 1.777 2.708 2.688.616-.818 1.314-1.569 1.952-2.367.42-.491.82-1 1.28-1.454 1.923-2.297 3.853-4.587 5.768-6.89"/></svg>