<svg xmlns="http://www.w3.org/2000/svg" width="48" height="49" fill="none"><path fill="#F7F7F7" d="M5.237 3.023c-.037-.452.372-.896.832-.86q12.655-.001 25.31-.001c.43-.056.89.309.864.757.01 1.1 0 2.202.004 3.304q-13.506.002-27.01-.001c0-1.066-.004-2.132 0-3.199M14.093 19.877q.149-.007.298-.012c.556.933 1.094 1.876 1.64 2.815.127.199.254.442.505.502 1.208.35 2.433.635 3.642.98.309.066.648.223.952.057 1.007-.55 1.975-1.173 2.982-1.72.35-.111.325.292.244.506-.44 1.722-.913 3.437-1.35 5.16-.273.87-.423 1.773-.72 2.635-.212.672-.796 1.183-1.452 1.403-1.251.33-2.497.686-3.75 1.013-.74.149-1.522-.158-2.038-.69q-1.25-1.243-2.497-2.49c-.287-.28-.472-.638-.596-1.016a3.1 3.1 0 0 1 .007-1.154c.044-.15.078-.303.114-.454q.63-2.344 1.237-4.696c.286-.94.456-1.911.782-2.84m1.012 6.997c.14.276.371.574.723.522.55.041.704-.588.801-1.004.226-.533-.378-1.155-.916-.925-.53.244-.526.911-.608 1.407m4.322-.395c-.442.243-.496.813-.52 1.263-.044.503.593.834 1.004.579.379-.24.42-.738.518-1.134.061-.52-.53-.925-1.002-.708m-2.976 2.229c-.4.262-.403.913 0 1.174.29.165.632.23.963.243.462.065.792-.47.656-.88-.067-.31-.375-.467-.657-.534-.305-.082-.68-.215-.962-.003M26.277 32.199c.803-.772 2.302-.513 2.78.502.13.329.469.61.84.528.38-.093.524-.484.724-.772.593-.867 2.004-.948 2.703-.167.305.268.373.765.784.91.332.136.72-.075.856-.392.236-.47.656-.869 1.172-1.005.503-.077 1.075-.083 1.49.256.537.348.798.998.801 1.62-.005.411.39.68.767.7.712.067 1.233.66 1.463 1.298-3.17.025-6.34-.001-9.51.012-.298-.004-.598.182-.685.472-.193.44.21 1.003.69.953 3.866.016 7.73-.022 11.594.02.386.265.532.73.737 1.129.84 1.652 1.664 3.312 2.504 4.964.137.308.172.651.17.986-.002.84-.005 1.68.001 2.52-.089.32-.342.644-.708.615q-13.759.01-27.516.001.002-1.677 0-3.355c-.003-.24.027-.48.135-.696.919-1.842 1.854-3.676 2.774-5.516.148-.284.323-.673.701-.658 2.027-.016 4.053-.005 6.08-.006.18-.01.379.02.537-.089.439-.2.492-.9.107-1.175a.78.78 0 0 0-.518-.167c-1.436-.006-2.872.007-4.308-.006.179-.554.58-1.02 1.122-1.245.432-.05 1.02-.145 1.1-.668.022-.57.143-1.193.613-1.569m2.767 7.217c-.645.14-1.259.485-1.675 1.002-.832.979-.855 2.55-.052 3.552.543.723 1.452 1.133 2.35 1.118q2.332 0 4.665.001c1.272.067 2.557-.77 2.9-2.016.27-.754.127-1.598-.254-2.287-.51-.878-1.519-1.453-2.538-1.41-1.798.025-3.601-.05-5.396.04"/><path fill="#48FDBC" d="M28.225 33.119c-.416-1.03-1.722-1.292-2.422-.51-.41.382-.515 1.015-.535 1.593-.07.53-.582.626-.958.677-.472.23-.822.701-.978 1.264 1.252.013 3.754.006 3.754.006l2.96.002s5.524.013 8.286-.013c-.2-.646-.654-1.249-1.274-1.315-.33-.021-.674-.294-.669-.71-.003-.633-.23-1.292-.699-1.645-.36-.344-.859-.338-1.297-.26-.45.138-.816.542-1.021 1.02-.119.321-.457.535-.746.398-.358-.148-.418-.652-.684-.924-.609-.792-1.838-.71-2.355.17-.174.292-.3.689-.63.783-.324.083-.62-.202-.732-.536"/><path fill="#F7F7F7" d="M8.658 38.186c1.213-2.122 2.513-4.2 3.77-6.297.432.46.895.89 1.338 1.34.312.303.607.632.985.854.683.448 1.53.616 2.336.538.986-.13 1.913-.525 2.887-.714.03.801-.014 1.607.081 2.406-1.089 1.964-2.03 4.012-3.073 6.005a3.66 3.66 0 0 0-.45 1.78l.001 3.252q-3.943.002-7.887 0c.008-3.055-.015-6.11.012-9.164M29.04 40.886c.313-.11.646-.102.972-.1 1.518.008 3.038-.007 4.556.008.773 0 1.458.729 1.4 1.5-.016.726-.672 1.358-1.393 1.385-1.675.01-3.35.004-5.024.002-.702-.004-1.336-.586-1.425-1.276-.093-.635.324-1.292.915-1.519M3.92 44.789c.21-.353.37-.743.658-1.043q.991 1.809 2.02 3.6-1.512.01-3.022 0c-.346.013-.66-.141-.951-.31.445-.742.854-1.503 1.295-2.247"/><path fill="#000" d="M4.004 2.109C4.355 1.305 5.183.742 6.067.759c8.475 0 16.95-.003 25.424.002 1.074-.01 2.033.86 2.163 1.92.072 1.375-.04 2.764.055 4.134 1.016 2.11 2.106 4.184 3.12 6.294.316.832.225 1.75.248 2.624-.006.397.06.92-.33 1.165-.393.318-1.019.014-1.084-.464-.04-.75.009-1.502-.02-2.254-.035-.506-.3-.951-.53-1.39-.85-1.73-1.731-3.444-2.576-5.176-8.958.003-17.914-.008-26.871.006.694 1.294 1.313 2.63 1.99 3.934.4.872.99 1.713.989 2.712.009 7.064-.006 14.129.006 21.193.888-1.552 1.849-3.061 2.75-4.605-.544-.587-.842-1.378-.922-2.166-.063-.619.122-1.225.295-1.81.588-2.291 1.205-4.575 1.8-6.864.093-.596.436-1.182 1.011-1.42.704-.368 1.62-.052 2.04.596.538.908 1.058 1.828 1.598 2.735 1.165.287 2.318.622 3.482.912.965-.525 1.888-1.121 2.856-1.64.852-.378 1.924.136 2.194 1.02.218.582-.056 1.175-.199 1.739-.593 2.28-1.196 4.555-1.797 6.832-.258 1.241-1.199 2.3-2.392 2.72.03.728.044 1.454.063 2.182q.296-.005.593-.007c.163-1.223 1.092-2.274 2.267-2.633.21-1.112.985-2.132 2.07-2.506 1.1-.452 2.444-.16 3.291.661.103.107.235-.021.314-.09.396-.377.918-.581 1.44-.716 1.042-.236 2.156.15 2.919.878.389-.335.813-.638 1.316-.777.027-3.638-.005-10.277.015-13.915-.001-.445.502-.846.928-.651.292.084.428.372.495.643-.007 3.591 0 10.184-.004 13.775a3.36 3.36 0 0 1 2.62 2.263q.025.202.055.407c1.185.375 2.148 1.412 2.314 2.66.865-.076 1.789.29 2.227 1.07.78 1.521 1.54 3.054 2.315 4.58.377.82.946 1.61.947 2.55.002.968.01 1.937-.005 2.906-.056 1.07-1.028 1.981-2.102 1.965-13.73.006-27.46 0-41.19.003-.51.004-1.03.016-1.522-.142C1.409 48.256.449 46.938.45 45.577q-.005-2.1 0-4.2c-.033-.44.441-.822.864-.71.27.073.534.301.53.6.014 1.432-.004 2.865.007 4.298.665-1.162 1.35-2.314 1.988-3.49.036-3.703-.007-7.409.022-11.112.016-.522.712-.856 1.112-.493.333.24.262.681.268 1.037.004 3.525-.018 7.05.01 10.574a188 188 0 0 0 1.997 3.549V14.949c0-.49.045-1.008-.197-1.455-.607-1.196-1.186-2.407-1.81-3.595-.007 4.858.006 9.716-.007 14.573.031.434-.462.813-.872.665-.339-.083-.536-.442-.51-.776-.001-4.823.004-9.644-.001-14.466-.628 1.216-1.223 2.449-1.843 3.668-.21.509-.156 1.07-.16 1.608-.001 7.64.004 19.281-.002 26.922.035.385-.33.622-.655.714-.187-.079-.421-.089-.55-.264-.247-.24-.187-.6-.195-.91.006-7.791-.002-19.585.005-27.376-.01-.937.536-1.738.921-2.551.817-1.65 1.654-3.29 2.463-4.944.047-1.303-.004-2.61.022-3.915.013-.252.088-.494.147-.738m1.235.914c-.003 1.067 0 2.133 0 3.199q13.505.003 27.01 0c-.003-1.1.006-2.203-.003-3.303.026-.448-.433-.813-.865-.757q-12.654 0-25.309.001c-.46-.036-.869.408-.833.86m8.853 16.854c-.325.928-.496 1.9-.782 2.839a473 473 0 0 1-1.236 4.696c-.037.151-.07.304-.115.454-.08.38-.07.772-.007 1.154.124.378.309.736.596 1.017.83.831 1.666 1.659 2.497 2.49.517.531 1.298.838 2.038.69 1.253-.328 2.499-.684 3.75-1.014.656-.22 1.24-.73 1.453-1.403.296-.862.446-1.765.72-2.634.436-1.724.91-3.439 1.35-5.161.08-.214.105-.617-.244-.506-1.008.547-1.976 1.17-2.982 1.72-.304.166-.644.01-.952-.057-1.21-.345-2.434-.63-3.643-.98-.25-.06-.378-.303-.505-.502-.546-.939-1.083-1.882-1.64-2.815q-.15.005-.298.012m12.184 12.321c-.47.376-.59 1-.613 1.57-.08.523-.668.617-1.1.667a2 2 0 0 0-1.122 1.246c1.437.012 2.873 0 4.308.005a.78.78 0 0 1 .519.167c.385.276.331.976-.108 1.176-.158.109-.356.08-.537.088-2.026.001-4.053-.01-6.08.006-.377-.015-.553.374-.7.658-.92 1.84-1.856 3.674-2.775 5.517a1.5 1.5 0 0 0-.135.695q.002 1.679 0 3.356 13.759.007 27.516-.002c.367.029.62-.294.709-.616-.006-.84-.004-1.679-.002-2.519.003-.334-.033-.678-.17-.986-.84-1.652-1.664-3.312-2.503-4.964-.205-.4-.352-.863-.738-1.129-3.863-.042-7.728-.003-11.593-.02-.48.05-.884-.513-.69-.952.087-.29.386-.477.683-.472 3.17-.014 6.341.012 9.512-.013-.23-.638-.752-1.231-1.463-1.297-.378-.02-.773-.29-.767-.7-.004-.623-.265-1.273-.802-1.62-.415-.34-.986-.334-1.49-.257-.515.136-.935.535-1.171 1.006-.136.316-.524.527-.857.392-.41-.146-.479-.643-.784-.911-.699-.78-2.11-.7-2.703.167-.2.288-.344.68-.723.773-.372.081-.711-.2-.84-.53-.478-1.014-1.977-1.272-2.78-.5m-17.618 5.99c-.026 3.053-.003 6.108-.011 9.163q3.943.002 7.887 0l-.001-3.252a3.66 3.66 0 0 1 .45-1.78c1.042-1.993 1.984-4.041 3.073-6.005-.095-.799-.05-1.605-.082-2.406-.973.189-1.9.584-2.886.714-.807.078-1.653-.09-2.337-.538-.377-.222-.672-.551-.984-.853-.443-.45-.906-.88-1.338-1.341-1.258 2.098-2.558 4.175-3.77 6.297M3.921 44.79c-.44.744-.85 1.505-1.295 2.247.29.169.605.323.951.31q1.51.01 3.022 0a212 212 0 0 1-2.02-3.6c-.288.3-.448.69-.658 1.043"/><path fill="#000" d="M27.612 13.998c.196-.181.473-.15.72-.154.983.007 1.968-.006 2.951.004.448-.009.854.503.664.93-.09.291-.375.436-.652.502-1.03-.005-2.06 0-3.089-.002-.323.014-.668-.124-.818-.425-.109-.297-.053-.67.224-.855M27.79 16.516c1.074-.123 2.177-.016 3.262-.055.37-.056.77.129.9.493.193.472-.295 1.002-.78.943-1.094-.017-2.195.035-3.286-.026-.666-.12-.741-1.145-.097-1.355M20.612 13.998c.196-.181.473-.15.72-.154.983.007 1.968-.006 2.951.004.448-.009.854.503.664.93-.09.291-.375.436-.652.502-1.03-.005-2.06 0-3.089-.002-.323.014-.668-.124-.818-.425-.109-.297-.053-.67.224-.855M15.106 26.874c.081-.495.078-1.163.608-1.407.537-.23 1.141.392.915.925-.097.416-.252 1.045-.8 1.004-.353.052-.584-.246-.724-.522M19.428 26.48c.471-.218 1.063.188 1.002.708-.098.396-.14.894-.518 1.134-.411.255-1.048-.076-1.004-.58.024-.45.078-1.02.52-1.262M16.45 28.708c.28-.212.656-.08.962.004.28.066.59.223.657.533.136.41-.195.945-.656.88-.332-.012-.673-.078-.964-.242-.402-.261-.4-.913 0-1.175M29.044 39.415c1.796-.09 3.598-.015 5.397-.04 1.019-.043 2.028.532 2.538 1.41.38.69.523 1.533.255 2.287-.344 1.246-1.629 2.083-2.9 2.016q-2.333-.001-4.666-.001c-.898.015-1.807-.395-2.35-1.118-.803-1.003-.78-2.573.052-3.552.416-.517 1.03-.862 1.674-1.002m-.002 1.47c-.591.227-1.007.884-.914 1.52.088.69.722 1.272 1.425 1.275 1.673.002 3.348.008 5.023-.002.722-.026 1.378-.658 1.393-1.386.058-.77-.627-1.499-1.4-1.499-1.518-.014-3.037 0-4.556-.008-.325-.002-.659-.01-.97.1"/></svg>