<svg xmlns="http://www.w3.org/2000/svg" width="64" height="61" fill="none"><path fill="#fff" d="m38.195 55.142 24.407-.33v-2.32l-6.42-10.245-1.51-4.202 1.227-3.304.283-3.541-1.51-3.635-1.228-1.18-4.202 3.163-3.73-5.855.614-3.635-.897-3.068-.472-4.435 1.653-2.27 1.652-.708.755-1.888V6.231l-2.407-.997-1.653-1.127-1.841-.242-1.51 1.37.99 2.454-.708 2.36-1.227 2.88H39.14L33.946 2.921l-2.172-1.175-2.313 2.36-1.51 2.125-2.267-2.974-1.227-1.087-2.55 3.73-1.274 2.69 1.84 3.023 2.361.942-1.038 1.936-6.043 9.206-.567-1.838H14.07l-1.794.802-2.03 5.098-1.227 1.886v4.294l.52 5.05-5.808 9.304-2.692 4.91 1.512 1.939h19.403l7.506 1.224z"/><path fill="#48FDBC" d="M43.134 5.89c.3-.07.62-.053.921.001.3.22.568.514.668.879.068.24.23.456.43.6.266.048.542.057.807-.002.218-.096.429-.24.68-.212.48-.05.919.257 1.142.663.077.361.091.754-.034 1.106-.307.454-.895.46-1.361.64-.253.136-.562.154-.782.35-.437.315-.389.833-.665 1.288-.103.452-.393.833-.487 1.286-.08.308-.27.57-.398.858-.06.078-.125.253-.253.176-.452-.116-1.654-.624-2.144-.611-.007-.691.52-1.207.658-1.858.076-.237.226-.444.303-.68.12-.515.616-.972.55-1.495-.046-.6-.453-1.082-.768-1.57-.09-.26-.023-.54.024-.802.29-.149.376-.533.709-.617M13.167 25.205c.335-.157.596-.47.981-.503.466-.076.95-.07 1.406.057.26.11.487.287.739.417.134.059.185.205.267.316.137.218.402.339.492.59.13.417.273.832.374 1.258.039.254-.004.535.11.769.204.204.44.455.757.418.63-.085 1.29-.125 1.902.078.567.381 1.033.93 1.262 1.581.114.488.113.995.057 1.491-.013.281-.035.637.24.806.324.21.665.4 1.024.547.427.298.703.747 1.015 1.157.166.242.125.558.246.819.129.258.104.557.116.838-.012.327.024.68-.133.98-.114.289-.067.637-.274.888a5 5 0 0 0-.412.584c-.294.403-.718.674-1.106.976-.228.124-.509.125-.716.288a3.3 3.3 0 0 1-.524.299c-.576.386-.625.535-.997 1.119-.079.226-.636-.453-.772-.256-.419-.352-.193-.967-.437-1.41-.162-.503-.165-1.085.072-1.566.06-.17.092-.35.172-.512.29-.397.585-.8.965-1.118.199-.16.4-.318.593-.485.362-.2.733-.383 1.097-.578.383-.293.273-.844.167-1.247-.285-.132-.536-.396-.878-.306-.41.147-.808.34-1.175.578-.352.158-.253.77-.576.975-.37.233-.887.384-1.293.567-.09-.649-.357-1.258-.435-1.91-.07-.415-.061-.883.19-1.24.237-.394.273-.976.641-1.24.235-.243.721-.276.897-.587.087-.214.51-.051.47-.296a7 7 0 0 0-.249-.569c-.172-.087-.359-.141-.532-.227-.208-.104-.393.088-.586.138-.418.125-.727.453-1.104.657-.122.052-.148.193-.21.297q-.133.012-.265.03c-.003-.351-.206-.654-.22-1.002a3.5 3.5 0 0 0-.298-1.262c-.183-.278-.493-.509-.84-.47-.292-.017.244.555-.005.661-.107.438.094.652.172 1.089.134.491.335.808.364 1.322-.154-.033-1.142.075-1.283 0-.247-.13-.54-.076-.801-.155-.266-.099-.56-.091-.837-.06-.374.167-.143-.13-.08.326-.048.33.237.548.448.75.277.24.666.094.995.157.343.061.734.008 1.022.24.226.157.477.285.67.485.272.395.891 2.463.959 2.937.165.455-.89-.038-.833.44-.402-.14-.782-.333-1.168-.512-.464-.12-.957-.075-1.416-.22-.492-.07-.433.015-.867.292.52.086.502.425-.248.425-.113.395-.097.088.187.342.425.134.878.053 1.314.104.327.009.626.151.945.205.313.136.73.38.993.62.305.25.688.413.916.75.255.37.835.959.85 1.44.02.425.313 1.506.422 1.913.563-.23.757.379.74.538-.26-.352-2.063-1.153-2.413-1.398-.512-.213-1.005-.49-1.554-.598-.836-.141-1.707.078-2.53-.158-.36-.234-.817-.32-1.101-.658-.13-.15-.306-.245-.452-.373-.504-.546-.812-1.24-1.034-1.94-.049-.402-.681-.907-.257-1.332.105-.472.019-1.077.257-1.493.281-.324 1.24-.403 1.098-.874q-.23-.405-.46-.807c-.185-.29-.15-.65-.266-.966-.086-.214-.544-.995-.457-1.208.121-.31.071-.683.288-.953.108-.145.21-.293.322-.434q.29-.208.573-.427c.4-.13.353-.327.657-.651.287-.202.217-.601.187-.902-.125-.452.575-.199.607-.683-.05-.581.177.12.416-.395.152-.188.305-.374.44-.573M50.666 30.023c.333.013.332.36.444.595.25.412.485.848.548 1.332a66 66 0 0 1-2.873.074c.541-.743 1.34-1.257 1.88-2M48.457 33.938c.793-.089 1.606.025 2.383-.171.279-.018.56-.018.84-.025-.02.309-.018.623-.107.921-.147.396-.383.75-.548 1.139-.072.17-.193.313-.299.464-.08-.247-.282-.401-.484-.543-.169-.242-.357-.473-.619-.62a2 2 0 0 0-.437-.44c-.185-.298-.512-.453-.729-.725M47.071 36.228c.114-.304.043-.647.203-.935.097.283.33.463.557.636.495.521.993 1.038 1.524 1.524.063.241-.228.357-.403.447-.358.072-.647.304-.98.434-.321.06-.645.095-.968.133.032-.746.022-1.493.067-2.239M44.758 35.982c.145-.17.325-.307.51-.431-.01.944-.076 1.888-.06 2.834-.3-.007-.618-.024-.87-.207-.333-.228-.795-.23-1.053-.561-.066-.215.165-.313.285-.442.397-.397.798-.79 1.188-1.193"/><path fill="#fff" d="M30.65 42.938c.405-.125.837-.059 1.255-.074.39-.036.739.162 1.12.204.343.02.582.292.885.419.356.15.625.436.913.684.481.446.873.979 1.212 1.538.115.304.303.571.443.862.18.601.404 1.19.618 1.777.084.436.087.884.173 1.319.132.362.07.755.087 1.133-.017.394.051.806-.088 1.186-.106.501-.043 1.045-.267 1.518-.161.477-.408.92-.543 1.406-.28.3-.375.719-.663 1.012-.398.593-.952 1.052-1.462 1.547-.314.141-.54.424-.867.538-.405.138-.73.445-1.137.574-.336.07-.686.08-1.005.214-.627.112-1.27.084-1.903.056-.401-.004-.762-.205-1.16-.231-.378-.016-.67-.27-.975-.46-.164-.123-.379-.142-.545-.258-.332-.286-.737-.49-.984-.865-.416-.261-.66-.707-.937-1.097-.21-.461-.61-.83-.695-1.344-.105-.385-.32-.74-.361-1.142a13 13 0 0 1-.008-3.21c.04-.45.275-.848.385-1.28.099-.558.545-.962.704-1.5.867-1.353 1.926-2.656 3.335-3.479.26-.184.498-.427.823-.492.268-.058.481-.237.722-.354.302-.096.625-.1.925-.201m-1.19 4.812c-.507-.004-.916.318-1.375.481-.163.053-.273.192-.402.297-.348.295-.769.53-1.001.938-.107.19-.328.296-.38.518-.064.212-.185.398-.29.592-.21.337-.158.763-.346 1.112-.109.552-.079 1.123-.049 1.681-.002.304.184.558.218.855.052.428.34.766.502 1.154.16.199.323.397.48.6.302.377.727.616 1.11.9.372.115.717.3 1.087.423.544.107 1.103.09 1.655.064.488-.008.914-.27 1.366-.418.321-.088.53-.372.83-.503.376-.33.726-.691 1.029-1.09.197-.36.424-.701.614-1.065.125-.327.09-.692.214-1.019.103-.249.078-.527.088-.79-.011-.35.035-.716-.107-1.046-.129-.364-.054-.793-.29-1.116a11 11 0 0 1-.534-.883c-.15-.175-.319-.335-.442-.53-.282-.184-.533-.407-.792-.619-.34-.155-.666-.355-1.023-.472-.71-.139-1.443-.139-2.162-.064"/><path fill="#48FDBC" d="M29.343 50.907c.303-.075.623-.026.909.091.33.04.572.277.799.498.28.228.368.595.547.895.097.452.09.926.012 1.381-.082.232-.22.442-.306.674-.041.141-.175.219-.262.33-.095.11-.166.254-.306.317-.223.102-.405.284-.644.35a2.94 2.94 0 0 1-1.39-.034 2.7 2.7 0 0 1-.945-.821 4.7 4.7 0 0 1-.33-.878 4 4 0 0 1-.003-.702c.076-.353.21-.69.35-1.02.282-.33.586-.647.945-.891.206-.07.424-.103.624-.19"/><path fill="#000" d="M31.236.713c.519-.156 1.087-.117 1.618-.04.424.242.894.493 1.108.96.154.358.479.613.61.983.12.375.44.637.557 1.015.34.525.68 1.05.958 1.61.084.3.374.484.457.784.112.404.466.672.63 1.05.118.258.3.482.411.746.151.38.495.65.623 1.045.085.3.373.484.456.783.122.424.5.706.66 1.11.3.473.487 1.007.872 1.425.203-.457.517-.87.615-1.368.088-.378.353-.686.43-1.068.055-.293.25-.53.351-.807.023-.18.02-.362.005-.54-.24-.601-.802-1.062-.848-1.736-.045-.331-.248-.653-.118-.992.172-.372.08-.824.328-1.164.175-.258.322-.546.576-.739.241-.203.447-.47.758-.574.365-.133.702-.368 1.1-.4.496-.044 1.027-.049 1.476.203.247.152.557.18.778.378.327.273.587.624.922.885.548-.016 1.112-.072 1.652.069.27.14.524.315.815.417.387.32.721.706 1.036 1.099.102.285.137.591.263.87.117.607.105 1.26-.136 1.837-.023.416-.34.693-.603.974-.2.411-.664.522-1.022.75-.352.253-.823.111-1.206.276-.274.155-.556.345-.693.638-.118.211-.134.46-.216.684-.136.271-.28.537-.418.808-.148.276-.128.61-.299.877-.164.274-.316.57-.336.895.073.365.41.582.547.915.191.388.508.72.59 1.155.087.358.241.695.354 1.044.107.483.119.979.168 1.468a2.64 2.64 0 0 1-.003 1.466c-.049.816-.114 1.643-.466 2.394-.164.295.084.54.245.762.352.617.65 1.267 1.1 1.822.101.29.236.562.432.802.174.371.389.719.624 1.054.185.381.398.75.653 1.09.901-.841 1.72-1.768 2.627-2.606.285-.232.639-.419 1.019-.38.645-.005 1.124.503 1.472.991.363.356.566.831.88 1.225.145.604.67 1.037.745 1.662.099.387.329.735.37 1.138.048.341.066.692.204 1.012.113.778.083 1.571.073 2.355-.026.369.005.757-.157 1.1-.092.357-.076.734-.18 1.09-.126.362-.283.714-.37 1.09-.159.529-.598.943-.677 1.501.029.466.373.804.614 1.174.292.684.775 1.264 1.056 1.953.197.308.476.565.58.926.37.651.77 1.288 1.143 1.94.235.29.304.673.539.963.127.17.282.324.358.527.124.377.407.669.564 1.031.259.347.364.784.655 1.109.268.316.34.748.618 1.058.407.767.924 1.473 1.285 2.265.184.292.447.54.553.877.11.376.393.704.372 1.114.064.519-.268.952-.44 1.415-.459.487-1.07.93-1.77.905-7.915.007-15.831-.011-23.747.01-.252.393-.455.822-.767 1.172-.294.593-.894.943-1.269 1.477-.413.322-.833.634-1.265.927-.517.174-.896.635-1.45.708-.41.074-.745.37-1.165.4-.411.066-.834.06-1.232.192-.47.025-.944.03-1.415-.002-.595-.202-1.272-.075-1.833-.385-.204-.087-.403-.193-.624-.229-.497-.082-.832-.498-1.28-.693-1.048-.63-1.874-1.564-2.56-2.564-.135-.361-.473-.616-.523-1.01q-9.917-.005-19.834 0c-.364-.009-.758.039-1.09-.146-.24-.13-.475-.27-.736-.35-.071-.212-.24-.354-.403-.493-.129-.275-.163-.586-.297-.86-.06-.331-.077-.7.078-1.01.11-.242.117-.53.297-.739.21-.271.32-.604.538-.87.244-.307.34-.7.588-1.002.185-.2.191-.495.366-.7.201-.252.316-.557.503-.817.286-.381.434-.845.736-1.215.15-.5.52-.881.822-1.295.241-.131.538-.325.812-.163.259.162.604.362.594.712.015.24.008.483-.045.72-.12.251-.344.445-.44.713-.137.366-.436.64-.594.997-.108.284-.36.487-.443.784-.12.406-.522.648-.63 1.057-.123.332-.404.578-.515.919-.282.412-.522.851-.777 1.28-.057.172-.022.355-.023.532.394.061.792.04 1.19.043h15.204c1.15-.007 2.3.015 3.451-.013a3.7 3.7 0 0 1-.213-1.205c-.008-1.173-.117-2.395.33-3.508.108-.355.14-.735.335-1.059.206-.331.184-.76.452-1.055.173-.21.212-.49.363-.713.12-.226.322-.395.44-.623.334-.56.794-1.026 1.206-1.527.304-.258.514-.617.872-.812.291-.299.655-.514.946-.814.148-.172.395-.19.566-.329.35-.296.815-.39 1.181-.667.683-.174 1.329-.467 2.012-.635a11 11 0 0 1 2.035-.012c.673.114 1.28.45 1.935.63.529.38 1.157.636 1.59 1.14.183.234.449.385.59.653.357.274.545.69.808 1.044.136.172.179.395.305.572.204.294.414.596.481.954.09.375.376.677.417 1.065.06.5.252.969.372 1.456.033.306.06.616.174.906.087.931.078 1.873.007 2.806-.103.304-.142.622-.195.939-.108.258-.159.534-.174.815 4.937-.018 9.873-.003 14.81-.008 2.773-.01 5.547.02 8.32-.015.138-.462-.092-.922-.407-1.249-.101-.385-.34-.7-.59-1.002-.291-.708-.793-1.307-1.08-2.014-.164-.276-.425-.49-.53-.8-.106-.285-.308-.518-.444-.787-.171-.398-.47-.724-.654-1.115-.102-.237-.3-.42-.384-.664-.123-.43-.536-.696-.668-1.123-.255-.473-.533-.934-.799-1.402-.16-.452-.569-.763-.703-1.225-.159-.312-.41-.572-.525-.907-.301-.437-.55-.902-.822-1.355-.126.164-.296.284-.446.425-.361.314-.648.717-1.077.946-.15.23-.395.325-.633.434-.39.326-.874.497-1.299.768-.259.177-.59.182-.856.345-.277.107-.56.3-.87.204a5 5 0 0 1-.63-.456c-.106-.287-.095-.605-.04-.902.189-.204.365-.47.665-.506.564-.103 1.013-.482 1.534-.693.255-.157.49-.345.773-.454.365-.373.79-.683 1.189-1.022.298-.355.573-.73.878-1.08.196-.433.581-.755.718-1.217.182-.39.39-.773.46-1.204.25-.574.35-1.193.474-1.801.03-.59.024-1.182.011-1.773.012-.382-.152-.736-.183-1.113-.15-.495-.328-.983-.461-1.483-.267-.43-.344-.958-.71-1.323-.264-.253-.297-.736-.653-.868-.368.367-.703.77-1.12 1.084.159.316.465.533.594.868.129.366.418.665.47 1.059.083.52.395.98.42 1.513a16 16 0 0 1 0 2.13c-.032.52-.353.961-.42 1.473-.093.412-.392.74-.497 1.15-.346.378-.568.846-.926 1.21-.305.43-.793.676-1.173 1.031-.347.362-.859.457-1.25.759-.614.138-1.185.44-1.815.51-.4.175-.842.132-1.267.143-.311-.012-.637.02-.93-.104-.27-.092-.57-.061-.831-.185-.523-.224-1.116-.266-1.57-.635-.397-.133-.73-.38-1.027-.673-.348.412-.76.765-1.135 1.154.59.617 1.405.926 2.137 1.336.342.219.77.19 1.132.357.16.063.335.074.495.138.401.182.855.1 1.276.194.194.136.312.363.511.5.02.229.058.468-.016.692-.26.333-.62.738-1.092.626-.347-.144-.732-.119-1.082-.253-.442-.108-.927-.07-1.327-.318-.355-.21-.785-.227-1.13-.453-.824-.48-1.692-.916-2.383-1.587-.24-.283-.54-.572-.563-.965-.006-.31-.041-.664.167-.921.307-.5.794-.847 1.146-1.312.177-.16.425-.216.568-.422.165-.12.19-.33.297-.49.4-.34.718-.767 1.158-1.062 2.028-2.02 4.041-4.053 6.067-6.074.101-.182.01-.386-.046-.564-.095-.367-.418-.604-.581-.936-.139-.365-.407-.66-.552-1.023a3.6 3.6 0 0 1-.49-.927c-.395-.376-.556-.899-.817-1.36-.245.414-.562.777-.845 1.164-.174.155-.32.338-.428.544-.744.62-1.418 1.382-2.345 1.74-.228.118-.42.309-.682.352-.65.212-1.299.438-1.969.568-.627.014-1.283.093-1.885-.122-.54-.082-1.028-.34-1.544-.502-.232-.164-.455-.34-.728-.432-.448-.303-.817-.705-1.193-1.087-.112-.374-.139-.81.082-1.15.3-.296.787-.356 1.168-.195.35.265.679.562.965.896.32.139.624.31.934.468.333.119.7.098 1.032.225.637.158 1.251-.097 1.876-.176.343-.073.63-.287.96-.4.458-.136.763-.537 1.182-.75.217-.289.566-.436.76-.746.4-.403.742-.867 1.016-1.367.147-.263.394-.471.451-.78.078-.352.31-.642.406-.985.103-.55.306-1.075.397-1.629.111-1.098.112-2.245-.31-3.283-.067-.458-.354-.83-.532-1.245-.484-.704-1.108-1.323-1.872-1.72-.515-.18-1.037-.342-1.577-.427-.755-.06-1.46.26-2.182.424-.36.2-.695.443-1.074.606-.363.32-.803.55-1.116.928-.566.541-.949 1.232-1.402 1.863-.137.326-.271.65-.466.947-.11.441-.203.885-.377 1.308-.145.28-.082.612-.203.901-.226.808.06 1.662-.114 2.472-.02.257-.304.304-.476.435-.348.163-.694-.039-1.009-.183-.065-.247-.248-.457-.238-.721a15 15 0 0 1-.001-1.955c-.006-.333.205-.628.168-.964-.029-.321.03-.636.111-.944l.158-.072-.01-.363c.282-.02.146-.339.227-.522.162-.48.488-.882.681-1.348a10 10 0 0 1 3.043-3.326c.53-.246.95-.737 1.58-.736.082-.483-.331-.82-.552-1.195-.158-.388-.419-.72-.583-1.103-.195-.305-.469-.573-.568-.932-.053-.245-.3-.373-.38-.605-.154-.385-.419-.71-.582-1.09a6.6 6.6 0 0 1-.626-1.053q-.252-.301-.393-.665c-.149-.368-.474-.625-.605-1-.27-.462-.494-.947-.824-1.37-.19-.223-.202-.544-.417-.747-.158-.17-.23-.391-.3-.606-.175-.024-.369-.071-.53.032-.349.391-.51.9-.812 1.323-.137.362-.393.656-.612.967-.115.437-.458.753-.615 1.17-.18.315-.453.618-.438 1.003.071.365.125.736.252 1.088.186.817-.04 1.642-.245 2.429-.206.352-.442.688-.615 1.06a5.4 5.4 0 0 1-1.389 1.266c-.66.33-1.332.675-2.08.755-.038.411-.406.663-.537 1.037-.105.312-.34.551-.51.828a19 19 0 0 1-1.067 1.837c-.116.316-.342.568-.507.858.076.421-.337.652-.459 1.012-.047.15-.202.233-.23.39-.185.458-.629.754-.807 1.22-.108.335-.366.582-.55.874a14.5 14.5 0 0 1-1.114 1.902c-.113.265.034.558.04.835.595.073 1.25-.01 1.776.33.198.113.413.184.625.265.623.396 1.087.98 1.503 1.585.318.48.429 1.058.604 1.599.118.425-.016.886.134 1.298.65.18 1.091.735 1.536 1.209.185.314.454.582.563.936.098.316.338.575.39.906a11.1 11.1 0 0 1 .007 3.27c-.032.28-.27.495-.201.793-.278.087-.252.464-.267.707-.185.023-.168.201-.206.34-.092.093-.165.21-.274.283-.36.18-.577.533-.885.779-.391.305-.762.66-1.253.796-.402.25-.9.348-1.22.714-.2.213-.42.408-.602.637-.214.215-.192.546-.354.793-.125.397-.25.796-.32 1.208-.183.405-.563.672-.905.937-.16.11-.308.262-.51.283-.48.097-.97.116-1.452.034-.37-.01-.624-.315-.896-.525-.433-.278-.633-.787-1.021-1.111-.359-.233-.704-.515-1.152-.536-.79-.345-1.682-.01-2.498-.242-.39-.171-.851-.1-1.212-.343a14.5 14.5 0 0 1-1.7-1.066c-.079.444-.496.697-.592 1.13-.111.28-.338.49-.497.74-.184.422-.46.795-.634 1.22-.202.182-.315.42-.383.679-.227.237-.525.504-.879.468-.315-.01-.657-.18-.78-.483a1.64 1.64 0 0 1 .28-1.452c.253-.32.413-.697.646-1.03.166-.213.17-.511.368-.702q.352-.392.51-.893c.301-.324.414-.759.67-1.112.188-.227-.052-.476-.15-.682-.184-.264-.162-.596-.258-.89-.208-.416-.158-.897-.178-1.35.02-.45-.034-.935.182-1.35.091-.277.081-.59.24-.843q.239-.422.48-.843c.058-.139-.07-.24-.126-.35-.331-.9-.579-1.867-.401-2.828.124-.452.24-.91.427-1.34.375-.475.632-1.066 1.175-1.38.308-.169.526-.469.862-.591-.131-.937-.145-1.905.063-2.83.393-.801.786-1.646 1.499-2.215.315-.142.538-.439.88-.523.425-.154.837-.378 1.298-.393.492-.025.993-.042 1.479.052.354.095.689.254 1.034.377.292.098.508.33.78.47.157.068.22.243.334.36.127.068.275.058.415.072.047-.295.24-.52.407-.754.134-.276.239-.569.44-.806.4-.77.926-1.468 1.275-2.264.177-.26.414-.485.517-.788.072-.211.198-.395.328-.574.404-.766.923-1.467 1.278-2.26.23-.31.475-.644.531-1.035-.346-.08-.646-.274-.967-.415a2.8 2.8 0 0 0-.636-.417c-.216-.337-.54-.581-.762-.914-.423-.368-.467-.959-.739-1.425a5.5 5.5 0 0 1-.01-2.531c.16-.376.322-.753.431-1.148.512-.773.83-1.662 1.42-2.384.34-.46.567-1.007.98-1.412.26-.555.73-.994 1.243-1.32.47-.134 1.011-.131 1.431.145.588.395.91 1.048 1.311 1.61.196.147.325.348.41.575.296.417.55.864.87 1.266.146-.37.46-.643.593-1.018.165-.403.508-.698.661-1.106.302-.543.608-1.088.966-1.595.242-.171.496-.33.734-.51M23.728 4.88c-.178.367-.527.628-.654 1.024-.09.273-.335.456-.42.73-.096.319-.355.564-.424.892-.085.409-.37.765-.377 1.192-.053.584.271 1.1.47 1.627.21.201.342.476.588.642.263.227.532.48.892.53.264.028.482.211.75.206.33.007.681.049.987-.1.22-.097.46-.122.693-.168.357-.32.757-.6 1.058-.978.149-.266.297-.536.417-.817.123-.525.152-1.09-.003-1.611a9 9 0 0 1-.456-1.126c-.23-.321-.48-.636-.588-1.024-.456-.58-.739-1.283-1.248-1.824-.188-.255-.321-.555-.583-.751-.343.534-.797.994-1.102 1.556m19.604-.142c-.367.093-.461.517-.78.68-.053.29-.126.599-.028.885.348.537.796 1.067.846 1.728a4.9 4.9 0 0 1-.082 1.735c-.085.26-.25.488-.333.75-.152.716-.733 1.285-.725 2.046.539-.014.942.383 1.44.51.141.085.213-.108.28-.194.14-.316.348-.605.438-.945.103-.5.422-.919.536-1.417.304-.501.65-.996 1.13-1.343.243-.216.584-.236.862-.386.514-.198 1.162-.204 1.5-.704.137-.389.121-.82.037-1.219-.246-.447-.73-.786-1.258-.73-.277-.032-.509.127-.75.234a2.3 2.3 0 0 1-.888.001c-.222-.159-.4-.396-.474-.66-.111-.403-.406-.727-.736-.969-.332-.06-.684-.079-1.015-.002M13.377 22.903c-.143.212-.305.409-.466.608-.254.547-.494 1.131-.441 1.747-.035.514.244.965.376 1.443.032.32.106.743-.198.957-.322.343-.807.4-1.231.536q-.299.232-.607.453c-.119.15-.227.306-.341.46-.23.286-.177.682-.306 1.01a.97.97 0 0 0-.001.716c.122.334.085.716.28 1.025.166.282.325.57.489.855.151.499-.249.906-.547 1.25-.252.441-.52.886-.632 1.386-.024.427-.037.86.015 1.285.236.743.562 1.478 1.096 2.057.155.136.342.237.479.396.301.359.786.45 1.168.698.872.25 1.795.017 2.682.167.582.114 1.105.408 1.648.634.37.26.785.46 1.062.832a.85.85 0 0 0-.074-.491c-.115-.432-.27-.857-.293-1.308-.015-.51-.41-.872-.68-1.266-.243-.356-.648-.528-.972-.794-.277-.254-.672-.266-1.003-.41-.339-.057-.656-.208-1.003-.217-.462-.055-.942.03-1.393-.11-.301-.27-.554-.68-.434-1.099q.112-.238.245-.465c.46-.293 1.013-.291 1.534-.217.487.153 1.01.104 1.502.232.409.19.812.394 1.238.543-.06-.506-.1-1.022-.276-1.504a3.3 3.3 0 0 0-.537-1.404c-.205-.212-.471-.349-.712-.515-.305-.245-.72-.189-1.083-.254-.349-.067-.76.087-1.054-.167-.225-.213-.526-.445-.475-.794-.067-.484.368-.841.765-1.019.294-.032.605-.04.887.065.278.083.587.026.85.164.15.079.32.096.483.131-.03-.545-.253-1.052-.396-1.572-.083-.464-.144-.936-.03-1.4.264-.112.43-.434.74-.415.368-.042.697.202.89.497.19.421.294.876.316 1.338.015.37.23.69.233 1.062q.141-.019.282-.031c.065-.11.092-.26.222-.315.4-.217.727-.564 1.17-.697.205-.053.401-.256.621-.146.184.09.382.148.565.24q.145.296.264.604c.042.26-.145.47-.237.696-.187.33-.632.278-.88.534-.392.281-.761.603-1.011 1.02-.267.379-.277.876-.203 1.316.083.69.365 1.337.462 2.024.43-.193.61-.677 1.003-.924.342-.216.605-.543.978-.71a6 6 0 0 1 1.245-.614c.364-.095.63.185.931.325.113.428.23 1.011-.177 1.322-.385.207-.778.401-1.162.613-.204.178-.418.345-.63.514-.403.338-.715.764-1.022 1.186-.085.171-.12.361-.182.542-.252.51-.249 1.127-.077 1.66.259.47.02 1.123.464 1.496.143-.21.265-.43.348-.671a5.4 5.4 0 0 1 1.527-1.574c.193-.09.382-.19.555-.316.22-.174.518-.174.76-.306.41-.32.86-.608 1.172-1.035.129-.218.28-.421.437-.62.22-.265.17-.634.29-.94.167-.319.13-.692.142-1.04-.014-.297.013-.614-.123-.888-.13-.277-.085-.612-.262-.868-.33-.435-.623-.91-1.076-1.227a6.6 6.6 0 0 1-1.085-.58c-.291-.178-.268-.556-.254-.854.058-.526.06-1.063-.061-1.58-.243-.692-.737-1.273-1.338-1.677-.65-.215-1.348-.173-2.016-.083-.337.04-.587-.226-.803-.443-.12-.248-.076-.546-.117-.815-.106-.452-.258-.892-.396-1.335-.095-.265-.377-.393-.522-.625-.087-.117-.14-.272-.283-.334-.267-.138-.507-.325-.783-.442a3.5 3.5 0 0 0-1.49-.06c-.409.034-.686.366-1.041.532m37.29 7.117c-.54.743-1.339 1.258-1.88 2a66 66 0 0 0 2.874-.074c-.064-.484-.3-.92-.549-1.331-.112-.235-.11-.583-.444-.595m-2.208 3.925c.216.271.543.426.728.725q.252.186.438.44c.261.147.45.377.618.62.203.141.405.296.485.542.106-.15.227-.293.299-.464.164-.389.401-.742.548-1.138.088-.3.087-.613.106-.922-.28.008-.56.008-.84.025-.776.196-1.59.082-2.382.172m-1.387 2.286c-.046.745-.036 1.492-.068 2.238.323-.038.648-.073.968-.132.334-.13.623-.362.98-.434.175-.09.467-.206.404-.448a31 31 0 0 1-1.524-1.523c-.228-.173-.46-.354-.557-.637-.161.289-.09.632-.203.936m-2.314-.243c-.39.403-.79.795-1.187 1.192-.12.13-.351.227-.286.442.258.33.72.334 1.053.562.252.183.57.2.87.207-.016-.946.051-1.89.06-2.835-.185.125-.365.261-.51.432M30.652 42.94c-.3.101-.624.105-.925.201-.241.117-.454.296-.722.354-.326.065-.562.308-.823.492-1.41.822-2.468 2.125-3.336 3.48-.159.536-.604.94-.703 1.498-.11.432-.345.83-.385 1.281a13 13 0 0 0 .007 3.21c.043.402.256.757.362 1.142.085.513.485.883.695 1.344.276.39.521.835.937 1.097.246.375.651.58.983.865.167.115.381.135.546.258.304.19.597.444.974.46.399.026.76.227 1.16.231.634.027 1.276.056 1.903-.056.32-.134.67-.145 1.005-.214.408-.13.732-.436 1.137-.574.327-.114.554-.397.867-.539.51-.494 1.065-.953 1.463-1.547.288-.292.383-.71.663-1.01.134-.487.382-.93.542-1.407.224-.473.161-1.017.267-1.518.14-.38.071-.792.089-1.187-.018-.377.044-.77-.088-1.132-.085-.435-.089-.883-.172-1.32-.215-.587-.438-1.175-.618-1.776-.14-.29-.329-.558-.444-.862-.338-.56-.73-1.093-1.212-1.538-.287-.248-.557-.534-.912-.684-.303-.127-.542-.399-.886-.42-.38-.04-.73-.239-1.12-.204-.417.016-.85-.05-1.254.075"/><path fill="#000" d="M29.463 47.757c.718-.075 1.452-.075 2.162.064.356.117.681.317 1.023.472.259.211.51.435.792.618.123.196.292.355.442.53q.245.453.533.884c.237.323.162.752.29 1.116.142.33.096.697.108 1.046-.01.263.015.541-.089.79-.124.327-.088.692-.214 1.019-.19.364-.417.705-.614 1.065-.302.399-.652.76-1.028 1.09-.3.13-.51.414-.83.503-.453.148-.878.41-1.367.418-.552.027-1.11.043-1.655-.064-.37-.123-.715-.308-1.087-.423-.382-.284-.807-.523-1.109-.9-.157-.203-.32-.401-.48-.6-.162-.388-.45-.726-.503-1.154-.033-.297-.219-.552-.217-.855-.03-.558-.06-1.13.048-1.681.189-.35.136-.775.347-1.112.104-.194.225-.38.29-.592.051-.222.272-.328.38-.518.232-.407.652-.643 1-.938.13-.105.24-.244.403-.297.459-.163.867-.485 1.375-.481m.46 1.778c-.26.113-.543.156-.81.247-.466.317-.86.73-1.226 1.156-.184.43-.357.867-.456 1.325-.025.303-.023.61.004.912.1.393.252.773.428 1.14.325.442.739.816 1.227 1.066a3.8 3.8 0 0 0 1.806.044c.31-.085.547-.321.836-.454.182-.081.274-.268.398-.412.113-.144.286-.245.34-.429.112-.3.29-.573.397-.874.1-.591.11-1.207-.016-1.794-.232-.389-.346-.866-.71-1.162-.294-.287-.609-.595-1.038-.646-.37-.152-.786-.216-1.18-.119"/><path stroke="#000" stroke-width="1.88" d="M22.19 17.371h12.004M6.459 43.246h21.112M35.438 43.246h22.354M23.846 30.418H48.27"/></svg>