<svg xmlns="http://www.w3.org/2000/svg" width="32" height="32" fill="none"><path fill="#F7F7F7" d="M27.03 1.248c.37-.076.788.168.814.563.038.242-.112.445-.277.601-3.706 3.71-7.407 7.423-11.115 11.13-.207.237-.595.28-.836.07-.3-.216-.316-.703-.044-.947a14663 14663 0 0 0 10.85-10.88c.188-.194.377-.393.608-.537"/><path fill="#48FDBC" d="M11.78 6.764c-.002-.276.258-.5.52-.496.973-.004 1.946 0 2.919-.001.268-.02.545.194.55.48.01 1.122.001 2.244.005 3.366.02.1-.046.181-.111.245-.408.41-.809.829-1.215 1.241-.482-1.254-1.447-2.322-2.667-2.848q-.008-.994 0-1.987M7.652 9.655c.756-.103 1.553-.073 2.268.181 1.235.394 2.192 1.336 2.521 2.429q-4 .001-8 0c.265-.917.986-1.727 1.94-2.194.391-.202.83-.327 1.27-.416M19.34 12.037q1.583-1.554 3.17-3.105c.906.006 1.813-.002 2.72.003a.545.545 0 0 1 .541.55c.01.927.001 1.853.005 2.78h-6.34c-.11 0-.218-.02-.327-.038.08-.06.159-.12.23-.19"/><path fill="#F7F7F7" d="M1.39 14.011c.13-.203.384-.272.612-.262q6.115.002 12.232 0c.19.522.615.947 1.135 1.14.553.18 1.2.126 1.679-.223.371-.253.63-.635.983-.909 3.989-.02 7.979-.001 11.967-.008.343-.041.707.212.715.57.008.546.001 1.093.002 1.639.035.35-.293.676-.638.665q-5.754.005-11.508 0c-.268-.014-.57.116-.651.393-.174.383.142.868.567.85 3.622.005 7.244-.001 10.865.003-.728 4.1-1.442 8.203-2.171 12.304-.02.328-.334.608-.664.575H5.475a.62.62 0 0 1-.642-.49c-.25-1.357-.477-2.717-.726-4.074-.48-2.773-.974-5.544-1.462-8.315q5.391-.003 10.782 0c.286.018.597-.142.664-.438.14-.378-.177-.825-.586-.804-3.863-.006-7.726.002-11.589-.004-.283.017-.493-.204-.627-.428-.02-.534-.005-1.069-.012-1.603.003-.197-.02-.417.113-.581m14.526 2.618c-.457.036-.688.615-.43.975.257.411.987.315 1.098-.17.16-.415-.235-.88-.668-.805m-8.018 4.39c-.003 2.2-.006 4.4.002 6.601-.015.29.194.515.445.627.388.075.808-.216.789-.629.004-2.252-.002-4.504.002-6.756-.09-.267-.33-.51-.63-.492-.342-.01-.631.312-.608.65m7.481.003c-.003 2.095.001 4.191-.002 6.287 0 .223-.021.47.106.668.076.132.225.19.35.267h.33c.15-.078.29-.177.395-.311.029-.158.064-.315.06-.475-.004-2.146.001-4.29-.002-6.436.022-.342-.274-.666-.62-.652-.344-.012-.64.31-.617.652m7.48-.161c.004 2.252-.002 4.504.002 6.756-.015.295.204.523.462.627q.163-.002.328-.001c.25-.107.456-.332.444-.619.009-2.203.006-4.406.001-6.609.022-.336-.264-.653-.604-.645-.301-.02-.542.223-.633.491m-10.918-.405c-.186.124-.328.332-.311.563q-.004 3.296 0 6.591c-.027.454.527.804.92.563a.68.68 0 0 0 .334-.632v-6.137c-.002-.186.013-.374-.021-.557-.092-.386-.582-.62-.922-.39m7.488-.003a.65.65 0 0 0-.316.573c-.004 2.172-.001 4.343-.002 6.516-.032.323.208.652.534.701.363.067.731-.258.72-.624.004-2.198.001-4.396 0-6.594.038-.464-.538-.837-.936-.572"/><path fill="#000" d="M25.914.527c.68-.692 1.902-.705 2.593-.023.743.674.773 1.962.058 2.666-1.434 1.44-2.867 2.881-4.307 4.317.626.01 1.254-.014 1.88.011.911.071 1.694.88 1.708 1.797.007 1.065 0 2.13.003 3.196.742.001 1.485-.002 2.228 0a1.9 1.9 0 0 1 1.706 1.08c.28.607.15 1.289.18 1.933.025.55-.013 1.147-.364 1.6-.233.317-.57.569-.95.674a19 19 0 0 0-.27 1.438c-.59 3.324-1.167 6.65-1.762 9.974-.075.477-.147.955-.261 1.424a1.83 1.83 0 0 1-1.25 1.295c-.36.12-.745.085-1.118.09H5.936c-.35-.002-.71.023-1.047-.09a1.83 1.83 0 0 1-1.252-1.297c-.105-.444-.179-.895-.248-1.346-.595-3.35-1.18-6.7-1.773-10.05a19 19 0 0 0-.27-1.438A1.82 1.82 0 0 1 .158 16.66c-.198-.514-.105-1.075-.126-1.612-.008-.569-.04-1.185.29-1.682.34-.536.96-.882 1.596-.875.367-.003.735.001 1.103 0A6.33 6.33 0 0 1 4.7 9.344c1.446-1.483 3.662-2.161 5.69-1.722.006-.73-.02-1.462.012-2.191.053-.915.897-1.689 1.809-1.687h3.785c.963-.03 1.834.813 1.87 1.769.014 1.023-.002 2.047.008 3.072 2.68-2.686 5.357-5.375 8.04-8.058m1.118.72c-.232.143-.42.342-.609.536q-5.421 5.443-10.85 10.88c-.272.244-.255.732.044.947.241.21.63.168.837-.07 3.707-3.707 7.409-7.42 11.115-11.13.164-.156.315-.36.277-.601-.027-.395-.445-.639-.814-.562m-15.4 4.347q-.01 1.215.001 2.43c1.522.642 2.728 1.948 3.329 3.48.507-.503 1.007-1.014 1.517-1.516.081-.078.162-.177.138-.3-.005-1.371.008-2.743-.006-4.114-.007-.35-.352-.611-.687-.587-1.214 0-2.429-.003-3.643.001-.328-.006-.652.269-.649.606M8.185 8.826c-.533.126-1.062.3-1.534.583a4.97 4.97 0 0 0-2.34 3.08q4.827.005 9.656 0c-.398-1.534-1.554-2.856-3.045-3.409-.862-.356-1.824-.399-2.737-.254m11.341 3.409a3 3 0 0 1-.252.213c.118.02.237.043.36.043h6.96c-.004-1.042.006-2.083-.005-3.124a.606.606 0 0 0-.595-.619c-.995-.006-1.991.003-2.987-.004a2169 2169 0 0 0-3.48 3.49M1.39 14.01c-.132.164-.11.383-.113.58.007.535-.008 1.07.012 1.604.134.224.344.445.627.428 3.863.006 7.726-.003 11.589.003.41-.02.726.426.586.805-.067.296-.378.456-.664.437q-5.391-.002-10.782 0c.488 2.772.983 5.543 1.462 8.316.25 1.356.475 2.717.726 4.073a.62.62 0 0 0 .642.49q10.52.002 21.04 0c.33.033.644-.247.663-.575.73-4.1 1.444-8.204 2.172-12.304-3.621-.004-7.243.002-10.865-.003-.425.018-.741-.467-.567-.849.08-.278.383-.407.651-.393q5.754.003 11.508 0c.345.01.673-.315.638-.666 0-.546.005-1.092-.002-1.638-.008-.358-.372-.612-.715-.57-3.989.007-7.978-.011-11.967.008-.354.273-.612.655-.983.909-.479.349-1.126.402-1.68.222a1.94 1.94 0 0 1-1.134-1.14q-6.117.003-12.232 0c-.228-.009-.482.06-.612.263"/><path fill="#000" d="M15.916 16.627c.434-.075.828.39.668.805-.11.485-.84.581-1.097.17-.259-.36-.028-.939.429-.975M7.898 21.02c-.024-.338.265-.66.607-.65.3-.018.54.225.63.492-.003 2.252.002 4.504-.002 6.756.02.413-.4.704-.788.629-.251-.111-.46-.336-.446-.627-.007-2.2-.004-4.4-.001-6.6M15.378 21.022c-.023-.341.273-.665.617-.652.346-.014.642.31.62.652.003 2.145-.002 4.29.003 6.435.004.16-.032.318-.06.475a1.2 1.2 0 0 1-.397.311h-.329c-.125-.077-.274-.134-.35-.267-.127-.198-.105-.444-.106-.668.003-2.095-.002-4.191.002-6.286M22.86 20.858c.09-.268.332-.512.633-.492.34-.008.626.31.604.646.004 2.203.007 4.406-.002 6.608.012.287-.193.513-.443.62q-.165-.001-.329.001c-.258-.104-.477-.332-.461-.627-.004-2.252.001-4.505-.003-6.756M11.942 20.456c.34-.23.83.005.921.39.034.183.019.372.022.558q-.002 3.069 0 6.137a.68.68 0 0 1-.334.632c-.393.24-.948-.11-.92-.563q-.005-3.296 0-6.591c-.018-.232.124-.439.31-.563M19.43 20.454c.398-.266.974.107.936.572q.005 3.297 0 6.593c.011.367-.357.691-.72.625-.326-.05-.566-.378-.534-.702.001-2.172-.002-4.344.002-6.515a.65.65 0 0 1 .316-.573"/></svg>