<svg xmlns="http://www.w3.org/2000/svg" width="49" height="49" fill="none"><path fill="#48FDBC" d="M10.673 3.395c1.011-1.03 2.473-1.788 3.863-1.954 1.014-.074 1.039.059 2.045.211.11 1.248.163 2.744-.044 3.986-.181 1.046-.564 2.087-1.255 2.907-.928 1.041-2.431 2.125-3.806 2.18.993-.635 3.057-1.914 3.787-2.849.379-.425.135-.724-.469-.743-.487-.1-.603.247-.877.55-.724.755-1.722 1.528-2.66 1.994-.363.155-1.024.231-1.396 0-.018-.246.185-.91.285-1.143.525-1.255 1.404-2.342 2.442-3.21.429-.353.068-.706-.458-.872-.451-.183-.553.244-.873.498-.73.692-1.508 1.477-2.015 2.347-.003-1.268.56-2.98 1.431-3.902M45.308 8.188c.013-1.443-.648-2.957-1.514-4.058-.664-.768-.32-1.455-1.139-2.058-.96.804-2.055 1.824-2.787 2.849-.611.868-1.077 1.874-1.168 2.943-.08 1.392-.076 3.93.856 4.94-.253-1.152-.807-3.515-.663-4.692.033-.57.417-.609.857-.194.415.273.252.6.231 1.009-.021 1.045.138 2.298.472 3.29.147.367.56.888.987.988.186-.162.513-.774.607-1.01.516-1.259.662-2.649.543-3.997-.054-.552.45-.547.94-.292.448.19.219.563.265.97.027 1.005.022 2.11-.235 3.084.899-.894 1.71-2.504 1.748-3.772M32.804 21.765c-1.012-1.03-2.55-1.633-3.94-1.8-1.013-.074-.962-.096-1.968.057-.11 1.248-.163 2.743.043 3.986.182 1.045.564 2.087 1.256 2.907.927 1.041 3.431 2.125 4.805 2.18-.993-.635-4.056-1.914-4.786-2.85-.38-.424-.136-.724.469-.742.486-.1.602.247.876.55.725.755 1.723 1.528 2.66 1.994.364.155 1.025.23 1.397 0 .017-.246-.185-.91-.286-1.144-.524-1.255-1.404-2.34-2.441-3.21-.429-.352-.069-.705.458-.872.45-.182.553.245.873.499.73.692 1.507 1.477 2.014 2.347.004-1.268-.56-2.98-1.43-3.902"/><path fill="#000" d="M12.397.585c2.074-.611 4.296-.68 6.417-.27.415.037.662.439.697.822.183 1.277.268 2.58.127 3.865-.14 1.797-.71 3.634-1.944 4.987-1.05 1.099-2.49 1.81-3.993 2.013-1.531.238-3.235-.047-4.417-1.108C8.472 10.2 7.962 9.2 7.769 8.162c-.331-2.057.312-4.252 1.722-5.79.78-.852 1.82-1.418 2.906-1.787m-1.655 2.79a5.33 5.33 0 0 0-1.437 3.626c.533-.913 1.22-1.736 1.986-2.463.335-.266.72-.682 1.193-.49.553.174.718.981.268 1.351-1.09.912-2.012 2.052-2.562 3.369-.106.245-.085.515-.067.774.39.242.851.052 1.232-.11a9.6 9.6 0 0 0 2.629-1.962c.287-.317.558-.82 1.068-.714.634.02.905.876.507 1.322-.766.981-1.77 1.749-2.812 2.416 1.442-.059 2.908-.621 3.882-1.714.725-.86 1.126-1.953 1.316-3.05.218-1.304.162-2.627.047-3.937-1.057-.16-2.132-.154-3.196-.076-1.458.174-2.992.578-4.054 1.658M40.46.481c.334-.279.815-.606 1.24-.298a14.9 14.9 0 0 1 3.567 3.444c1.049 1.443 1.793 3.218 1.6 5.032-.227 1.883-1.201 3.7-2.736 4.836a5 5 0 0 1-2.771.972c-1.6.013-3.103-.858-4.075-2.096-1.394-1.716-2.033-4.154-1.252-6.275.197-.52.322-1.176.85-1.464.527-.236 1.077.215 1.123.747-.212.686-.574 1.323-.68 2.042-.196 1.562.444 3.147 1.513 4.273a10.7 10.7 0 0 1-.31-3.538c.018-.306.146-.622.424-.78.464-.332 1.254.065 1.17.661-.07 1.32-.002 2.679.47 3.925.12.328.261.69.575.875.31.108.523-.22.645-.453.573-1.234.727-2.638.643-3.984-.125-.408.034-.894.443-1.071.498-.252 1.106.165 1.143.698.128 1.228.003 2.474-.293 3.67.761-.809 1.3-1.838 1.483-2.936.222-1.2-.172-2.414-.769-3.447-.794-1.336-1.9-2.464-3.124-3.412-.412.15-.716.547-1.066.82-.408.332-.736.957-1.35.851-.595-.071-.864-.879-.459-1.307.608-.656 1.293-1.235 1.996-1.785M25.644 1.699c.924-.165 1.897.184 2.536.862 1.076 1.112 1.787 2.597 1.877 4.15.146 1.58-.274 3.207-1.204 4.496-.503.726-1.164 1.416-2.053 1.631-1.066.303-2.25-.176-2.912-1.042-.784-1.035-.686-2.62.194-3.57.26-.276.493-.627.448-1.024-.016-.322-.222-.582-.423-.815a2.9 2.9 0 0 1-.564-2.966c.321-.903 1.182-1.536 2.101-1.722m-.47 2.047c-.407.482-.252 1.21.17 1.63.856.84 1.016 2.259.418 3.288-.23.38-.602.666-.76 1.088-.152.401-.045.868.248 1.177.334.417.958.445 1.421.266.699-.501 1.154-1.271 1.493-2.046.713-1.92.232-4.249-1.304-5.635-.498-.409-1.322-.31-1.685.232M2.528 11.796c.683-1.19 2.298-1.648 3.533-1.083 1.005.469 1.672 1.562 1.652 2.668-.023.605.56 1.083 1.137 1.085.595.033 1.207.168 1.684.547.874.602 1.323 1.715 1.144 2.758-.248 1.147-1.207 2.124-2.397 2.252-1.708.128-3.453-.466-4.753-1.575-.496-.416-.197-1.327.446-1.38.364-.07.628.22.901.403.859.632 1.923.96 2.984.99.764.038 1.441-.768 1.196-1.513-.148-.636-.852-.923-1.45-.913-1.055-.052-2-.807-2.346-1.795-.187-.404-.106-.861-.213-1.282-.093-.409-.439-.724-.83-.854-.504-.165-1.071.117-1.345.55-.234.367-.15.82-.133 1.23.065.448.207.876.31 1.314.046.551-.575 1.004-1.087.777-.455-.136-.504-.662-.634-1.044-.263-1.021-.404-2.203.201-3.135M31.553 11.58c.578-.135 1.172-.002 1.738.122a4.72 4.72 0 0 1 3.033 2.106c.615.936.888 2.164.503 3.241-.295.923-1.16 1.624-2.117 1.743-1.723.267-3.437-.774-4.29-2.237-.501-.843-.715-1.832-.72-2.805.033-1.037.84-1.97 1.853-2.17m.408 1.534c-.394.067-.724.465-.677.869.089.847.332 1.729.952 2.349.571.578 1.393 1.004 2.222.892.564-.08.966-.611.97-1.166-.011-.58-.262-1.133-.592-1.601-.649-.902-1.798-1.317-2.875-1.343M19.363 12.396c.585-.07 1.219-.137 1.765.135.82.384 1.427 1.26 1.383 2.18a5.5 5.5 0 0 1-.908 2.928 4.7 4.7 0 0 1-3.158 1.991c-1.131.16-2.384-.366-2.912-1.41-.375-.637-.392-1.405-.283-2.116a4.8 4.8 0 0 1 2.29-3.085c.574-.295 1.18-.535 1.823-.623m-1.819 2.642c-.437.524-.805 1.174-.747 1.88-.026.568.463 1.085 1.023 1.127.737.085 1.434-.292 1.976-.755.803-.7 1.131-1.797 1.113-2.835-.159-.23-.343-.501-.65-.517-.998-.008-2.042.336-2.715 1.1M43.623 16.9c1.516-.308 3.087.884 3.252 2.41.138 2-.73 4.03-2.213 5.368a6.8 6.8 0 0 1-4.643 1.778c-1.446-.02-2.746-1.308-2.724-2.764-.065-1.528 1.35-2.86 2.855-2.836.41.03.788-.227.999-.566.205-.317.114-.707.178-1.059.215-1.135 1.13-2.155 2.296-2.33m-.47 2.04c-.384.481-.167 1.14-.405 1.675-.283.81-.958 1.477-1.786 1.72-.503.19-1.102.037-1.556.364a1.155 1.155 0 0 0-.464 1.264c.096.415.45.74.848.862.885.118 1.771-.132 2.572-.496 1.523-.731 2.64-2.248 2.872-3.923.07-.496.146-1.073-.197-1.49-.445-.59-1.462-.593-1.885.024"/><path fill="#000" d="M24.714 18.719c1.897-.273 3.86-.31 5.737.133 1.547.398 3.058 1.202 3.988 2.54a7.2 7.2 0 0 1 1.227 2.9c.265 1.573.033 3.306-1.015 4.562q1.428-.002 2.858 0c.426.161.693.646.52 1.087-.106.328-.457.537-.796.515-11.7.005-23.402-.001-35.102.002.178 1.973.89 3.909 2.106 5.48a10.47 10.47 0 0 0 5.46 3.722c.955.235 1.934.406 2.92.395h23.77c2.188-.001 4.383-.662 6.155-1.957 2.472-1.752 4.083-4.623 4.328-7.64-2.122-.004-4.244.005-6.365-.003-.39.01-.757-.314-.81-.696-.08-.405.227-.72.551-.899 2.56-.013 5.12-.007 7.68-.003.28.16.565.41.563.762.019 3.462-1.55 6.897-4.198 9.13a11.9 11.9 0 0 1-7.786 2.887c-.006 1.864.008 3.73-.006 5.593.002.492-.476.883-.959.821-7.4-.003-14.801.006-22.203-.005-.445.02-.838-.38-.837-.82-.011-1.014 0-2.028-.005-3.042-.04-.433.27-.9.722-.94.463-.07.903.348.881.81.007.798-.002 1.596.003 2.393l20.799.001q0-2.404.001-4.808c-7.431-.004-14.862.001-22.294-.003-1.81.004-3.627-.366-5.255-1.166-2.615-1.232-4.744-3.457-5.876-6.117a12.1 12.1 0 0 1-.964-4.734c-.006-.354.281-.6.56-.762 1.174-.008 2.348-.003 3.522-.004a4.87 4.87 0 0 1-.25-4.084c.469-.946 1.041-2.028 2.113-2.38.77-.282 1.664-.072 2.284.444.886.865 1.491 2.032 1.638 3.265.114.953-.159 1.899-.559 2.755h3.71c-.215-.895-.19-1.829-.106-2.738a6.8 6.8 0 0 1 1.994-3.756c.673-.594 1.646-.907 2.53-.662.85.215 1.614.827 1.93 1.658.334.76.252 1.655-.131 2.381-.215.528-.831.84-.838 1.458-.072.7.66 1.043.856 1.648 2.669.026 5.34.004 8.01.01.932-.012 1.866.029 2.798-.023-1.053-.673-2.082-1.456-2.799-2.494-.312-.543.24-1.242.835-1.14.391.056.6.425.846.69a10 10 0 0 0 2.302 1.81c.427.199.876.462 1.366.399.368-.174.17-.693.1-.995-.569-1.275-1.476-2.392-2.544-3.283-.284-.213-.24-.616-.171-.92a.84.84 0 0 1 .801-.434c.33.05.59.28.83.496a10.9 10.9 0 0 1 2.023 2.527c-.03-1.65-.774-3.36-2.193-4.274-1.24-.81-2.744-1.034-4.196-1.094-.777-.027-1.553.039-2.323.132-.083.943-.085 1.89-.058 2.834.02.984.282 1.948.639 2.858.133.341.433.637.384 1.029.023.397-.347.644-.672.772-.794.007-1.02-.85-1.29-1.433-.804-2.18-.888-4.58-.472-6.85.047-.378.347-.701.733-.74m-8.159 4.779c-1.464 1.316-1.96 3.512-1.347 5.361.872-.015 1.743 0 2.615-.009-.591-.812-.69-1.954-.226-2.848.191-.363.503-.64.726-.98.273-.436.224-1.062-.16-1.419-.387-.46-1.164-.5-1.608-.105m-9.729.465c-.975.84-1.515 2.291-1.072 3.544.18.542.507 1.091 1.048 1.333.36.01.79.105 1.081-.169.778-.644 1.045-1.751.871-2.718a4.14 4.14 0 0 0-1.03-1.866c-.22-.247-.615-.274-.898-.123"/><path fill="#000" d="M5.004 32.081c.355-.046.714-.017 1.07-.023 12.407-.001 24.813.003 37.221-.001.346.016.752-.065 1.038.183.383.277.38.946-.004 1.222-.178.168-.441.169-.669.179-12.813-.003-25.625.005-38.438-.004-.41.027-.854-.302-.826-.736-.067-.386.236-.752.608-.82"/></svg>